<svg width="216" height="138" viewBox="0 0 216 138" fill="none" xmlns="http://www.w3.org/2000/svg">
<path d="M-9.70364e-05 68.6C-9.70364e-05 22 22.5999 1.43051e-05 52.5999 1.43051e-05C82.3999 1.43051e-05 105 22 105 68.6C105 115.2 82.3999 137.2 52.5999 137.2C22.5999 137.2 -9.70364e-05 115.2 -9.70364e-05 68.6ZM26.3999 68.6C26.3999 95.6 34.5999 113.2 52.5999 113.2C70.3999 113.2 78.5999 95.6 78.5999 68.6C78.5999 41.4 70.3999 24 52.5999 24C34.5999 24 26.3999 41.4 26.3999 68.6ZM144.972 43.4L121.572 34.2C126.772 18.6 141.372 1.43051e-05 170.572 1.43051e-05C195.572 1.43051e-05 214.572 15.2 214.572 36.8C214.572 58.2 202.172 69.8 181.372 88.6L156.572 111L215.172 110.4V134.4H121.372V111.6L165.772 71C175.972 61.4 186.972 52 186.972 40C186.972 30.4 179.372 24.2 169.172 24.2C156.172 24.2 148.172 34.8 144.972 43.4Z" fill="#F96A86"/>
</svg>
