<svg width="215" height="138" viewBox="0 0 215 138" fill="none" xmlns="http://www.w3.org/2000/svg">
<path d="M-9.70364e-05 68.6C-9.70364e-05 22 22.5999 1.43051e-05 52.5999 1.43051e-05C82.3999 1.43051e-05 105 22 105 68.6C105 115.2 82.3999 137.2 52.5999 137.2C22.5999 137.2 -9.70364e-05 115.2 -9.70364e-05 68.6ZM26.3999 68.6C26.3999 95.6 34.5999 113.2 52.5999 113.2C70.3999 113.2 78.5999 95.6 78.5999 68.6C78.5999 41.4 70.3999 24 52.5999 24C34.5999 24 26.3999 41.4 26.3999 68.6ZM118.572 108L142.772 98.6C144.572 104.4 152.572 113.8 166.172 113.8C180.172 113.8 186.572 105.6 186.572 95.8C186.572 85.2 176.572 76.8 159.772 76.8H152.372V56.6H159.772C175.772 56.6 184.372 47.8 184.372 38.4C184.372 30.2 178.772 23.2 165.972 23.2C154.972 23.2 147.772 29.8 145.172 36.6L121.772 26C126.772 13.6 141.372 1.43051e-05 167.772 1.43051e-05C193.772 1.43051e-05 210.572 15.6 210.572 35.4C210.572 50 201.972 59.6 190.572 65.2C203.772 70 214.172 79.6 214.172 98C214.172 119.8 195.172 137.2 166.572 137.2C140.972 137.2 124.772 125.2 118.572 108Z" fill="#F96A86"/>
</svg>
