<svg width="78" height="50" viewBox="0 0 78 50" fill="none" xmlns="http://www.w3.org/2000/svg">
<g clip-path="url(#paint0_angular_1885_12610_clip_path)" data-figma-skip-parse="true"><g transform="matrix(0.0498 0.03575 -0.0370788 0.0522999 52.0727 18.8489)"><foreignObject x="-1170.51" y="-1170.51" width="2341.03" height="2341.03"><div xmlns="http://www.w3.org/1999/xhtml" style="background:conic-gradient(from 90deg,rgba(249, 106, 134, 1) 0deg,rgba(249, 106, 220, 1) 68.3654deg,rgba(148, 0, 255, 1) 136.731deg,rgba(255, 0, 225, 1) 204.231deg,rgba(255, 0, 110, 1) 278.654deg,rgba(249, 106, 134, 1) 357.076deg,rgba(249, 106, 134, 1) 360deg);height:100%;width:100%;opacity:1"></div></foreignObject></g></g><path d="M-0.000406027 24.696C-0.000406027 7.92003 8.13559 2.95639e-05 18.9356 2.95639e-05C29.6636 2.95639e-05 37.7996 7.92003 37.7996 24.696C37.7996 41.472 29.6636 49.392 18.9356 49.392C8.13559 49.392 -0.000406027 41.472 -0.000406027 24.696ZM9.50359 24.696C9.50359 34.416 12.4556 40.752 18.9356 40.752C25.3436 40.752 28.2956 34.416 28.2956 24.696C28.2956 14.904 25.3436 8.64003 18.9356 8.64003C12.4556 8.64003 9.50359 14.904 9.50359 24.696ZM52.1895 15.624L43.7655 12.312C45.6375 6.69603 50.8935 2.95639e-05 61.4055 2.95639e-05C70.4055 2.95639e-05 77.2455 5.47203 77.2455 13.248C77.2455 20.952 72.7815 25.128 65.2935 31.896L56.3655 39.96L77.4615 39.744V48.384H43.6935V40.176L59.6775 25.56C63.3495 22.104 67.3095 18.72 67.3095 14.4C67.3095 10.944 64.5735 8.71203 60.9015 8.71203C56.2215 8.71203 53.3415 12.528 52.1895 15.624Z" data-figma-gradient-fill="{&#34;type&#34;:&#34;GRADIENT_ANGULAR&#34;,&#34;stops&#34;:[{&#34;color&#34;:{&#34;r&#34;:0.97647058963775635,&#34;g&#34;:0.41568627953529358,&#34;b&#34;:0.86431372165679932,&#34;a&#34;:1.0},&#34;position&#34;:0.18990384042263031},{&#34;color&#34;:{&#34;r&#34;:0.58333331346511841,&#34;g&#34;:0.0,&#34;b&#34;:1.0,&#34;a&#34;:1.0},&#34;position&#34;:0.37980768084526062},{&#34;color&#34;:{&#34;r&#34;:1.0,&#34;g&#34;:0.0019231942715123296,&#34;b&#34;:0.88355767726898193,&#34;a&#34;:1.0},&#34;position&#34;:0.56730771064758301},{&#34;color&#34;:{&#34;r&#34;:1.0,&#34;g&#34;:0.0,&#34;b&#34;:0.43333333730697632,&#34;a&#34;:1.0},&#34;position&#34;:0.77403843402862549},{&#34;color&#34;:{&#34;r&#34;:0.97647058963775635,&#34;g&#34;:0.41568627953529358,&#34;b&#34;:0.52549022436141968,&#34;a&#34;:1.0},&#34;position&#34;:0.99187636375427246},{&#34;color&#34;:{&#34;r&#34;:0.97647058963775635,&#34;g&#34;:0.41568627953529358,&#34;b&#34;:0.52549022436141968,&#34;a&#34;:1.0},&#34;position&#34;:1.0}],&#34;stopsVar&#34;:[{&#34;color&#34;:{&#34;r&#34;:0.97647058963775635,&#34;g&#34;:0.41568627953529358,&#34;b&#34;:0.86431372165679932,&#34;a&#34;:1.0},&#34;position&#34;:0.18990384042263031},{&#34;color&#34;:{&#34;r&#34;:0.58333331346511841,&#34;g&#34;:0.0,&#34;b&#34;:1.0,&#34;a&#34;:1.0},&#34;position&#34;:0.37980768084526062},{&#34;color&#34;:{&#34;r&#34;:1.0,&#34;g&#34;:0.0019231942715123296,&#34;b&#34;:0.88355767726898193,&#34;a&#34;:1.0},&#34;position&#34;:0.56730771064758301},{&#34;color&#34;:{&#34;r&#34;:1.0,&#34;g&#34;:0.0,&#34;b&#34;:0.43333333730697632,&#34;a&#34;:1.0},&#34;position&#34;:0.77403843402862549},{&#34;color&#34;:{&#34;r&#34;:0.97647058963775635,&#34;g&#34;:0.41568627953529358,&#34;b&#34;:0.52549022436141968,&#34;a&#34;:1.0},&#34;position&#34;:0.99187636375427246},{&#34;color&#34;:{&#34;r&#34;:0.97647058963775635,&#34;g&#34;:0.41568627953529358,&#34;b&#34;:0.52549022436141968,&#34;a&#34;:1.0},&#34;position&#34;:1.0}],&#34;transform&#34;:{&#34;m00&#34;:99.600006103515625,&#34;m01&#34;:-74.157577514648438,&#34;m02&#34;:39.35144042968750,&#34;m10&#34;:71.50,&#34;m11&#34;:104.59982299804688,&#34;m12&#34;:-69.201034545898438},&#34;opacity&#34;:1.0,&#34;blendMode&#34;:&#34;NORMAL&#34;,&#34;visible&#34;:true}"/>
<defs>
<clipPath id="paint0_angular_1885_12610_clip_path"><path d="M-0.000406027 24.696C-0.000406027 7.92003 8.13559 2.95639e-05 18.9356 2.95639e-05C29.6636 2.95639e-05 37.7996 7.92003 37.7996 24.696C37.7996 41.472 29.6636 49.392 18.9356 49.392C8.13559 49.392 -0.000406027 41.472 -0.000406027 24.696ZM9.50359 24.696C9.50359 34.416 12.4556 40.752 18.9356 40.752C25.3436 40.752 28.2956 34.416 28.2956 24.696C28.2956 14.904 25.3436 8.64003 18.9356 8.64003C12.4556 8.64003 9.50359 14.904 9.50359 24.696ZM52.1895 15.624L43.7655 12.312C45.6375 6.69603 50.8935 2.95639e-05 61.4055 2.95639e-05C70.4055 2.95639e-05 77.2455 5.47203 77.2455 13.248C77.2455 20.952 72.7815 25.128 65.2935 31.896L56.3655 39.96L77.4615 39.744V48.384H43.6935V40.176L59.6775 25.56C63.3495 22.104 67.3095 18.72 67.3095 14.4C67.3095 10.944 64.5735 8.71203 60.9015 8.71203C56.2215 8.71203 53.3415 12.528 52.1895 15.624Z"/></clipPath></defs>
</svg>
