<svg width="34" height="34" viewBox="0 0 34 34" fill="none" xmlns="http://www.w3.org/2000/svg">
<path d="M21.3981 8.75404C22.3708 7.50346 23.0656 5.83602 22.9266 4.16858C21.676 4.30753 19.8697 5.0023 18.758 6.11393C17.7853 7.0866 16.9516 8.75404 17.2295 10.5604C18.6191 10.6994 20.2865 10.0046 21.3981 8.75404ZM23.6214 21.3988C23.4824 25.2895 26.8173 26.679 26.9563 26.679C26.8173 27.0959 25.4278 31.5424 22.0929 31.5424C20.5644 31.5424 19.0359 30.5697 18.2022 30.5697C17.2295 30.5697 15.701 31.5424 14.1726 31.5424C10.6987 31.5424 7.7807 28.0686 5.9743 25.2895C2.22256 19.7314 3.61209 14.0343 6.80802 11.1163C8.33651 9.72672 10.2819 8.893 12.2272 8.893C13.8947 8.893 15.4231 10.0046 16.2569 10.0046C17.2295 10.0046 19.0359 8.75404 20.9813 8.75404C23.0656 8.75404 25.0109 9.72672 25.9836 11.2552C21.676 13.7564 22.3708 19.3145 26.4005 20.982L23.6214 21.3988Z" fill="white"/>
</svg>
