<svg width="30" height="30" viewBox="0 0 30 30" fill="none" xmlns="http://www.w3.org/2000/svg">
<path d="M24.4442 15.8895C24.4442 22.0006 20.1664 25.0561 15.082 26.8283C14.8158 26.9186 14.5266 26.9142 14.2631 26.8161C9.16645 25.0561 4.88867 22.0006 4.88867 15.8895V7.3339C4.88867 7.00974 5.01744 6.69887 5.24665 6.46966C5.47586 6.24044 5.78674 6.11167 6.11089 6.11167C8.55534 6.11167 11.6109 4.64501 13.7376 2.78723C13.9965 2.56601 14.3259 2.44446 14.6664 2.44446C15.007 2.44446 15.3364 2.56601 15.5953 2.78723C17.7342 4.65723 20.7776 6.11167 23.222 6.11167C23.5462 6.11167 23.857 6.24044 24.0862 6.46966C24.3155 6.69887 24.4442 7.00974 24.4442 7.3339V15.8895Z" stroke="#F96A86" stroke-width="2.44444" stroke-linecap="round" stroke-linejoin="round"/>
</svg>
