<svg width="66" height="66" viewBox="0 0 66 66" fill="none" xmlns="http://www.w3.org/2000/svg">
<path d="M52.6014 0H13.1128C5.87078 0 0 5.8708 0 13.1128V52.5914C0 59.8333 5.87078 65.7041 13.1128 65.7041H52.6014C59.8433 65.7041 65.7141 59.8333 65.7141 52.5914V13.1128C65.7141 5.8708 59.8433 0 52.6014 0Z" fill="white"/>
<path d="M18.4628 9.76108C24.5145 8.8321 29.6507 13.0827 32.9155 18.1888C42.4059 0.310801 64.5178 13.6073 55.395 32.0467C50.6231 41.6875 31.9865 56.9222 31.9865 56.9222C24.8955 44.9323 6.21213 37.1428 8.32407 20.5748C9.01914 15.1178 13.4937 10.5263 18.4628 9.76108Z" fill="#F96A86"/>
<path d="M26.837 20.6245C26.7768 21.1959 26.3792 22.1048 26.1587 22.6662C25.1194 25.2928 22.279 30.0848 22.8939 32.8149C23.4887 35.4482 26.5831 34.8801 28.3107 33.6704C30.7435 31.9661 32.4444 28.7347 32.9256 25.8642C33.0659 25.6303 34.1185 26.3488 34.2355 26.4891C34.6866 27.0204 33.7676 29.4365 33.6941 29.6002C33.4335 30.175 33.0926 30.9235 32.7919 31.4649C32.725 31.5852 32.6482 31.759 32.6114 31.8191C32.4443 32.0998 32.1002 32.5041 31.8896 32.7949C29.8011 35.6921 26.4193 37.8609 22.6666 36.7681C19.2213 35.7656 19.0409 32.2635 19.7995 29.3295C20.685 25.8876 22.8805 22.713 23.7827 19.3446C23.8429 19.1174 23.9197 18.2686 23.9565 18.2251C23.9866 18.1884 26.8971 20.0631 26.837 20.6211V20.6245Z" fill="white"/>
<path d="M45.7844 15.2912C46.6934 14.8167 48.1369 14.3422 49.1628 14.3088C50.8905 14.252 52.8387 14.9638 53.5438 16.6213C53.0359 16.4308 52.5781 16.0766 52.0601 15.9061C48.5514 14.7633 45.6273 17.9178 43.8896 20.4842C42.6666 22.2854 41.7343 24.2503 40.822 26.2152C43.609 25.47 46.5396 25.5235 49.3934 25.1492C49.2798 26.2586 48.558 27.7089 47.5288 28.2436C45.9114 29.079 42.0885 28.3806 40.1403 28.6112C40.04 28.6246 39.9431 28.6112 39.8729 28.7048C38.6432 31.6755 37.5706 34.7231 36.2339 37.6504C34.6533 41.1158 30.6466 48.3806 25.0994 48.2302C23.0576 48.1734 21.096 46.1383 19.7493 44.7014C18.7535 43.6387 17.8212 42.4691 16.9991 41.2795C18.2255 41.9846 19.2013 43.0974 20.3408 43.9395C21.7376 44.9721 23.7427 46.3823 25.5505 45.881C29.7878 44.7114 32.6015 37.5168 34.142 33.8576C35.0944 31.5987 35.9632 29.2729 36.939 27.0172C36.9791 26.9237 36.9957 26.8267 37.0292 26.7499C38.8003 22.7098 41.6474 17.4533 45.7811 15.2879L45.7844 15.2912Z" fill="white"/>
</svg>
