<svg width="105" height="105" viewBox="0 0 105 105" fill="none" xmlns="http://www.w3.org/2000/svg">
<path d="M65.6683 56.9493C65.1951 56.5127 64.7551 56.0398 64.3618 55.5307C63.9582 55.0082 63.5944 54.4494 63.2869 53.8606C62.44 52.2601 61.9607 50.4413 61.9607 48.51C61.9607 48.1362 61.9773 47.7627 62.0135 47.3986C60.9057 46.5291 59.6721 45.8114 58.3462 45.2789C56.7291 46.1518 54.8738 46.6479 52.9098 46.6479C50.8725 46.6479 48.9609 46.1157 47.301 45.1829C46.0078 45.679 44.7975 46.3501 43.7027 47.1672C43.7555 47.6069 43.7822 48.0568 43.7822 48.5098C43.7822 50.428 43.3094 52.2368 42.4757 53.8278C42.1682 54.4163 41.8077 54.9784 41.4044 55.5009C40.9611 56.0731 40.465 56.602 39.9228 57.0818C43.6829 58.9834 46.6658 62.2077 48.2498 66.1396H57.0829C58.7034 62.1149 61.7857 58.8311 65.6683 56.9493Z" fill="#F96A86"/>
<path d="M83.9135 61.9528C82.488 60.5275 80.7782 59.3864 78.8766 58.6228C77.2595 59.4956 75.4042 59.9916 73.4401 59.9916C71.4059 59.9916 69.4912 59.4594 67.8345 58.5302C67.8182 58.5368 67.8011 58.5434 67.7848 58.55C64.1835 59.9424 61.2534 62.6772 59.6068 66.1396C58.6671 68.104 58.1412 70.3032 58.1412 72.628V76.0211C58.1412 77.9324 59.6894 79.4835 61.6004 79.4835H84.8721C86.7835 79.4835 88.3345 77.9324 88.3345 76.0211V72.628C88.3347 68.4577 86.645 64.6842 83.9135 61.9528Z" fill="#F96A86"/>
<path d="M79.7297 41.8442C79.7024 41.8183 79.6758 41.792 79.6479 41.7664C79.5735 41.6975 79.4966 41.6309 79.4193 41.5643C79.3889 41.5382 79.3594 41.5119 79.3286 41.486C79.2521 41.4215 79.1733 41.3594 79.0944 41.2974C79.0619 41.2715 79.0295 41.2454 78.9965 41.2202C78.9172 41.1597 78.836 41.101 78.7547 41.0431C78.7209 41.019 78.6866 40.9943 78.6525 40.9705C78.5707 40.9139 78.4875 40.8588 78.4037 40.8049C78.3678 40.782 78.3323 40.7584 78.2961 40.736C78.2123 40.6832 78.1271 40.6323 78.0407 40.5821C78.0036 40.5606 77.9669 40.5393 77.9293 40.5183C77.8425 40.4692 77.7549 40.4219 77.666 40.3756C77.6284 40.356 77.5902 40.3365 77.5521 40.3174C77.4623 40.2722 77.3721 40.2284 77.2802 40.1861C77.242 40.1686 77.2038 40.1514 77.1657 40.1341C77.073 40.0928 76.9793 40.0528 76.8847 40.0144C76.8467 39.9991 76.8082 39.9843 76.7705 39.9693C76.6738 39.9317 76.577 39.8952 76.4792 39.8608C76.4424 39.8479 76.4051 39.8356 76.368 39.8229C76.2675 39.7893 76.1665 39.7566 76.0644 39.7259C76.0297 39.7156 75.9943 39.7061 75.9593 39.6961C75.8539 39.6662 75.7482 39.637 75.6415 39.6108C75.6102 39.603 75.5783 39.5964 75.547 39.5891C75.4353 39.5626 75.3232 39.5373 75.2103 39.5153C75.1856 39.5107 75.1612 39.5069 75.1368 39.5021C75.0154 39.4797 74.8934 39.4581 74.7702 39.44C74.7619 39.4389 74.7536 39.4383 74.7452 39.4371C74.319 39.3763 73.8835 39.3429 73.4405 39.3429C72.8492 39.3429 72.2722 39.4009 71.712 39.5079C71.7015 39.51 71.6903 39.5113 71.6796 39.5137C71.5549 39.5381 71.4315 39.5657 71.3087 39.595C71.2886 39.5998 71.2686 39.6039 71.2491 39.6088C71.1322 39.6374 71.0168 39.669 70.902 39.7021C70.8765 39.7093 70.8512 39.7162 70.8259 39.7236C70.7154 39.7566 70.606 39.7919 70.497 39.8289C70.4689 39.8386 70.4395 39.8479 70.4111 39.8579C70.3058 39.8949 70.2015 39.9343 70.0979 39.9747C70.0672 39.9868 70.0362 39.9989 70.0052 40.0112C69.9046 40.0522 69.8051 40.0947 69.7061 40.1389C69.6736 40.1536 69.641 40.1682 69.6088 40.1832C69.5124 40.2277 69.417 40.2736 69.3226 40.3212C69.289 40.3381 69.2554 40.3556 69.2218 40.3729C69.1293 40.4208 69.0378 40.4705 68.9474 40.5217C68.9136 40.5406 68.8796 40.5602 68.8458 40.5797C68.7573 40.6315 68.6696 40.6839 68.5829 40.7385C68.5485 40.7599 68.5145 40.7818 68.4807 40.8039C68.3955 40.8587 68.3108 40.9144 68.2278 40.9721C68.1941 40.9954 68.1612 41.0195 68.1281 41.0433C68.0459 41.1015 67.9645 41.1607 67.8844 41.2219C67.8513 41.2471 67.8196 41.273 67.7871 41.2984C67.7082 41.3605 67.6299 41.4228 67.5531 41.4867C67.5215 41.5138 67.4905 41.5413 67.4592 41.5686C67.3831 41.6337 67.3077 41.6995 67.2342 41.7673C67.2043 41.7949 67.176 41.8233 67.1466 41.8508C67.0728 41.9206 66.9996 41.9903 66.9282 42.0623C66.902 42.0887 66.8767 42.1162 66.851 42.143C66.7787 42.2182 66.7061 42.2933 66.636 42.3712C66.6182 42.3908 66.6016 42.4114 66.584 42.4315C66.3577 42.6861 66.1467 42.9537 65.9496 43.2327C65.9183 43.2775 65.8855 43.3215 65.8546 43.3667C65.8133 43.4279 65.774 43.4908 65.7341 43.5528C65.6959 43.6119 65.6572 43.6705 65.6205 43.7304C65.5843 43.7894 65.5504 43.85 65.5154 43.9097C65.4778 43.9748 65.4393 44.0395 65.4031 44.1054C65.3706 44.1642 65.3402 44.2244 65.3092 44.2837C65.2736 44.353 65.2375 44.4216 65.2029 44.4916C65.1743 44.5506 65.1472 44.6111 65.1194 44.6707C65.0861 44.7427 65.0529 44.8146 65.0213 44.8878C64.9954 44.9478 64.9713 45.0089 64.9466 45.0695C64.9162 45.1439 64.8863 45.2185 64.8581 45.2939C64.8352 45.3551 64.8139 45.4168 64.7921 45.4782C64.7654 45.5547 64.7391 45.6312 64.7141 45.7084C64.6939 45.7713 64.675 45.8344 64.6563 45.8976C64.6334 45.9753 64.6109 46.0532 64.5897 46.1318C64.5725 46.1962 64.5564 46.2605 64.5406 46.3253C64.5214 46.4039 64.503 46.4828 64.4858 46.5626C64.4714 46.6286 64.458 46.6952 64.4451 46.7618C64.4298 46.8407 64.4159 46.9202 64.4026 46.9998C64.3912 47.0684 64.3806 47.1373 64.3704 47.2061C64.3596 47.2845 64.3494 47.3634 64.3406 47.4423C64.3319 47.5143 64.324 47.5859 64.3177 47.6582C64.315 47.6863 64.3108 47.7142 64.3084 47.7423C64.3061 47.7679 64.3072 47.7948 64.3053 47.8206C64.2899 48.0258 64.2798 48.2329 64.2786 48.4416C64.278 48.4651 64.2755 48.4873 64.2755 48.5108C64.2755 48.7081 64.2842 48.903 64.2962 49.0964C64.3215 49.4943 64.37 49.8855 64.445 50.2665C64.4464 50.2581 64.4492 50.2502 64.4507 50.2421C64.8276 52.2209 65.8349 53.9748 67.2631 55.2825C68.8899 56.7706 71.0596 57.6766 73.4408 57.6766C77.905 57.6766 81.6214 54.4855 82.4387 50.2602C82.4387 50.2608 82.4393 50.2614 82.4393 50.2622C82.448 50.2192 82.4537 50.1755 82.4613 50.1322C82.4768 50.0455 82.4935 49.9587 82.5065 49.8713C82.5243 49.7553 82.5381 49.6385 82.551 49.5213C82.5539 49.4937 82.5585 49.4662 82.561 49.4384C82.592 49.1333 82.6086 48.8238 82.6086 48.5108C82.6086 48.4916 82.6063 48.4726 82.606 48.4537C82.6048 48.2419 82.5948 48.032 82.5792 47.8239C82.5772 47.794 82.5778 47.7636 82.5758 47.7341C82.5728 47.7022 82.5683 47.6712 82.5656 47.6393C82.5598 47.5805 82.5532 47.5215 82.5463 47.463C82.536 47.3706 82.5248 47.2787 82.5116 47.1872C82.5029 47.13 82.4941 47.0732 82.4846 47.0161C82.4693 46.9245 82.4533 46.8332 82.4355 46.7425C82.4249 46.6868 82.4134 46.6311 82.4014 46.5757C82.3818 46.4853 82.3613 46.3954 82.3394 46.3062C82.3258 46.2513 82.3116 46.1962 82.2972 46.1417C82.2739 46.0538 82.249 45.9666 82.2231 45.8799C82.2062 45.8248 82.1897 45.7697 82.1722 45.7152C82.1449 45.6302 82.1165 45.5461 82.0867 45.4622C82.0674 45.4074 82.0479 45.3523 82.0276 45.298C81.9972 45.2159 81.9647 45.135 81.9318 45.0543C81.9097 44.9995 81.8875 44.9444 81.864 44.8902C81.8304 44.8115 81.7945 44.7345 81.7586 44.6571C81.7331 44.6019 81.7084 44.5468 81.6821 44.4923C81.6459 44.4185 81.6074 44.3456 81.5692 44.2727C81.5396 44.2167 81.5114 44.1601 81.481 44.1047C81.4434 44.0364 81.4038 43.9698 81.3647 43.9026C81.3309 43.8444 81.2979 43.7859 81.2629 43.7287C81.2256 43.6677 81.1863 43.6084 81.1475 43.5484C81.1077 43.487 81.0689 43.4249 81.0279 43.3644C80.9966 43.3179 80.963 43.2731 80.9309 43.2274C80.7261 42.9374 80.5056 42.6593 80.2697 42.3958C80.262 42.3874 80.2548 42.3786 80.2471 42.3699C80.1742 42.2889 80.0981 42.2103 80.0224 42.132C79.9995 42.1084 79.9778 42.084 79.9546 42.0611C79.881 41.987 79.8053 41.9156 79.7297 41.8442Z" fill="#F96A86"/>
<path d="M42.7709 61.9529C41.3453 60.5276 39.6358 59.3865 37.7342 58.6229C36.1138 59.4957 34.2649 59.9917 32.3006 59.9917C30.2636 59.9917 28.352 59.4595 26.6921 58.5268C21.024 60.7028 16.999 66.1959 16.999 72.6278V76.021C16.999 77.9323 18.5501 79.4833 20.4617 79.4833H43.7335C45.6445 79.4833 47.1923 77.9323 47.1923 76.021V72.6278C47.1923 70.3032 46.6664 68.1039 45.7309 66.1394C44.9868 64.5756 43.9814 63.1631 42.7709 61.9529Z" fill="#F96A86"/>
<path d="M23.1767 49.3993C23.1773 49.4073 23.1788 49.415 23.1797 49.4231C23.1935 49.5614 23.2101 49.6992 23.23 49.8362C23.2305 49.8396 23.2311 49.8428 23.2314 49.8462C23.8136 53.8276 26.9529 56.9781 30.9318 57.5741H30.9349C31.3813 57.6436 31.8375 57.6765 32.3005 57.6765C32.7041 57.6765 33.1043 57.6501 33.4947 57.5973C35.2076 57.3756 36.7749 56.6813 38.055 55.6429C39.7036 54.3147 40.8801 52.4235 41.2979 50.2616C41.2982 50.2601 41.2982 50.2592 41.2985 50.2582C41.3154 50.1709 41.3295 50.0831 41.3439 49.9952C41.3563 49.9215 41.3683 49.848 41.3786 49.7736C41.3864 49.717 41.393 49.66 41.3996 49.6028C41.4123 49.4986 41.4237 49.3935 41.4327 49.2881C41.4342 49.2709 41.4367 49.2543 41.4378 49.237C41.4393 49.2204 41.4384 49.2032 41.4399 49.1861C41.4559 48.9677 41.4667 48.7475 41.4669 48.525C41.4669 48.5199 41.4678 48.5147 41.4678 48.5096C41.4678 48.2656 41.4555 48.0247 41.4368 47.7856C41.4353 47.7687 41.4356 47.7512 41.4345 47.7338C41.4327 47.7158 41.4302 47.6974 41.4287 47.6793C41.4198 47.5845 41.4095 47.4907 41.3983 47.3968C41.3914 47.3414 41.3845 47.2857 41.377 47.2306C41.3644 47.1393 41.3497 47.0489 41.3342 46.9584C41.3248 46.9021 41.315 46.8455 41.3041 46.7896C41.2875 46.7007 41.2691 46.6122 41.2496 46.5243C41.2375 46.4686 41.2243 46.4129 41.2111 46.3578C41.19 46.2702 41.168 46.1828 41.1445 46.096C41.1298 46.0424 41.1143 45.9889 41.0988 45.9358C41.0732 45.8482 41.0467 45.7611 41.0187 45.6747C41.0026 45.6244 40.985 45.5744 40.9678 45.5247C40.9377 45.4363 40.9067 45.3485 40.8736 45.2612C40.8561 45.2155 40.8377 45.1705 40.8199 45.1251C40.7841 45.0353 40.7476 44.9456 40.7091 44.8573C40.6919 44.8175 40.6736 44.7784 40.6558 44.739C40.6139 44.6462 40.5717 44.5538 40.5266 44.4628C40.5111 44.4312 40.4944 44.4005 40.4787 44.3692C40.4293 44.2713 40.3787 44.1743 40.326 44.0783C40.3157 44.0596 40.3045 44.0413 40.2938 44.0226C39.7543 43.0633 39.0475 42.2112 38.2125 41.5053C38.2105 41.5035 38.2083 41.5016 38.2062 41.4999C38.1069 41.4164 38.0059 41.3351 37.9029 41.2556C37.8934 41.2481 37.8842 41.2409 37.8748 41.2335C37.776 41.1577 37.6753 41.0842 37.573 41.0125C37.5592 41.0028 37.5457 40.9926 37.5317 40.9829C37.4324 40.9137 37.3317 40.8468 37.2291 40.7817C37.2116 40.7703 37.1944 40.7588 37.1766 40.7479C37.0764 40.6847 36.9751 40.6242 36.8724 40.5648C36.8517 40.553 36.8311 40.541 36.8101 40.5289C36.7088 40.4717 36.6062 40.4163 36.5026 40.363C36.4797 40.3509 36.4564 40.3389 36.4331 40.3274C36.33 40.2752 36.2258 40.225 36.1204 40.1768C36.0963 40.1656 36.0716 40.1544 36.0475 40.1434C35.9422 40.0964 35.836 40.0507 35.7283 40.0073C35.7033 39.9973 35.6777 39.9872 35.6522 39.9772C35.5443 39.9347 35.4354 39.8943 35.3254 39.8558C35.3007 39.8468 35.2752 39.8389 35.2499 39.8302C35.1388 39.7923 35.0268 39.7561 34.9135 39.7226C34.8896 39.7154 34.8655 39.7088 34.8417 39.7019C34.7261 39.6685 34.6098 39.6371 34.4927 39.6082C34.4716 39.6031 34.4508 39.5985 34.43 39.5936C34.3086 39.5646 34.1863 39.5376 34.0635 39.5134C34.0488 39.5105 34.0345 39.5083 34.0198 39.5057C33.4626 39.3997 32.8882 39.3424 32.3003 39.3424C31.7103 39.3424 31.1339 39.4004 30.5754 39.5065C30.5627 39.5092 30.5501 39.5108 30.5377 39.5134C30.4134 39.5376 30.2902 39.5652 30.1679 39.5944C30.1478 39.599 30.1278 39.6034 30.108 39.6082C29.9897 39.6372 29.8731 39.6691 29.7571 39.7028C29.7336 39.7094 29.7101 39.7157 29.6866 39.7226C29.573 39.7564 29.4607 39.7927 29.349 39.8308C29.324 39.8392 29.299 39.8474 29.274 39.8561C29.1638 39.8946 29.0547 39.9356 28.9464 39.978C28.9217 39.9877 28.8964 39.9976 28.8714 40.0079C28.7639 40.0512 28.6573 40.0968 28.5519 40.1443C28.5272 40.1552 28.5031 40.166 28.4787 40.1774C28.373 40.2256 28.2691 40.2761 28.1658 40.3283C28.1426 40.3401 28.1196 40.3518 28.0969 40.3636C27.9927 40.4175 27.8902 40.4729 27.7885 40.5304C27.7678 40.5422 27.7475 40.5539 27.7271 40.5657C27.6243 40.625 27.5223 40.6859 27.4222 40.7494C27.4047 40.7606 27.3872 40.7717 27.3698 40.7831C27.2673 40.8485 27.1659 40.9156 27.0665 40.9849C27.053 40.9943 27.0395 41.0041 27.0264 41.0135C26.9234 41.0861 26.822 41.1602 26.7225 41.2366C26.7144 41.2427 26.7072 41.2487 26.6998 41.2547C25.6041 42.1016 24.7056 43.1907 24.0849 44.4424C24.0838 44.4444 24.0829 44.4461 24.082 44.4478C24.0238 44.5653 23.9688 44.684 23.9155 44.8038C23.9106 44.8156 23.9049 44.827 23.9 44.8388C23.8501 44.9527 23.8033 45.0682 23.7576 45.1845C23.7504 45.2029 23.7429 45.2206 23.7363 45.239C23.6929 45.3519 23.6525 45.4658 23.6137 45.5809C23.6065 45.6029 23.5984 45.6248 23.5917 45.6472C23.554 45.7603 23.5196 45.8743 23.4869 45.9893C23.4797 46.014 23.4728 46.0384 23.4659 46.0631C23.4343 46.1773 23.4053 46.2926 23.3777 46.4085C23.3719 46.4344 23.3656 46.46 23.3599 46.4857C23.3337 46.6025 23.3096 46.72 23.2879 46.8384C23.2833 46.8631 23.2789 46.8878 23.2746 46.9125C23.2533 47.033 23.2345 47.1544 23.2178 47.277C23.2148 47.2988 23.2123 47.321 23.2094 47.3427C23.1936 47.469 23.1795 47.596 23.1687 47.724C23.1684 47.73 23.1675 47.736 23.1666 47.7421C23.1663 47.7475 23.1666 47.7535 23.166 47.759C23.1459 48.0068 23.1329 48.2565 23.1329 48.5093C23.1334 48.8099 23.1487 49.1065 23.1767 49.3993Z" fill="#F96A86"/>
<path d="M43.7548 35.628C43.7574 35.6762 43.7623 35.7238 43.7654 35.7719C43.772 35.8752 43.7786 35.9785 43.7886 36.0811C43.7961 36.1537 43.8061 36.2252 43.8154 36.2976C43.8243 36.3711 43.8323 36.4449 43.8431 36.5178C43.8597 36.6304 43.8796 36.7414 43.9003 36.8525C43.9049 36.8757 43.9078 36.8992 43.9127 36.9223C43.9127 36.922 43.9127 36.9214 43.9127 36.9211C44.7316 41.1441 48.4475 44.3333 52.91 44.3333C57.5188 44.3333 61.3317 40.9314 61.9784 36.5024C61.9841 36.4645 61.9877 36.426 61.9928 36.3882C62.0072 36.2828 62.0209 36.1774 62.0316 36.071C62.0394 35.993 62.0437 35.9143 62.0494 35.8355C62.0546 35.7651 62.0615 35.6955 62.0648 35.6245C62.0723 35.4729 62.0763 35.3202 62.0763 35.1669C62.0763 34.926 62.0643 34.6881 62.0459 34.4522C62.0444 34.4317 62.0447 34.4106 62.0432 34.3901C62.0412 34.3684 62.0384 34.3468 62.036 34.3247C62.0285 34.2407 62.0188 34.157 62.0093 34.0738C62.0009 34.0067 61.993 33.9398 61.9837 33.8735C61.9722 33.7937 61.9596 33.7142 61.9461 33.6353C61.9346 33.5663 61.9226 33.4977 61.9096 33.4295C61.8946 33.3531 61.8792 33.2774 61.8629 33.2015C61.8475 33.1314 61.8316 33.0623 61.8144 32.9928C61.7966 32.9193 61.7782 32.8461 61.7587 32.7735C61.7397 32.704 61.7199 32.6349 61.6996 32.566C61.6786 32.4946 61.6568 32.423 61.6339 32.3521C61.6121 32.2835 61.5888 32.2157 61.565 32.148C61.5406 32.0782 61.5162 32.0082 61.49 31.939C61.4647 31.8721 61.4383 31.8061 61.4114 31.74C61.3837 31.671 61.3563 31.6024 61.327 31.5345C61.2989 31.47 61.2692 31.4059 61.2397 31.3418C61.2087 31.2743 61.178 31.2066 61.1452 31.1403C61.1151 31.0783 61.0826 31.0171 61.051 30.956C61.016 30.8888 60.9818 30.8214 60.9453 30.7551C60.9137 30.6973 60.8802 30.6409 60.8471 30.584C60.8077 30.5162 60.7694 30.4482 60.7285 30.3816C60.6963 30.3294 60.6622 30.2786 60.6292 30.2268C60.5843 30.1573 60.5407 30.0873 60.4948 30.0193C60.4672 29.9789 60.4379 29.9398 60.4093 29.8998C60.2108 29.6173 59.9973 29.3463 59.7686 29.0888C59.7499 29.0675 59.7318 29.0454 59.7129 29.0242C59.6491 28.9537 59.5831 28.8859 59.5174 28.8173C59.484 28.7829 59.4523 28.7475 59.4186 28.7137C59.3557 28.6502 59.2909 28.589 59.2259 28.5276C59.1874 28.4909 59.1495 28.4532 59.1106 28.4174C59.0465 28.3589 58.9811 28.3023 58.9157 28.2454C58.8735 28.2087 58.8319 28.1713 58.7888 28.1355C58.724 28.0812 58.6573 28.0286 58.591 27.9758C58.5453 27.94 58.5003 27.9035 58.4537 27.8683C58.3874 27.8177 58.32 27.7692 58.2525 27.7207C58.2037 27.6857 58.1552 27.6503 58.1058 27.6165C58.0387 27.57 57.97 27.5249 57.9014 27.4804C57.8499 27.4467 57.7983 27.4132 57.746 27.3807C57.6774 27.338 57.6077 27.2966 57.5379 27.2555C57.4837 27.2236 57.4291 27.192 57.3743 27.1613C57.3048 27.1225 57.2348 27.0849 57.1638 27.0477C57.1064 27.0175 57.049 26.988 56.9907 26.9589C56.9203 26.9239 56.8497 26.8897 56.7783 26.8564C56.7183 26.8284 56.6578 26.8013 56.5972 26.7746C56.5264 26.7433 56.4551 26.7126 56.3831 26.6833C56.3199 26.6571 56.2562 26.6325 56.1919 26.6081C56.121 26.5804 56.0497 26.5535 55.9777 26.5279C55.9117 26.5044 55.8445 26.4822 55.7774 26.4602C55.7062 26.4367 55.6353 26.4135 55.5632 26.3916C55.4934 26.3705 55.4235 26.3514 55.3528 26.3319C55.2819 26.3123 55.2109 26.2922 55.1398 26.2744C55.066 26.256 54.9922 26.24 54.9178 26.2233C54.848 26.2078 54.7787 26.1914 54.7083 26.1773C54.6299 26.1618 54.5504 26.1486 54.4709 26.1348C54.4037 26.1236 54.3368 26.111 54.2691 26.101C54.1838 26.088 54.0971 26.0786 54.0113 26.0682C53.9484 26.0604 53.8858 26.0516 53.8224 26.0453C53.7242 26.0359 53.6255 26.0295 53.5264 26.0229C53.4739 26.0195 53.4219 26.014 53.3691 26.0115C53.217 26.004 53.0637 26 52.9098 26C52.7553 26 52.6015 26.004 52.4496 26.0115C52.3979 26.0141 52.3469 26.0193 52.2952 26.0226C52.1949 26.0292 52.0945 26.0356 51.9952 26.0453C51.934 26.0516 51.8741 26.0603 51.8132 26.0673C51.7244 26.0779 51.6358 26.088 51.5479 26.101C51.4825 26.1107 51.4181 26.1227 51.3533 26.134C51.2714 26.1482 51.1894 26.1617 51.1079 26.178C51.0407 26.1912 50.9747 26.2069 50.9078 26.2219C50.8301 26.2391 50.7522 26.256 50.6753 26.2753C50.6078 26.2922 50.541 26.3112 50.4741 26.3295C50.3991 26.3503 50.3245 26.3705 50.2502 26.393C50.1831 26.4135 50.1168 26.4355 50.0499 26.4574C49.9779 26.4809 49.9059 26.505 49.8343 26.5303C49.7677 26.5541 49.7011 26.5794 49.6345 26.6047C49.5653 26.6311 49.4967 26.658 49.4282 26.6862C49.3616 26.7136 49.2956 26.7422 49.2292 26.7712C49.1632 26.8002 49.0969 26.8297 49.031 26.8607C48.9653 26.8914 48.9001 26.923 48.8356 26.9552C48.7712 26.9871 48.7075 27.0197 48.6441 27.0531C48.5795 27.0872 48.5152 27.122 48.4511 27.1576C48.3896 27.1917 48.3291 27.2271 48.2685 27.2624C48.205 27.3 48.1417 27.3377 48.0791 27.3766C48.02 27.4134 47.9613 27.4513 47.9034 27.4895C47.8414 27.5299 47.7794 27.5705 47.7182 27.6124C47.6616 27.6515 47.6065 27.6916 47.5511 27.7316C47.49 27.7755 47.4288 27.8195 47.3692 27.865C47.3161 27.9054 47.2638 27.9472 47.2116 27.9888C47.1519 28.0364 47.092 28.0837 47.0333 28.1327C46.983 28.1748 46.934 28.2182 46.8849 28.2616C46.8264 28.3124 46.7677 28.3628 46.7105 28.4152C46.6638 28.4585 46.6184 28.5031 46.5722 28.5471C46.5151 28.602 46.4572 28.6562 46.4017 28.7125C46.3593 28.7547 46.3193 28.7989 46.278 28.842C46.2205 28.9025 46.1623 28.9622 46.1063 29.0239C46.0738 29.0598 46.0431 29.0971 46.0114 29.1339C45.79 29.3865 45.5828 29.651 45.3898 29.927C45.368 29.9583 45.345 29.9887 45.3238 30.0203C45.2724 30.0956 45.2239 30.1727 45.1751 30.2497C45.147 30.2934 45.1179 30.3368 45.0907 30.381C45.0453 30.4557 45.0019 30.5317 44.9584 30.6075C44.9306 30.656 44.9018 30.7039 44.8749 30.753C44.8336 30.8283 44.7945 30.9048 44.755 30.9816C44.7285 31.033 44.7016 31.0837 44.6764 31.1357C44.6384 31.2126 44.6029 31.2908 44.5676 31.3691C44.5432 31.4219 44.5188 31.4745 44.4956 31.5279C44.4615 31.6068 44.429 31.6869 44.3971 31.7673C44.3753 31.8212 44.3534 31.8752 44.333 31.9297C44.302 32.011 44.2733 32.093 44.2448 32.1755C44.2262 32.2303 44.2069 32.2848 44.1891 32.3396C44.1621 32.424 44.1364 32.509 44.1114 32.5942C44.0959 32.6482 44.0801 32.7024 44.0652 32.7569C44.0417 32.8445 44.0191 32.9329 43.998 33.0216C43.9851 33.0744 43.9731 33.1276 43.961 33.1812C43.9409 33.2728 43.9222 33.365 43.9044 33.4577C43.895 33.5086 43.886 33.5596 43.8774 33.6107C43.8608 33.7068 43.8455 33.8037 43.832 33.901C43.8256 33.9486 43.8196 33.9965 43.8139 34.0446C43.8012 34.1465 43.7901 34.249 43.7808 34.3521C43.7796 34.3675 43.7774 34.3831 43.776 34.3985C43.7748 34.4126 43.7751 34.4275 43.7742 34.4419C43.7552 34.6813 43.7429 34.9225 43.7429 35.1668C43.7433 35.3211 43.7473 35.4753 43.7548 35.628Z" fill="#F96A86"/>
</svg>
