<svg width="26" height="28" viewBox="0 0 26 28" fill="none" xmlns="http://www.w3.org/2000/svg">
<path d="M6.59023 27.7966H18.4396C19.3615 27.7966 20.111 27.5303 20.6882 26.9978C21.2654 26.4652 21.5755 25.7497 21.6185 24.851L22.5101 6.70265H24.0608C24.3278 6.70265 24.554 6.60904 24.7392 6.42181C24.9244 6.23459 25.0169 6.012 25.0169 5.75404C25.0169 5.49609 24.9222 5.27559 24.7327 5.09253C24.5432 4.90946 24.3193 4.81792 24.0608 4.81792H0.969151C0.710711 4.81792 0.484575 4.91154 0.290746 5.09876C0.0969153 5.28598 0 5.50441 0 5.75404C0 6.012 0.0969153 6.23459 0.290746 6.42181C0.484575 6.60904 0.710711 6.70265 0.969151 6.70265H2.5198L3.4114 24.8634C3.45448 25.7621 3.76246 26.4757 4.33534 27.004C4.90821 27.5324 5.65984 27.7966 6.59023 27.7966ZM6.77114 25.9119C6.40071 25.9119 6.09058 25.7912 5.84075 25.5499C5.59092 25.3086 5.4574 25.0049 5.44017 24.6388L4.53562 6.70265H20.4298L19.5768 24.6388C19.5596 25.0132 19.4261 25.3191 19.1763 25.5562C18.9265 25.7933 18.612 25.9119 18.233 25.9119H6.77114ZM8.68359 23.7776C8.9248 23.7776 9.11863 23.7089 9.26508 23.5716C9.41153 23.4343 9.48476 23.2574 9.48476 23.0411L9.08417 9.68577C9.08417 9.46942 9.00879 9.29468 8.85804 9.16154C8.70729 9.02841 8.51561 8.96184 8.28302 8.96184C8.0418 8.96184 7.84582 9.03049 7.69506 9.16778C7.5443 9.30508 7.47323 9.4819 7.48185 9.69825L7.86951 23.0411C7.87812 23.2658 7.95565 23.4447 8.10211 23.5779C8.24855 23.711 8.44238 23.7776 8.68359 23.7776ZM12.5085 23.7776C12.7583 23.7776 12.9608 23.7089 13.1158 23.5716C13.2709 23.4343 13.3484 23.2574 13.3484 23.0411V9.69825C13.3484 9.4819 13.2709 9.30508 13.1158 9.16778C12.9608 9.03049 12.7583 8.96184 12.5085 8.96184C12.2673 8.96184 12.0692 9.03049 11.9141 9.16778C11.759 9.30508 11.6815 9.4819 11.6815 9.69825V23.0411C11.6815 23.2574 11.759 23.4343 11.9141 23.5716C12.0692 23.7089 12.2673 23.7776 12.5085 23.7776ZM16.3463 23.7776C16.5789 23.7776 16.7685 23.711 16.9149 23.5779C17.0613 23.4447 17.1389 23.2658 17.1475 23.0411L17.5352 9.69825C17.5438 9.4819 17.4748 9.30508 17.3284 9.16778C17.182 9.03049 16.9838 8.96184 16.734 8.96184C16.5014 8.96184 16.3119 9.02841 16.1654 9.16154C16.019 9.29468 15.9415 9.47359 15.9328 9.69825L15.5451 23.0411C15.5366 23.2574 15.6055 23.4343 15.7519 23.5716C15.8984 23.7089 16.0965 23.7776 16.3463 23.7776ZM6.83575 5.70412H8.89034V3.03305C8.89034 2.68356 9.00879 2.40064 9.24569 2.18429C9.4826 1.96794 9.79488 1.85977 10.1825 1.85977H14.8086C15.1963 1.85977 15.5086 1.96794 15.7455 2.18429C15.9824 2.40064 16.1009 2.68356 16.1009 3.03305V5.70412H18.1554V2.90823C18.1554 2.00955 17.869 1.30017 17.2961 0.780105C16.7233 0.260035 15.9415 0 14.9507 0H10.0404C9.04971 0 8.26793 0.260035 7.69506 0.780105C7.12219 1.30017 6.83575 2.00955 6.83575 2.90823V5.70412Z" fill="#DE0101"/>
</svg>
