<svg width="70" height="70" viewBox="0 0 70 70" fill="none" xmlns="http://www.w3.org/2000/svg">
<path d="M69.1711 34.5856C69.1711 41.8893 66.8589 49.0056 62.5659 54.9144C58.2728 60.8233 52.2194 65.2214 45.2731 67.4784C38.3268 69.7354 30.8443 69.7354 23.898 67.4784C16.9518 65.2214 10.8983 60.8233 6.60525 54.9144L17.7974 46.7829C20.3732 50.3282 24.0053 52.9671 28.173 54.3213C32.3408 55.6754 36.8303 55.6754 40.9981 54.3213C45.1658 52.9671 48.7979 50.3282 51.3737 46.7829C53.9496 43.2376 55.3369 38.9678 55.3369 34.5856H69.1711Z" fill="#CA415C"/>
<path d="M19.6234 65.7672C14.3712 63.247 9.84078 59.441 6.45238 54.7024L17.7057 46.6556C19.7387 49.4988 22.457 51.7824 25.6082 53.2945L19.6234 65.7672Z" fill="#DE4765"/>
<path d="M23.7635 1.73674C28.9651 0.023093 34.4993 -0.430813 39.9105 0.412387C45.3218 1.25559 50.4555 3.37178 54.889 6.58681C59.3226 9.80183 62.9293 14.0238 65.4123 18.9051C67.8952 23.7865 69.1835 29.1877 69.171 34.6643L55.3368 34.6328C55.3443 31.3469 54.5714 28.1061 53.0816 25.1773C51.5918 22.2485 49.4278 19.7153 46.7676 17.7863C44.1075 15.8573 41.0273 14.5876 37.7805 14.0817C34.5338 13.5757 31.2133 13.8481 28.0923 14.8763L23.7635 1.73674Z" fill="#9E3248"/>
<path d="M6.69147 55.0326C3.46471 50.6306 1.32559 45.5274 0.448987 40.1403C-0.427613 34.7532 -0.0167964 29.2351 1.64785 24.0372C3.31249 18.8393 6.1837 14.1091 10.0267 10.2335C13.8697 6.35783 18.5754 3.44674 23.7591 1.73821L28.0897 14.8771C24.9795 15.9023 22.1561 17.6489 19.8503 19.9743C17.5444 22.2997 15.8217 25.1378 14.8229 28.2565C13.8241 31.3753 13.5777 34.6862 14.1036 37.9184C14.6296 41.1507 15.9131 44.2126 17.8491 46.8538L6.69147 55.0326Z" fill="#FCEDF0"/>
</svg>
