<svg width="49" height="49" viewBox="0 0 49 49" fill="none" xmlns="http://www.w3.org/2000/svg">
<path d="M0 24.25C0 10.8571 10.8571 0 24.25 0V0C37.6429 0 48.5 10.8571 48.5 24.25V24.25C48.5 37.6429 37.6429 48.5 24.25 48.5V48.5C10.8571 48.5 0 37.6429 0 24.25V24.25Z" fill="#F96A86"/>
<path d="M34.9356 30.839L26.1504 15.4651C25.9589 15.1271 25.6811 14.8459 25.3454 14.6503C25.0098 14.4547 24.6282 14.3517 24.2397 14.3517C23.8512 14.3517 23.4696 14.4547 23.1339 14.6503C22.7983 14.8459 22.5205 15.1271 22.3289 15.4651L13.5438 30.839C13.3502 31.1743 13.2487 31.5549 13.2495 31.9421C13.2504 32.3293 13.3536 32.7094 13.5487 33.0439C13.7438 33.3783 14.0239 33.6553 14.3605 33.8466C14.6971 34.038 15.0784 34.1369 15.4656 34.1334H33.0358C33.4211 34.133 33.7996 34.0313 34.1331 33.8383C34.4667 33.6454 34.7436 33.3681 34.9361 33.0343C35.1286 32.7005 35.2299 32.3219 35.2298 31.9366C35.2297 31.5512 35.1282 31.1727 34.9356 30.839Z" stroke="white" stroke-width="1.24759" stroke-linecap="round" stroke-linejoin="round"/>
<path d="M24.25 20.9557V25.3483" stroke="white" stroke-width="1.24759" stroke-linecap="round" stroke-linejoin="round"/>
<path d="M24.25 29.7408H24.2611" stroke="white" stroke-width="1.24759" stroke-linecap="round" stroke-linejoin="round"/>
</svg>
