<svg width="30" height="30" viewBox="0 0 30 30" fill="none" xmlns="http://www.w3.org/2000/svg">
<path d="M24.4438 12.2223C24.7679 12.2223 25.0788 12.0935 25.308 11.8643C25.5372 11.6351 25.666 11.3242 25.666 11.0001V7.33341C25.666 7.00926 25.5372 6.69838 25.308 6.46917C25.0788 6.23996 24.7679 6.11119 24.4438 6.11119H21.3882C21.1985 6.11119 21.0114 6.06702 20.8416 5.98216C20.6719 5.8973 20.5243 5.7741 20.4105 5.6223L19.3105 4.15564C19.1966 4.00384 19.049 3.88064 18.8793 3.79578C18.7096 3.71093 18.5224 3.66675 18.3327 3.66675H15.8882C15.5641 3.66675 15.2532 3.79552 15.024 4.02473C14.7948 4.25394 14.666 4.56482 14.666 4.88897V11.0001C14.666 11.3242 14.7948 11.6351 15.024 11.8643C15.2532 12.0935 15.5641 12.2223 15.8882 12.2223H24.4438Z" stroke="#F96A86" stroke-width="2.44444" stroke-linecap="round" stroke-linejoin="round"/>
<path d="M24.4438 25.6666C24.7679 25.6666 25.0788 25.5379 25.308 25.3087C25.5372 25.0795 25.666 24.7686 25.666 24.4444V20.7778C25.666 20.4536 25.5372 20.1427 25.308 19.9135C25.0788 19.6843 24.7679 19.5555 24.4438 19.5555H20.8993C20.6757 19.5526 20.4572 19.4884 20.2675 19.3699C20.0779 19.2513 19.9244 19.083 19.8238 18.8833L19.3105 17.8444C19.215 17.6258 19.0577 17.4399 18.8579 17.3096C18.6581 17.1793 18.4246 17.1103 18.186 17.1111H15.8882C15.5641 17.1111 15.2532 17.2399 15.024 17.4691C14.7948 17.6983 14.666 18.0092 14.666 18.3333V24.4444C14.666 24.7686 14.7948 25.0795 15.024 25.3087C15.2532 25.5379 15.5641 25.6666 15.8882 25.6666H24.4438Z" stroke="#F96A86" stroke-width="2.44444" stroke-linecap="round" stroke-linejoin="round"/>
<path d="M3.66602 6.11108C3.66602 6.75939 3.92355 7.38115 4.38198 7.83957C4.8404 8.29799 5.46215 8.55553 6.11046 8.55553H9.77713" stroke="#F96A86" stroke-width="2.44444" stroke-linecap="round" stroke-linejoin="round"/>
<path d="M3.66602 3.66675V19.5556C3.66602 20.2039 3.92355 20.8257 4.38198 21.2841C4.8404 21.7425 5.46215 22.0001 6.11046 22.0001H9.77713" stroke="#F96A86" stroke-width="2.44444" stroke-linecap="round" stroke-linejoin="round"/>
</svg>
