<svg width="48" height="48" viewBox="0 0 48 48" fill="none" xmlns="http://www.w3.org/2000/svg">
<g clip-path="url(#clip0_1596_12071)">
<path d="M48 24C48 10.7452 37.2548 0 24 0C10.7452 0 0 10.7452 0 24C0 37.2548 10.7452 48 24 48C37.2548 48 48 37.2548 48 24Z" fill="white" fill-opacity="0.12"/>
<path d="M30.5997 12H26.9997C25.4083 12 23.8823 12.6322 22.7571 13.7574C21.6318 14.8826 20.9997 16.4087 20.9997 18V21.6H17.3997V26.4H20.9997V36H25.7997V26.4H29.3997L30.5997 21.6H25.7997V18C25.7997 17.6818 25.9261 17.3765 26.1511 17.1515C26.3763 16.9265 26.6814 16.8 26.9997 16.8H30.5997V12Z" fill="white"/>
</g>
<defs>
<clipPath id="clip0_1596_12071">
<rect width="48" height="48" fill="white"/>
</clipPath>
</defs>
</svg>
