<svg width="50" height="50" viewBox="0 0 50 50" fill="none" xmlns="http://www.w3.org/2000/svg">
<path d="M32.8921 43.1699V39.0584C32.8921 36.8775 32.0258 34.786 30.4837 33.2439C28.9416 31.7018 26.85 30.8354 24.6692 30.8354H12.3348C10.1539 30.8354 8.06236 31.7018 6.52026 33.2439C4.97816 34.786 4.11182 36.8775 4.11182 39.0584V43.1699" stroke="#F96A86" stroke-width="4.11146" stroke-linecap="round" stroke-linejoin="round"/>
<path d="M18.5017 22.6129C23.0431 22.6129 26.7247 18.9313 26.7247 14.3899C26.7247 9.84853 23.0431 6.16699 18.5017 6.16699C13.9603 6.16699 10.2788 9.84853 10.2788 14.3899C10.2788 18.9313 13.9603 22.6129 18.5017 22.6129Z" stroke="#F96A86" stroke-width="4.11146" stroke-linecap="round" stroke-linejoin="round"/>
<path d="M45.2263 43.1702V39.0587C45.2249 37.2368 44.6185 35.4669 43.5023 34.0269C42.386 32.587 40.8232 31.5585 39.0591 31.103" stroke="#F96A86" stroke-width="4.11146" stroke-linecap="round" stroke-linejoin="round"/>
<path d="M32.8918 6.43408C34.6606 6.88696 36.2284 7.91565 37.3479 9.35797C38.4675 10.8003 39.0752 12.5742 39.0752 14.4001C39.0752 16.2259 38.4675 17.9998 37.3479 19.4421C36.2284 20.8845 34.6606 21.9131 32.8918 22.366" stroke="#F96A86" stroke-width="4.11146" stroke-linecap="round" stroke-linejoin="round"/>
</svg>
