<svg width="29" height="34" viewBox="0 0 29 34" fill="none" xmlns="http://www.w3.org/2000/svg">
<path d="M9.9062 19.4173L11.1762 16.962C11.3143 16.6878 11.5243 16.4563 11.7838 16.2922C12.0433 16.1282 12.3425 16.0377 12.6494 16.0306H21.7595M21.7595 16.0306C22.0182 16.0302 22.2736 16.089 22.506 16.2026C22.7384 16.3162 22.9417 16.4815 23.1003 16.6858C23.2589 16.8902 23.3685 17.1282 23.4209 17.3815C23.4732 17.6349 23.4667 17.8968 23.4021 18.1473L22.0982 23.2273C22.0039 23.5927 21.7902 23.9161 21.4911 24.1462C21.192 24.3763 20.8246 24.4998 20.4472 24.4973H8.21286C7.76376 24.4973 7.33306 24.3189 7.0155 24.0013C6.69794 23.6838 6.51953 23.2531 6.51953 22.804V11.7973C6.51953 11.3482 6.69794 10.9175 7.0155 10.5999C7.33306 10.2824 7.76376 10.104 8.21286 10.104H11.5149C11.7981 10.1012 12.0774 10.1695 12.3274 10.3026C12.5774 10.4357 12.79 10.6294 12.9457 10.866L13.6315 11.882C13.7857 12.1161 13.9956 12.3083 14.2424 12.4413C14.4892 12.5743 14.7651 12.6439 15.0455 12.644H20.0662C20.5153 12.644 20.946 12.8224 21.2636 13.1399C21.5811 13.4575 21.7595 13.8882 21.7595 14.3373V16.0306Z" stroke="#2D2A2B" stroke-width="1.69333" stroke-linecap="round" stroke-linejoin="round"/>
</svg>
