<svg width="33" height="29" viewBox="0 0 33 29" fill="none" xmlns="http://www.w3.org/2000/svg">
<path d="M7.20061 18.0518L9.52584 13.5564C9.77863 13.0544 10.1631 12.6305 10.6382 12.3301C11.1134 12.0298 11.6612 11.8642 12.2231 11.8512H28.9028M28.9028 11.8512C29.3764 11.8504 29.8439 11.9581 30.2694 12.166C30.695 12.374 31.0672 12.6767 31.3575 13.0508C31.6479 13.425 31.8487 13.8607 31.9445 14.3246C32.0402 14.7884 32.0285 15.268 31.9101 15.7266L29.5228 25.0275C29.3501 25.6965 28.9589 26.2886 28.4112 26.7099C27.8636 27.1312 27.1909 27.3574 26.5 27.3528H4.10031C3.27805 27.3528 2.48948 27.0261 1.90806 26.4447C1.32664 25.8633 1 25.0747 1 24.2524V4.10046C1 3.2782 1.32664 2.48963 1.90806 1.90821C2.48948 1.32679 3.27805 1.00015 4.10031 1.00015H10.1459C10.6644 0.995066 11.1759 1.12011 11.6336 1.36385C12.0913 1.60758 12.4805 1.96221 12.7657 2.39529L14.0213 4.25547C14.3036 4.68413 14.6879 5.03601 15.1397 5.27951C15.5916 5.52301 16.0968 5.65052 16.61 5.65061H25.8025C26.6247 5.65061 27.4133 5.97725 27.9947 6.55867C28.5761 7.14009 28.9028 7.92866 28.9028 8.75091V11.8512Z" stroke="#F96A86" stroke-width="2" stroke-linecap="round" stroke-linejoin="round"/>
</svg>
