<svg width="94" height="94" viewBox="0 0 94 94" fill="none" xmlns="http://www.w3.org/2000/svg">
<path d="M0 46.9008C0 20.9982 20.9982 0 46.9008 0C72.8033 0 93.8015 20.9982 93.8015 46.9008C93.8015 72.8033 72.8033 93.8015 46.9008 93.8015C20.9982 93.8015 0 72.8033 0 46.9008Z" fill="#F96A86"/>
<path d="M60.5798 50.8092C63.4915 47.956 66.4424 44.5362 66.4424 40.0611C66.4424 37.2105 65.31 34.4767 63.2943 32.461C61.2787 30.4454 58.5448 29.313 55.6943 29.313C52.2549 29.313 49.8317 30.2901 46.9004 33.2214C43.9691 30.2901 41.5459 29.313 38.1065 29.313C35.2559 29.313 32.5221 30.4454 30.5064 32.461C28.4908 34.4767 27.3584 37.2105 27.3584 40.0611C27.3584 44.5557 30.2897 47.9756 33.221 50.8092L46.9004 64.4886L60.5798 50.8092Z" fill="white" stroke="white" stroke-width="3.9084" stroke-linecap="round" stroke-linejoin="round"/>
</svg>
