<svg width="242" height="247" viewBox="0 0 242 247" fill="none" xmlns="http://www.w3.org/2000/svg">
<path d="M160.808 174.662L150.479 173.087C113.851 167.576 89.6467 163.907 77.684 146.687C67.879 132.573 70.4803 114.131 83.5239 104.669C90.8927 99.3239 100.535 97.8935 109.181 100.346C109.768 91.1967 114.27 82.3667 121.638 77.0215C134.682 67.5599 152.578 71.1338 162.383 85.2479C174.346 102.468 169.752 127.027 162.761 164.178L160.808 174.662Z" fill="#F96A86"/>
<g filter="url(#filter0_f_1235_11098)">
<path d="M160.808 174.662L150.479 173.087C113.851 167.576 89.6467 163.907 77.684 146.687C67.879 132.573 70.4803 114.131 83.5239 104.669C90.8927 99.3239 100.535 97.8935 109.181 100.346C109.768 91.1967 114.27 82.3667 121.638 77.0215C134.682 67.5599 152.578 71.1338 162.383 85.2479C174.346 102.468 169.752 127.027 162.761 164.178L160.808 174.662Z" fill="#F96A86"/>
</g>
<defs>
<filter id="filter0_f_1235_11098" x="-3.05176e-05" y="-3.05176e-05" width="241.51" height="246.407" filterUnits="userSpaceOnUse" color-interpolation-filters="sRGB">
<feFlood flood-opacity="0" result="BackgroundImageFix"/>
<feBlend mode="normal" in="SourceGraphic" in2="BackgroundImageFix" result="shape"/>
<feGaussianBlur stdDeviation="35.8725" result="effect1_foregroundBlur_1235_11098"/>
</filter>
</defs>
</svg>
