<svg width="47" height="47" viewBox="0 0 47 47" fill="none" xmlns="http://www.w3.org/2000/svg">
<g clip-path="url(#paint0_angular_1700_17006_clip_path)" data-figma-skip-parse="true"><g transform="matrix(-0.00201479 -0.0378465 0.0343633 -0.00182903 29.3027 29.4769)"><foreignObject x="-868.19" y="-868.19" width="1736.38" height="1736.38"><div xmlns="http://www.w3.org/1999/xhtml" style="background:conic-gradient(from 90deg,rgba(249, 106, 134, 1) 0deg,rgba(249, 106, 220, 1) 74.2739deg,rgba(148, 0, 255, 1) 149.364deg,rgba(255, 0, 225, 1) 230.533deg,rgba(255, 0, 110, 1) 278.654deg,rgba(249, 106, 134, 1) 360deg);height:100%;width:100%;opacity:1"></div></foreignObject></g></g><path d="M7.8166 9.771V11.7252H39.0838V9.771V7.8168H7.8166V9.771ZM39.0838 9.771V11.7252C40.1631 11.7252 41.038 12.6001 41.038 13.6794H42.9922H44.9464C44.9464 10.4416 42.3216 7.8168 39.0838 7.8168V9.771ZM42.9922 13.6794H41.038V33.2214H42.9922H44.9464V13.6794H42.9922ZM42.9922 33.2214H41.038C41.038 34.3007 40.1631 35.1756 39.0838 35.1756V37.1298V39.084C42.3216 39.084 44.9464 36.4592 44.9464 33.2214H42.9922ZM39.0838 37.1298V35.1756H7.8166V37.1298V39.084H39.0838V37.1298ZM7.8166 37.1298V35.1756C6.73733 35.1756 5.8624 34.3007 5.8624 33.2214H3.9082H1.954C1.954 36.4592 4.57878 39.084 7.8166 39.084V37.1298ZM3.9082 33.2214H5.8624V13.6794H3.9082H1.954V33.2214H3.9082ZM3.9082 13.6794H5.8624C5.8624 12.6001 6.73733 11.7252 7.8166 11.7252V9.771V7.8168C4.57878 7.8168 1.954 10.4416 1.954 13.6794H3.9082Z" data-figma-gradient-fill="{&#34;type&#34;:&#34;GRADIENT_ANGULAR&#34;,&#34;stops&#34;:[{&#34;color&#34;:{&#34;r&#34;:0.97647058963775635,&#34;g&#34;:0.41568627953529358,&#34;b&#34;:0.52549022436141968,&#34;a&#34;:1.0},&#34;position&#34;:0.0},{&#34;color&#34;:{&#34;r&#34;:0.97647058963775635,&#34;g&#34;:0.41568627953529358,&#34;b&#34;:0.86431372165679932,&#34;a&#34;:1.0},&#34;position&#34;:0.20631638169288635},{&#34;color&#34;:{&#34;r&#34;:0.58333331346511841,&#34;g&#34;:0.0,&#34;b&#34;:1.0,&#34;a&#34;:1.0},&#34;position&#34;:0.41490009427070618},{&#34;color&#34;:{&#34;r&#34;:1.0,&#34;g&#34;:0.0019231942715123296,&#34;b&#34;:0.88355767726898193,&#34;a&#34;:1.0},&#34;position&#34;:0.64037054777145386},{&#34;color&#34;:{&#34;r&#34;:1.0,&#34;g&#34;:0.0,&#34;b&#34;:0.43333333730697632,&#34;a&#34;:1.0},&#34;position&#34;:0.77403843402862549},{&#34;color&#34;:{&#34;r&#34;:0.97647058963775635,&#34;g&#34;:0.41568627953529358,&#34;b&#34;:0.52549022436141968,&#34;a&#34;:1.0},&#34;position&#34;:1.0}],&#34;stopsVar&#34;:[{&#34;color&#34;:{&#34;r&#34;:0.97647058963775635,&#34;g&#34;:0.41568627953529358,&#34;b&#34;:0.52549022436141968,&#34;a&#34;:1.0},&#34;position&#34;:0.0},{&#34;color&#34;:{&#34;r&#34;:0.97647058963775635,&#34;g&#34;:0.41568627953529358,&#34;b&#34;:0.86431372165679932,&#34;a&#34;:1.0},&#34;position&#34;:0.20631638169288635},{&#34;color&#34;:{&#34;r&#34;:0.58333331346511841,&#34;g&#34;:0.0,&#34;b&#34;:1.0,&#34;a&#34;:1.0},&#34;position&#34;:0.41490009427070618},{&#34;color&#34;:{&#34;r&#34;:1.0,&#34;g&#34;:0.0019231942715123296,&#34;b&#34;:0.88355767726898193,&#34;a&#34;:1.0},&#34;position&#34;:0.64037054777145386},{&#34;color&#34;:{&#34;r&#34;:1.0,&#34;g&#34;:0.0,&#34;b&#34;:0.43333333730697632,&#34;a&#34;:1.0},&#34;position&#34;:0.77403843402862549},{&#34;color&#34;:{&#34;r&#34;:0.97647058963775635,&#34;g&#34;:0.41568627953529358,&#34;b&#34;:0.52549022436141968,&#34;a&#34;:1.0},&#34;position&#34;:1.0}],&#34;transform&#34;:{&#34;m00&#34;:-4.0295844078063965,&#34;m01&#34;:68.726631164550781,&#34;m02&#34;:-3.0457832813262939,&#34;m10&#34;:-75.692916870117188,&#34;m11&#34;:-3.6580686569213867,&#34;m12&#34;:69.152366638183594},&#34;opacity&#34;:1.0,&#34;blendMode&#34;:&#34;NORMAL&#34;,&#34;visible&#34;:true}"/>
<g clip-path="url(#paint1_angular_1700_17006_clip_path)" data-figma-skip-parse="true"><g transform="matrix(-0.00201479 -0.00138334 0.0343633 -6.68537e-05 29.3027 20.2623)"><foreignObject x="-inf" y="-inf" width="inf" height="inf"><div xmlns="http://www.w3.org/1999/xhtml" style="background:conic-gradient(from 90deg,rgba(249, 106, 134, 1) 0deg,rgba(249, 106, 220, 1) 74.2739deg,rgba(148, 0, 255, 1) 149.364deg,rgba(255, 0, 225, 1) 230.533deg,rgba(255, 0, 110, 1) 278.654deg,rgba(249, 106, 134, 1) 360deg);height:100%;width:100%;opacity:1"></div></foreignObject></g></g><path d="M3.9082 17.5878C2.82893 17.5878 1.954 18.4627 1.954 19.542C1.954 20.6213 2.82893 21.4962 3.9082 21.4962V19.542V17.5878ZM42.9922 21.4962C44.0714 21.4962 44.9464 20.6213 44.9464 19.542C44.9464 18.4627 44.0714 17.5878 42.9922 17.5878V19.542V21.4962ZM3.9082 19.542V21.4962H42.9922V19.542V17.5878H3.9082V19.542Z" data-figma-gradient-fill="{&#34;type&#34;:&#34;GRADIENT_ANGULAR&#34;,&#34;stops&#34;:[{&#34;color&#34;:{&#34;r&#34;:0.97647058963775635,&#34;g&#34;:0.41568627953529358,&#34;b&#34;:0.52549022436141968,&#34;a&#34;:1.0},&#34;position&#34;:0.0},{&#34;color&#34;:{&#34;r&#34;:0.97647058963775635,&#34;g&#34;:0.41568627953529358,&#34;b&#34;:0.86431372165679932,&#34;a&#34;:1.0},&#34;position&#34;:0.20631638169288635},{&#34;color&#34;:{&#34;r&#34;:0.58333331346511841,&#34;g&#34;:0.0,&#34;b&#34;:1.0,&#34;a&#34;:1.0},&#34;position&#34;:0.41490009427070618},{&#34;color&#34;:{&#34;r&#34;:1.0,&#34;g&#34;:0.0019231942715123296,&#34;b&#34;:0.88355767726898193,&#34;a&#34;:1.0},&#34;position&#34;:0.64037054777145386},{&#34;color&#34;:{&#34;r&#34;:1.0,&#34;g&#34;:0.0,&#34;b&#34;:0.43333333730697632,&#34;a&#34;:1.0},&#34;position&#34;:0.77403843402862549},{&#34;color&#34;:{&#34;r&#34;:0.97647058963775635,&#34;g&#34;:0.41568627953529358,&#34;b&#34;:0.52549022436141968,&#34;a&#34;:1.0},&#34;position&#34;:1.0}],&#34;stopsVar&#34;:[{&#34;color&#34;:{&#34;r&#34;:0.97647058963775635,&#34;g&#34;:0.41568627953529358,&#34;b&#34;:0.52549022436141968,&#34;a&#34;:1.0},&#34;position&#34;:0.0},{&#34;color&#34;:{&#34;r&#34;:0.97647058963775635,&#34;g&#34;:0.41568627953529358,&#34;b&#34;:0.86431372165679932,&#34;a&#34;:1.0},&#34;position&#34;:0.20631638169288635},{&#34;color&#34;:{&#34;r&#34;:0.58333331346511841,&#34;g&#34;:0.0,&#34;b&#34;:1.0,&#34;a&#34;:1.0},&#34;position&#34;:0.41490009427070618},{&#34;color&#34;:{&#34;r&#34;:1.0,&#34;g&#34;:0.0019231942715123296,&#34;b&#34;:0.88355767726898193,&#34;a&#34;:1.0},&#34;position&#34;:0.64037054777145386},{&#34;color&#34;:{&#34;r&#34;:1.0,&#34;g&#34;:0.0,&#34;b&#34;:0.43333333730697632,&#34;a&#34;:1.0},&#34;position&#34;:0.77403843402862549},{&#34;color&#34;:{&#34;r&#34;:0.97647058963775635,&#34;g&#34;:0.41568627953529358,&#34;b&#34;:0.52549022436141968,&#34;a&#34;:1.0},&#34;position&#34;:1.0}],&#34;transform&#34;:{&#34;m00&#34;:-4.0295844078063965,&#34;m01&#34;:68.726631164550781,&#34;m02&#34;:-3.0457832813262939,&#34;m10&#34;:-2.7666773796081543,&#34;m11&#34;:-0.13370729982852936,&#34;m12&#34;:21.712461471557617},&#34;opacity&#34;:1.0,&#34;blendMode&#34;:&#34;NORMAL&#34;,&#34;visible&#34;:true}"/>
<defs>
<clipPath id="paint0_angular_1700_17006_clip_path"><path d="M7.8166 9.771V11.7252H39.0838V9.771V7.8168H7.8166V9.771ZM39.0838 9.771V11.7252C40.1631 11.7252 41.038 12.6001 41.038 13.6794H42.9922H44.9464C44.9464 10.4416 42.3216 7.8168 39.0838 7.8168V9.771ZM42.9922 13.6794H41.038V33.2214H42.9922H44.9464V13.6794H42.9922ZM42.9922 33.2214H41.038C41.038 34.3007 40.1631 35.1756 39.0838 35.1756V37.1298V39.084C42.3216 39.084 44.9464 36.4592 44.9464 33.2214H42.9922ZM39.0838 37.1298V35.1756H7.8166V37.1298V39.084H39.0838V37.1298ZM7.8166 37.1298V35.1756C6.73733 35.1756 5.8624 34.3007 5.8624 33.2214H3.9082H1.954C1.954 36.4592 4.57878 39.084 7.8166 39.084V37.1298ZM3.9082 33.2214H5.8624V13.6794H3.9082H1.954V33.2214H3.9082ZM3.9082 13.6794H5.8624C5.8624 12.6001 6.73733 11.7252 7.8166 11.7252V9.771V7.8168C4.57878 7.8168 1.954 10.4416 1.954 13.6794H3.9082Z"/></clipPath><clipPath id="paint1_angular_1700_17006_clip_path"><path d="M3.9082 17.5878C2.82893 17.5878 1.954 18.4627 1.954 19.542C1.954 20.6213 2.82893 21.4962 3.9082 21.4962V19.542V17.5878ZM42.9922 21.4962C44.0714 21.4962 44.9464 20.6213 44.9464 19.542C44.9464 18.4627 44.0714 17.5878 42.9922 17.5878V19.542V21.4962ZM3.9082 19.542V21.4962H42.9922V19.542V17.5878H3.9082V19.542Z"/></clipPath></defs>
</svg>
