<svg width="52" height="35" viewBox="0 0 52 35" fill="none" xmlns="http://www.w3.org/2000/svg">
<g clip-path="url(#clip0_1611_12464)">
<g clip-path="url(#clip1_1611_12464)">
<path d="M0 0H51.0465V34.031H0V0Z" fill="white"/>
<path d="M0 0H51.0465V11.3437H0V0Z" fill="#FF6820"/>
<path d="M0 22.6885H51.0465V34.0322H0V22.6885Z" fill="#046A38"/>
<path d="M25.5233 22.2616C28.4208 22.2616 30.7698 19.9127 30.7698 17.0152C30.7698 14.1177 28.4208 11.7687 25.5233 11.7687C22.6258 11.7687 20.2769 14.1177 20.2769 17.0152C20.2769 19.9127 22.6258 22.2616 25.5233 22.2616Z" fill="#07038D"/>
<path d="M25.5238 21.5514C28.0298 21.5514 30.0613 19.5199 30.0613 17.014C30.0613 14.508 28.0298 12.4765 25.5238 12.4765C23.0178 12.4765 20.9863 14.508 20.9863 17.014C20.9863 19.5199 23.0178 21.5514 25.5238 21.5514Z" fill="white"/>
<path d="M25.5237 17.9241C26.0249 17.9241 26.4312 17.5178 26.4312 17.0166C26.4312 16.5154 26.0249 16.1091 25.5237 16.1091C25.0225 16.1091 24.6162 16.5154 24.6162 17.0166C24.6162 17.5178 25.0225 17.9241 25.5237 17.9241Z" fill="#07038D"/>
<path d="M25.5232 12.4767L25.6933 15.2071L25.5232 16.5593L25.353 15.2071L25.5232 12.4767Z" fill="#07038D"/>
<path d="M26.0903 12.7137C26.199 12.728 26.2987 12.6515 26.313 12.5428C26.3273 12.4341 26.2508 12.3344 26.1421 12.3201C26.0334 12.3058 25.9337 12.3823 25.9194 12.491C25.9051 12.5997 25.9816 12.6994 26.0903 12.7137Z" fill="#07038D"/>
<path d="M25.5242 21.5544L25.354 18.824L25.5242 17.4718L25.6943 18.824L25.5242 21.5544Z" fill="#07038D"/>
<path d="M24.958 21.3174C24.8493 21.3031 24.7496 21.3796 24.7353 21.4883C24.721 21.597 24.7975 21.6967 24.9062 21.711C25.0149 21.7253 25.1146 21.6488 25.1289 21.5401C25.1432 21.4314 25.0667 21.3317 24.958 21.3174Z" fill="#07038D"/>
<path d="M26.698 12.6329L26.1557 15.3143L25.6414 16.5764L25.827 15.2263L26.698 12.6329Z" fill="#07038D"/>
<path d="M27.1833 13.0067C27.2846 13.0487 27.4007 13.0006 27.4427 12.8993C27.4846 12.798 27.4365 12.6819 27.3353 12.6399C27.234 12.598 27.1178 12.6461 27.0759 12.7474C27.0339 12.8487 27.082 12.9648 27.1833 13.0067Z" fill="#07038D"/>
<path d="M24.3498 21.3982L24.8921 18.7167L25.4065 17.4547L25.2208 18.8048L24.3498 21.3982Z" fill="#07038D"/>
<path d="M23.8636 21.0243C23.7623 20.9824 23.6461 21.0305 23.6042 21.1318C23.5622 21.2331 23.6103 21.3492 23.7116 21.3911C23.8129 21.4331 23.929 21.385 23.971 21.2837C24.0129 21.1824 23.9648 21.0663 23.8636 21.0243Z" fill="#07038D"/>
<path d="M27.7914 13.0866L26.5735 15.5363L25.7501 16.6222L26.2788 15.3661L27.7914 13.0866Z" fill="#07038D"/>
<path d="M28.1634 13.5739C28.2503 13.6406 28.375 13.6242 28.4417 13.5372C28.5084 13.4503 28.492 13.3257 28.4051 13.2589C28.3181 13.1922 28.1935 13.2086 28.1267 13.2956C28.06 13.3825 28.0764 13.5072 28.1634 13.5739Z" fill="#07038D"/>
<path d="M23.2545 20.941L24.4723 18.4914L25.2958 17.4054L24.7671 18.6615L23.2545 20.941Z" fill="#07038D"/>
<path d="M22.8816 20.4542C22.7946 20.3875 22.67 20.4039 22.6032 20.4909C22.5365 20.5779 22.5529 20.7025 22.6399 20.7692C22.7269 20.836 22.8515 20.8196 22.9182 20.7326C22.985 20.6456 22.9685 20.521 22.8816 20.4542Z" fill="#07038D"/>
<path d="M28.7321 13.8082L26.9218 15.8592L25.8453 16.695L26.6811 15.6186L28.7321 13.8082Z" fill="#07038D"/>
<path d="M28.965 14.3766C29.0318 14.4636 29.1564 14.48 29.2434 14.4132C29.3304 14.3465 29.3468 14.2219 29.28 14.1349C29.2133 14.0479 29.0887 14.0315 29.0017 14.0983C28.9147 14.165 28.8983 14.2896 28.965 14.3766Z" fill="#07038D"/>
<path d="M22.3138 20.222L24.1241 18.171L25.2006 17.3351L24.3648 18.4116L22.3138 20.222Z" fill="#07038D"/>
<path d="M22.0794 19.656C22.0126 19.569 21.888 19.5526 21.8011 19.6193C21.7141 19.6861 21.6977 19.8107 21.7644 19.8977C21.8311 19.9847 21.9558 20.0011 22.0427 19.9343C22.1297 19.8676 22.1461 19.743 22.0794 19.656Z" fill="#07038D"/>
<path d="M29.4542 14.7479L27.1747 16.2605L25.9186 16.7892L27.0045 15.9657L29.4542 14.7479Z" fill="#07038D"/>
<path d="M29.5334 15.3541C29.5753 15.4554 29.6915 15.5035 29.7928 15.4615C29.894 15.4196 29.9421 15.3034 29.9002 15.2021C29.8582 15.1009 29.7421 15.0527 29.6408 15.0947C29.5395 15.1367 29.4914 15.2528 29.5334 15.3541Z" fill="#07038D"/>
<path d="M21.5961 19.2852L23.8756 17.7726L25.1317 17.2439L24.0458 18.0673L21.5961 19.2852Z" fill="#07038D"/>
<path d="M21.5169 18.679C21.475 18.5777 21.3588 18.5296 21.2575 18.5716C21.1563 18.6135 21.1082 18.7296 21.1501 18.8309C21.1921 18.9322 21.3082 18.9803 21.4095 18.9384C21.5108 18.8964 21.5589 18.7803 21.5169 18.679Z" fill="#07038D"/>
<path d="M29.9078 15.8406L27.3145 16.7116L25.9643 16.8972L27.2264 16.3829L29.9078 15.8406Z" fill="#07038D"/>
<path d="M29.8266 16.448C29.8409 16.5567 29.9406 16.6332 30.0493 16.6189C30.158 16.6046 30.2346 16.5049 30.2202 16.3962C30.2059 16.2875 30.1062 16.2109 29.9975 16.2253C29.8888 16.2396 29.8123 16.3393 29.8266 16.448Z" fill="#07038D"/>
<path d="M21.142 18.1898L23.7353 17.3187L25.0855 17.1331L23.8234 17.6474L21.142 18.1898Z" fill="#07038D"/>
<path d="M21.2232 17.5803C21.2089 17.4716 21.1092 17.3951 21.0005 17.4094C20.8918 17.4237 20.8152 17.5234 20.8296 17.6321C20.8439 17.7408 20.9436 17.8173 21.0523 17.803C21.161 17.7887 21.2375 17.689 21.2232 17.5803Z" fill="#07038D"/>
<path d="M30.0615 17.0144L27.3311 17.1845L25.9789 17.0144L27.3311 16.8442L30.0615 17.0144Z" fill="#07038D"/>
<path d="M29.8256 17.5804C29.8113 17.6891 29.8878 17.7888 29.9965 17.8031C30.1052 17.8175 30.2049 17.7409 30.2192 17.6322C30.2335 17.5235 30.157 17.4238 30.0483 17.4095C29.9396 17.3952 29.8399 17.4717 29.8256 17.5804Z" fill="#07038D"/>
<path d="M20.9863 17.0145L23.7167 16.8444L25.0689 17.0145L23.7167 17.1847L20.9863 17.0145Z" fill="#07038D"/>
<path d="M21.2223 16.4481C21.2366 16.3394 21.1601 16.2397 21.0514 16.2254C20.9427 16.211 20.843 16.2876 20.8286 16.3963C20.8143 16.505 20.8909 16.6047 20.9996 16.619C21.1082 16.6333 21.208 16.5568 21.2223 16.4481Z" fill="#07038D"/>
<path d="M29.9057 18.1929L27.2242 17.6505L25.9622 17.1362L27.3123 17.3218L29.9057 18.1929Z" fill="#07038D"/>
<path d="M29.5313 18.6785C29.4894 18.7798 29.5375 18.8959 29.6388 18.9379C29.7401 18.9798 29.8562 18.9317 29.8982 18.8304C29.9401 18.7291 29.892 18.613 29.7907 18.5711C29.6894 18.5291 29.5733 18.5772 29.5313 18.6785Z" fill="#07038D"/>
<path d="M21.1412 15.8429L23.8226 16.3852L25.0847 16.8996L23.7346 16.7139L21.1412 15.8429Z" fill="#07038D"/>
<path d="M21.5146 15.3551C21.5565 15.2538 21.5084 15.1377 21.4071 15.0958C21.3058 15.0538 21.1897 15.1019 21.1477 15.2032C21.1058 15.3045 21.1539 15.4206 21.2552 15.4626C21.3565 15.5045 21.4726 15.4564 21.5146 15.3551Z" fill="#07038D"/>
<path d="M29.4545 19.2835L27.0048 18.0657L25.9188 17.2422L27.1749 17.771L29.4545 19.2835Z" fill="#07038D"/>
<path d="M28.9675 19.6548C28.9007 19.7418 28.9172 19.8664 29.0041 19.9331C29.0911 19.9999 29.2157 19.9835 29.2825 19.8965C29.3492 19.8095 29.3328 19.6849 29.2458 19.6182C29.1588 19.5514 29.0342 19.5678 28.9675 19.6548Z" fill="#07038D"/>
<path d="M21.5958 14.7475L24.0455 15.9653L25.1314 16.7888L23.8754 16.26L21.5958 14.7475Z" fill="#07038D"/>
<path d="M22.0828 14.3734C22.1495 14.2864 22.1331 14.1618 22.0462 14.095C21.9592 14.0283 21.8346 14.0447 21.7678 14.1317C21.7011 14.2187 21.7175 14.3433 21.8045 14.41C21.8914 14.4768 22.0161 14.4604 22.0828 14.3734Z" fill="#07038D"/>
<path d="M28.7337 20.2249L26.6827 18.4145L25.8469 17.338L26.9233 18.1739L28.7337 20.2249Z" fill="#07038D"/>
<path d="M28.1653 20.4572C28.0783 20.5239 28.0619 20.6485 28.1286 20.7355C28.1954 20.8225 28.32 20.8389 28.407 20.7722C28.4939 20.7054 28.5103 20.5808 28.4436 20.4938C28.3769 20.4068 28.2522 20.3904 28.1653 20.4572Z" fill="#07038D"/>
<path d="M22.3161 13.8063L24.3671 15.6166L25.2029 16.6931L24.1265 15.8573L22.3161 13.8063Z" fill="#07038D"/>
<path d="M22.8836 13.5705C22.9705 13.5038 22.9869 13.3792 22.9202 13.2922C22.8535 13.2052 22.7288 13.1888 22.6419 13.2556C22.5549 13.3223 22.5385 13.4469 22.6052 13.5339C22.672 13.6209 22.7966 13.6373 22.8836 13.5705Z" fill="#07038D"/>
<path d="M27.7931 20.9484L26.2805 18.6688L25.7518 17.4127L26.5752 18.4987L27.7931 20.9484Z" fill="#07038D"/>
<path d="M27.1842 21.0272C27.0829 21.0691 27.0348 21.1852 27.0768 21.2865C27.1187 21.3878 27.2348 21.4359 27.3361 21.394C27.4374 21.352 27.4855 21.2359 27.4436 21.1346C27.4016 21.0333 27.2855 20.9852 27.1842 21.0272Z" fill="#07038D"/>
<path d="M23.2543 13.0901L24.7669 15.3696L25.2956 16.6257L24.4721 15.5398L23.2543 13.0901Z" fill="#07038D"/>
<path d="M23.8622 13.0109C23.9635 12.9689 24.0116 12.8528 23.9696 12.7515C23.9277 12.6502 23.8115 12.6021 23.7103 12.6441C23.609 12.686 23.5609 12.8021 23.6028 12.9034C23.6448 13.0047 23.7609 13.0528 23.8622 13.0109Z" fill="#07038D"/>
<path d="M26.6984 21.4012L25.8274 18.8078L25.6418 17.4577L26.1561 18.7197L26.6984 21.4012Z" fill="#07038D"/>
<path d="M26.0902 21.3205C25.9815 21.3348 25.905 21.4345 25.9193 21.5432C25.9336 21.6519 26.0334 21.7284 26.1421 21.7141C26.2507 21.6998 26.3273 21.6001 26.313 21.4914C26.2986 21.3827 26.1989 21.3061 26.0902 21.3205Z" fill="#07038D"/>
<path d="M24.3494 12.6342L25.2205 15.2276L25.4061 16.5777L24.8917 15.3157L24.3494 12.6342Z" fill="#07038D"/>
<path d="M24.9581 12.7178C25.0668 12.7035 25.1433 12.6038 25.129 12.4951C25.1147 12.3864 25.015 12.3099 24.9063 12.3242C24.7976 12.3385 24.7211 12.4382 24.7354 12.5469C24.7497 12.6556 24.8494 12.7321 24.9581 12.7178Z" fill="#07038D"/>
</g>
</g>
<defs>
<clipPath id="clip0_1611_12464">
<rect width="51.0465" height="34.031" fill="white"/>
</clipPath>
<clipPath id="clip1_1611_12464">
<rect width="51.0465" height="34.031" fill="white"/>
</clipPath>
</defs>
</svg>
