<svg width="66" height="66" viewBox="0 0 66 66" fill="none" xmlns="http://www.w3.org/2000/svg">
<path d="M52.6014 0H13.1128C5.87078 0 0 5.8708 0 13.1128V52.5914C0 59.8333 5.87078 65.7041 13.1128 65.7041H52.6014C59.8433 65.7041 65.7141 59.8333 65.7141 52.5914V13.1128C65.7141 5.8708 59.8433 0 52.6014 0Z" fill="#F16A86"/>
<path d="M18.4628 9.76104C24.5145 8.83205 29.6507 13.0827 32.9155 18.1887C42.4059 0.310755 64.5178 13.6073 55.395 32.0467C50.6231 41.6874 31.9865 56.9222 31.9865 56.9222C24.8955 44.9322 6.21213 37.1428 8.32407 20.5747C9.01914 15.1177 13.4937 10.5263 18.4628 9.76104Z" fill="white"/>
<path d="M26.837 20.6249C26.7768 21.1963 26.3792 22.1052 26.1587 22.6666C25.1194 25.2932 22.279 30.0852 22.8939 32.8153C23.4887 35.4486 26.5831 34.8805 28.3107 33.6708C30.7435 31.9665 32.4444 28.7351 32.9256 25.8646C33.0659 25.6307 34.1185 26.3491 34.2355 26.4895C34.6866 27.0208 33.7676 29.4369 33.6941 29.6006C33.4335 30.1754 33.0926 30.9239 32.7919 31.4653C32.725 31.5856 32.6482 31.7593 32.6114 31.8195C32.4443 32.1002 32.1002 32.5045 31.8896 32.7952C29.8011 35.6925 26.4193 37.8612 22.6666 36.7685C19.2213 35.766 19.0409 32.2639 19.7995 29.3299C20.685 25.888 22.8805 22.7134 23.7827 19.345C23.8429 19.1177 23.9197 18.269 23.9565 18.2255C23.9866 18.1888 26.8971 20.0635 26.837 20.6215V20.6249Z" fill="#F16A86"/>
<path d="M45.7844 15.2915C46.6934 14.817 48.1369 14.3425 49.1628 14.3091C50.8905 14.2523 52.8387 14.9641 53.5438 16.6215C53.0359 16.4311 52.5781 16.0768 52.0601 15.9064C48.5514 14.7636 45.6273 17.9181 43.8896 20.4845C42.6666 22.2857 41.7343 24.2506 40.822 26.2155C43.609 25.4703 46.5396 25.5237 49.3934 25.1495C49.2798 26.2589 48.558 27.7092 47.5288 28.2439C45.9114 29.0793 42.0885 28.3809 40.1403 28.6115C40.04 28.6249 39.9431 28.6115 39.8729 28.705C38.6432 31.6758 37.5706 34.7234 36.2339 37.6507C34.6533 41.116 30.6466 48.3809 25.0994 48.2305C23.0576 48.1737 21.096 46.1386 19.7493 44.7017C18.7535 43.639 17.8212 42.4694 16.9991 41.2798C18.2255 41.9849 19.2013 43.0977 20.3408 43.9398C21.7376 44.9724 23.7427 46.3825 25.5505 45.8813C29.7878 44.7117 32.6015 37.5171 34.142 33.8579C35.0944 31.5989 35.9632 29.2731 36.939 27.0175C36.9791 26.9239 36.9957 26.827 37.0292 26.7502C38.8003 22.7101 41.6474 17.4536 45.7811 15.2882L45.7844 15.2915Z" fill="#F16A86"/>
</svg>
