<svg width="149" height="28" viewBox="0 0 149 28" fill="none" xmlns="http://www.w3.org/2000/svg">
<path d="M5.38014 27.5224C3.66586 27.5224 2.33916 27.0011 1.40349 25.9552C0.467819 24.9126 0 23.4723 0 21.6411V11.3855H4.4912V20.2008C4.4912 21.2635 4.7285 22.0621 5.19968 22.6035C5.67085 23.1448 6.34253 23.4122 7.20803 23.4122C8.07352 23.4122 8.75854 23.1415 9.26313 22.6035C9.76438 22.0621 10.0184 21.2635 10.0184 20.2008V11.3855H14.5096V27.225H10.0184V24.9594C9.76104 25.2969 9.48034 25.6177 9.17624 25.9251C8.87215 26.2326 8.53136 26.5066 8.1571 26.7438C7.78283 26.9811 7.36839 27.1715 6.91726 27.3085C6.46279 27.4455 5.95157 27.5157 5.38014 27.5157V27.5224Z" fill="#232323"/>
<path d="M22.7869 27.5224C21.6641 27.5224 20.5146 27.3319 19.3451 26.9476C18.1721 26.5634 17.056 25.9585 15.99 25.1298L17.9115 22.1757C18.777 22.8073 19.6391 23.2785 20.4979 23.5959C21.3534 23.91 22.1587 24.0705 22.9073 24.0705C23.5589 24.0705 24.0334 23.9635 24.3408 23.7463C24.6449 23.5291 24.7986 23.2451 24.7986 22.8908V22.8307C24.7986 22.5935 24.7085 22.3862 24.5313 22.2091C24.3542 22.032 24.1136 21.8783 23.8061 21.7513C23.4987 21.6243 23.1512 21.5007 22.7569 21.3804C22.3626 21.2634 21.9482 21.1331 21.5171 20.9961C20.9658 20.8391 20.4077 20.6452 19.8463 20.4213C19.2849 20.1941 18.7769 19.9 18.3258 19.5358C17.8714 19.1715 17.5037 18.7238 17.2164 18.1925C16.929 17.6611 16.7886 17.0095 16.7886 16.2409V16.1808C16.7886 15.3721 16.9424 14.6603 17.2465 14.0387C17.5506 13.4172 17.9649 12.8925 18.4862 12.4581C19.0075 12.0237 19.619 11.6995 20.3175 11.4823C21.0159 11.2651 21.7711 11.1582 22.5798 11.1582C23.5856 11.1582 24.6048 11.3219 25.6374 11.6461C26.67 11.9702 27.6223 12.418 28.4878 12.9894L26.7736 16.0939C25.985 15.6394 25.2163 15.2819 24.4678 15.0145C23.7193 14.7472 23.0576 14.6168 22.4862 14.6168C21.9148 14.6168 21.5205 14.7204 21.2464 14.9276C20.9691 15.1348 20.8321 15.3955 20.8321 15.7096V15.7697C20.8321 15.9869 20.9223 16.1774 21.0994 16.3478C21.2765 16.5149 21.5138 16.672 21.8078 16.8223C22.1019 16.9694 22.4428 17.1131 22.8271 17.2501C23.2113 17.3871 23.619 17.5274 24.0534 17.6644C24.6048 17.8416 25.1662 18.0521 25.7376 18.2994C26.3091 18.5467 26.8204 18.8474 27.2749 19.2016C27.7293 19.5558 28.1035 19.9903 28.3976 20.5015C28.6917 21.0128 28.8421 21.6344 28.8421 22.3629V22.423C28.8421 23.3085 28.6883 24.0738 28.3842 24.7121C28.0801 25.3537 27.6491 25.8783 27.0977 26.2927C26.5464 26.7071 25.9014 27.0178 25.1629 27.225C24.4244 27.4322 23.6291 27.5358 22.7837 27.5358L22.7869 27.5224Z" fill="#232323"/>
<path d="M39.101 15.2284H37.2396V11.5325H39.101V10.5266C39.101 8.81234 39.5254 7.53248 40.3708 6.68369C41.1996 5.85495 42.4092 5.44394 44.0065 5.44394C44.715 5.44394 45.3232 5.48403 45.8245 5.56089C46.3257 5.64109 46.7835 5.74801 47.1978 5.88502V9.60766C46.8637 9.4907 46.5362 9.39715 46.2221 9.32697C45.908 9.2568 45.5538 9.22336 45.1595 9.22336C44.0768 9.22336 43.5354 9.79479 43.5354 10.9376V11.5592H47.1712V15.225H43.5955V27.225H39.1043V15.225L39.101 15.2284Z" fill="#232323"/>
<path d="M56.0935 27.5826C54.8704 27.5826 53.7375 27.372 52.6949 26.9477C51.649 26.5233 50.7501 25.9418 49.9916 25.2033C49.233 24.4648 48.6382 23.5959 48.2037 22.6035C47.7693 21.6076 47.5521 20.5383 47.5521 19.3955V19.3353C47.5521 18.1924 47.7693 17.1231 48.2037 16.1273C48.6382 15.1315 49.2397 14.2593 50.0049 13.5108C50.7735 12.7622 51.6791 12.1707 52.725 11.7363C53.7676 11.3019 54.9138 11.0847 56.1536 11.0847C57.3934 11.0847 58.5095 11.2952 59.5521 11.7196C60.5947 12.144 61.497 12.7255 62.2555 13.464C63.0141 14.2025 63.6089 15.0713 64.0434 16.0638C64.4778 17.0596 64.695 18.129 64.695 19.2718V19.3319C64.695 20.4748 64.4778 21.5442 64.0434 22.54C63.6089 23.5358 63.0107 24.408 62.2421 25.1565C61.4736 25.9051 60.568 26.4965 59.522 26.9309C58.4761 27.3653 57.3366 27.5826 56.0935 27.5826ZM56.1536 23.7096C56.8052 23.7096 57.38 23.596 57.8812 23.3687C58.3825 23.1415 58.8136 22.8307 59.1678 22.4364C59.522 22.0421 59.7927 21.5843 59.9798 21.063C60.167 20.5417 60.2605 19.9836 60.2605 19.3921V19.3319C60.2605 18.7405 60.1603 18.1858 59.9664 17.6611C59.7693 17.1398 59.482 16.6753 59.111 16.271C58.7368 15.8667 58.2923 15.5459 57.781 15.3119C57.2698 15.0747 56.7084 14.9577 56.0968 14.9577C55.4452 14.9577 54.8704 15.0713 54.3691 15.2986C53.8679 15.5258 53.4368 15.8366 53.0826 16.2309C52.7284 16.6252 52.4578 17.083 52.2706 17.6043C52.0835 18.1256 51.9899 18.6837 51.9899 19.2752V19.3353C51.9899 19.9268 52.0868 20.4848 52.2839 21.0061C52.4811 21.5274 52.7651 21.9919 53.1394 22.3963C53.5137 22.8006 53.9514 23.1214 54.456 23.3553C54.9573 23.5926 55.5254 23.7096 56.157 23.7096H56.1536Z" fill="#232323"/>
<path d="M66.6465 11.3854H71.1377V14.5767C71.5922 13.494 72.2104 12.6252 72.999 11.9769C73.7876 11.3253 74.8503 11.0312 76.1903 11.0914V15.7898H75.9531C74.456 15.7898 73.2797 16.2442 72.4209 17.1498C71.5654 18.0554 71.1344 19.4656 71.1344 21.377V27.2283H66.6432V11.3888L66.6465 11.3854Z" fill="#232323"/>
<path d="M85.2061 27.5826C84.0232 27.5826 82.9238 27.3854 81.9113 26.9911C80.8954 26.5968 80.0199 26.0354 79.2813 25.3069C78.5428 24.5784 77.9647 23.7162 77.5537 22.7204C77.1393 21.7246 76.9321 20.6185 76.9321 19.3955V19.3353C76.9321 18.2125 77.1226 17.1499 77.5069 16.144C77.8912 15.1382 78.4292 14.2626 79.1176 13.5141C79.806 12.7656 80.6281 12.1741 81.5838 11.7397C82.5395 11.3052 83.5988 11.088 84.7617 11.088C86.0817 11.088 87.2246 11.3253 88.1903 11.7965C89.1561 12.2677 89.9581 12.9059 90.5997 13.7012C91.2413 14.4999 91.7124 15.4155 92.0199 16.4514C92.324 17.484 92.4776 18.5634 92.4776 19.6862C92.4776 19.8633 92.4743 20.0504 92.4643 20.2476C92.4542 20.4447 92.4409 20.6519 92.4209 20.8691H81.3967C81.6139 21.895 82.0617 22.667 82.74 23.1883C83.4184 23.7096 84.2605 23.9702 85.2663 23.9702C86.0149 23.9702 86.6832 23.8432 87.2747 23.5859C87.8662 23.3286 88.4777 22.9176 89.1059 22.3461L91.6757 24.6219C90.9271 25.5475 90.0215 26.2726 88.9555 26.7939C87.8928 27.3152 86.6397 27.5759 85.2028 27.5759L85.2061 27.5826ZM88.1001 18.0655C87.9631 17.0596 87.6088 16.2476 87.0374 15.626C86.4659 15.0045 85.7074 14.6937 84.7617 14.6937C83.8161 14.6937 83.0508 14.9978 82.4693 15.6093C81.8879 16.2208 81.5103 17.0396 81.3332 18.0621H88.1001V18.0655Z" fill="#232323"/>
<path d="M93.0959 11.3855H97.8545L101.4 21.9953L104.976 11.3855H109.644L103.408 27.3453H99.3315L93.0959 11.3855Z" fill="#232323"/>
<path d="M118.453 27.5826C117.27 27.5826 116.174 27.3854 115.158 26.9911C114.142 26.5968 113.266 26.0354 112.528 25.3069C111.789 24.5784 111.211 23.7162 110.8 22.7204C110.386 21.7246 110.179 20.6185 110.179 19.3955V19.3353C110.179 18.2125 110.369 17.1499 110.757 16.144C111.141 15.1382 111.676 14.2626 112.367 13.5141C113.056 12.7656 113.878 12.1741 114.834 11.7397C115.789 11.3052 116.849 11.088 118.012 11.088C119.332 11.088 120.474 11.3253 121.44 11.7965C122.406 12.271 123.208 12.9059 123.849 13.7012C124.491 14.4999 124.962 15.4155 125.27 16.4514C125.574 17.484 125.727 18.5634 125.727 19.6862C125.727 19.8633 125.721 20.0504 125.714 20.2476C125.704 20.4447 125.691 20.6519 125.671 20.8691H114.646C114.864 21.895 115.311 22.667 115.99 23.1883C116.668 23.7096 117.51 23.9702 118.516 23.9702C119.265 23.9702 119.936 23.8432 120.525 23.5859C121.116 23.3286 121.727 22.9176 122.356 22.3461L124.925 24.6219C124.177 25.5475 123.271 26.2726 122.205 26.7939C121.143 27.3152 119.89 27.5759 118.453 27.5759V27.5826ZM121.35 18.0655C121.213 17.0596 120.859 16.2476 120.287 15.626C119.716 15.0045 118.957 14.6937 118.012 14.6937C117.066 14.6937 116.301 14.9978 115.722 15.6093C115.141 16.2208 114.763 17.0396 114.586 18.0621H121.353L121.35 18.0655Z" fill="#232323"/>
<path d="M127.763 11.3854H132.254V14.5767C132.708 13.494 133.326 12.6252 134.115 11.9769C134.904 11.3253 135.966 11.0312 137.306 11.0914V15.7898H137.069C135.572 15.7898 134.396 16.2442 133.537 17.1498C132.681 18.0554 132.25 19.4656 132.25 21.377V27.2283H127.759V11.3888L127.763 11.3854Z" fill="#232323"/>
<path d="M140.498 10.2025C139.255 11.1549 136.692 12.1006 136.692 12.1006C136.337 10.2292 134.312 8.37796 135.338 6.32951C135.676 5.65449 136.454 5.26349 137.126 5.38713C137.938 5.54085 138.399 6.32283 138.583 7.12817C138.7 7.0179 138.817 6.9243 138.934 6.84744C139.458 7.97693 140.097 9.08972 140.494 10.2025H140.498Z" fill="#F16A86"/>
<path d="M141.661 0.0370656C142.967 0.281008 143.709 1.53748 144 2.8374C147.258 -0.193509 150.807 4.17406 147.585 7.34532C145.898 9.00614 140.962 10.824 140.962 10.824C140.391 7.81651 137.139 4.84575 138.79 1.55086C139.335 0.464811 140.588 -0.163435 141.661 0.0370656Z" fill="#F16A86"/>
</svg>
