<svg width="70" height="70" viewBox="0 0 70 70" fill="none" xmlns="http://www.w3.org/2000/svg">
<path d="M0 34.6061C0 15.4937 15.4937 0 34.6061 0C53.7186 0 69.2123 15.4937 69.2123 34.6061C69.2123 53.7186 53.7186 69.2123 34.6061 69.2123C15.4937 69.2123 0 53.7186 0 34.6061Z" fill="#FDD1D9"/>
<path d="M44.6996 37.4901C46.848 35.3848 49.0253 32.8615 49.0253 29.5595C49.0253 27.4562 48.1898 25.439 46.7025 23.9517C45.2153 22.4644 43.1981 21.6289 41.0948 21.6289C38.557 21.6289 36.769 22.3499 34.6061 24.5128C32.4432 22.3499 30.6552 21.6289 28.1175 21.6289C26.0141 21.6289 23.997 22.4644 22.5097 23.9517C21.0224 25.439 20.1869 27.4562 20.1869 29.5595C20.1869 32.8759 22.3498 35.3993 24.5127 37.4901L34.6061 47.5835L44.6996 37.4901Z" fill="#F96A86" stroke="#F96A86" stroke-width="2.88385" stroke-linecap="round" stroke-linejoin="round"/>
</svg>
