<svg width="11" height="11" viewBox="0 0 11 11" fill="none" xmlns="http://www.w3.org/2000/svg">
<path d="M7.46503 1.75635H6.58698C6.34451 1.75635 6.14795 1.95291 6.14795 2.19537V8.34175C6.14795 8.58422 6.34451 8.78078 6.58698 8.78078H7.46503C7.7075 8.78078 7.90406 8.58422 7.90406 8.34175V2.19537C7.90406 1.95291 7.7075 1.75635 7.46503 1.75635Z" stroke="#4A5565" stroke-width="0.878054" stroke-linecap="round" stroke-linejoin="round"/>
<path d="M3.95136 1.75635H3.0733C2.83084 1.75635 2.63428 1.95291 2.63428 2.19537V8.34175C2.63428 8.58422 2.83084 8.78078 3.0733 8.78078H3.95136C4.19383 8.78078 4.39039 8.58422 4.39039 8.34175V2.19537C4.39039 1.95291 4.19383 1.75635 3.95136 1.75635Z" stroke="#4A5565" stroke-width="0.878054" stroke-linecap="round" stroke-linejoin="round"/>
</svg>
