<svg width="30" height="30" viewBox="0 0 30 30" fill="none" xmlns="http://www.w3.org/2000/svg">
<path d="M12.1621 18.97C12.0528 18.5465 11.8321 18.1599 11.5228 17.8506C11.2134 17.5413 10.8269 17.3205 10.4033 17.2113L2.89457 15.275C2.76647 15.2386 2.65372 15.1615 2.57343 15.0552C2.49315 14.949 2.44971 14.8195 2.44971 14.6863C2.44971 14.5531 2.49315 14.4236 2.57343 14.3174C2.65372 14.2111 2.76647 14.134 2.89457 14.0976L10.4033 12.1601C10.8267 12.051 11.2132 11.8304 11.5225 11.5213C11.8318 11.2122 12.0526 10.8259 12.1621 10.4026L14.0984 2.89381C14.1343 2.7652 14.2114 2.6519 14.3178 2.57118C14.4242 2.49047 14.5541 2.44678 14.6877 2.44678C14.8212 2.44678 14.9511 2.49047 15.0575 2.57118C15.1639 2.6519 15.241 2.7652 15.277 2.89381L17.212 10.4026C17.3213 10.8261 17.5421 11.2127 17.8514 11.522C18.1607 11.8313 18.5472 12.0521 18.9708 12.1614L26.4796 14.0964C26.6087 14.132 26.7225 14.209 26.8037 14.3155C26.8848 14.4221 26.9288 14.5524 26.9288 14.6863C26.9288 14.8202 26.8848 14.9505 26.8037 15.0571C26.7225 15.1636 26.6087 15.2406 26.4796 15.2762L18.9708 17.2113C18.5472 17.3205 18.1607 17.5413 17.8514 17.8506C17.5421 18.1599 17.3213 18.5465 17.212 18.97L15.2758 26.4788C15.2398 26.6074 15.1627 26.7207 15.0563 26.8014C14.9499 26.8821 14.82 26.9258 14.6865 26.9258C14.5529 26.9258 14.423 26.8821 14.3166 26.8014C14.2102 26.7207 14.1331 26.6074 14.0971 26.4788L12.1621 18.97Z" stroke="#FF2056" stroke-width="2.44784" stroke-linecap="round" stroke-linejoin="round"/>
<path d="M24.4785 3.67139V8.56708" stroke="#FF2056" stroke-width="2.44784" stroke-linecap="round" stroke-linejoin="round"/>
<path d="M26.9262 6.11914H22.0305" stroke="#FF2056" stroke-width="2.44784" stroke-linecap="round" stroke-linejoin="round"/>
<path d="M4.89575 20.8062V23.254" stroke="#FF2056" stroke-width="2.44784" stroke-linecap="round" stroke-linejoin="round"/>
<path d="M6.11972 22.0303H3.67188" stroke="#FF2056" stroke-width="2.44784" stroke-linecap="round" stroke-linejoin="round"/>
</svg>
