<svg width="38" height="38" viewBox="0 0 38 38" fill="none" xmlns="http://www.w3.org/2000/svg">
<path d="M34.8332 19H3.1665" stroke="#F96A86" stroke-width="2" stroke-linecap="round" stroke-linejoin="round"/>
<path d="M8.629 8.09083L3.1665 19V28.5C3.1665 29.3399 3.50013 30.1453 4.094 30.7392C4.68786 31.333 5.49332 31.6667 6.33317 31.6667H31.6665C32.5064 31.6667 33.3118 31.333 33.9057 30.7392C34.4995 30.1453 34.8332 29.3399 34.8332 28.5V19L29.3707 8.09083C29.1085 7.56325 28.7044 7.11925 28.2037 6.80877C27.703 6.4983 27.1256 6.33364 26.5365 6.33333H11.4632C10.874 6.33364 10.2967 6.4983 9.79599 6.80877C9.29531 7.11925 8.89117 7.56325 8.629 8.09083Z" stroke="#F96A86" stroke-width="2" stroke-linecap="round" stroke-linejoin="round"/>
<path d="M9.5 25.3333H9.51583" stroke="#F96A86" stroke-width="2" stroke-linecap="round" stroke-linejoin="round"/>
<path d="M15.8335 25.3333H15.8493" stroke="#F96A86" stroke-width="2" stroke-linecap="round" stroke-linejoin="round"/>
</svg>
