<svg width="25" height="25" viewBox="0 0 25 25" fill="none" xmlns="http://www.w3.org/2000/svg">
<path d="M12.0789 0C5.41137 0 0 5.41137 0 12.0789C0 18.7465 5.41137 24.1579 12.0789 24.1579C18.7465 24.1579 24.1579 18.7465 24.1579 12.0789C24.1579 5.41137 18.7465 0 12.0789 0ZM12.0789 21.7421C6.75213 21.7421 2.41579 17.4058 2.41579 12.0789C2.41579 6.75213 6.75213 2.41579 12.0789 2.41579C17.4058 2.41579 21.7421 6.75213 21.7421 12.0789C21.7421 17.4058 17.4058 21.7421 12.0789 21.7421ZM16.7656 7.59766L9.66316 14.7001L7.39232 12.4292C6.92124 11.9582 6.16026 11.9582 5.68918 12.4292C5.21811 12.9003 5.21811 13.6613 5.68918 14.1324L8.81763 17.2608C9.28871 17.7319 10.0497 17.7319 10.5208 17.2608L18.4808 9.30079C18.9519 8.82971 18.9519 8.06874 18.4808 7.59766C18.0097 7.12658 17.2367 7.12658 16.7656 7.59766Z" fill="#292D32"/>
</svg>
