<svg width="67" height="67" viewBox="0 0 67 67" fill="none" xmlns="http://www.w3.org/2000/svg">
<path d="M52.9568 0H13.2014C5.91044 0 0 5.91046 0 13.2014V52.9467C0 60.2376 5.91044 66.1481 13.2014 66.1481H52.9568C60.2477 66.1481 66.1581 60.2376 66.1581 52.9467V13.2014C66.1581 5.91046 60.2477 0 52.9568 0Z" fill="#F16A86"/>
<path d="M18.5876 9.82692C24.6802 8.89166 29.8511 13.171 33.138 18.3116C42.6925 0.312787 64.9538 13.6992 55.7694 32.2632C50.9652 41.969 32.2027 57.3067 32.2027 57.3067C25.0637 45.2358 6.25415 37.3937 8.38036 20.7137C9.08013 15.2198 13.5849 10.5973 18.5876 9.82692Z" fill="white"/>
<path d="M27.0185 20.7639C26.9579 21.3392 26.5576 22.2543 26.3356 22.8195C25.2893 25.4638 22.4297 30.2881 23.0487 33.0367C23.6476 35.6878 26.7628 35.1158 28.5022 33.898C30.9513 32.1822 32.6638 28.929 33.1482 26.0391C33.2895 25.8036 34.3492 26.5269 34.467 26.6682C34.9212 27.2031 33.996 29.6355 33.9219 29.8003C33.6595 30.379 33.3164 31.1326 33.0136 31.6776C32.9463 31.7987 32.8689 31.9736 32.8319 32.0342C32.6637 32.3168 32.3172 32.7238 32.1053 33.0165C30.0026 35.9334 26.5979 38.1168 22.8199 37.0166C19.3513 36.0074 19.1697 32.4816 19.9334 29.5278C20.8249 26.0626 23.0352 22.8666 23.9436 19.4754C24.0041 19.2466 24.0815 18.3921 24.1185 18.3484C24.1488 18.3114 27.079 20.1987 27.0185 20.7606V20.7639Z" fill="#F16A86"/>
<path d="M46.0931 15.3948C47.0081 14.917 48.4614 14.4393 49.4943 14.4057C51.2336 14.3485 53.195 15.0651 53.9049 16.7338C53.3935 16.542 52.9326 16.1854 52.4111 16.0138C48.8787 14.8632 45.9349 18.0391 44.1855 20.6228C42.9541 22.4362 42.0155 24.4144 41.0971 26.3925C43.9029 25.6423 46.8533 25.6961 49.7264 25.3193C49.612 26.4363 48.8854 27.8964 47.8492 28.4346C46.2209 29.2757 42.3721 28.5726 40.4108 28.8047C40.3098 28.8182 40.2123 28.8047 40.1416 28.8989C38.9036 31.8897 37.8237 34.9579 36.478 37.905C34.8867 41.3938 30.8529 48.7077 25.2682 48.5563C23.2127 48.4991 21.2379 46.4502 19.8821 45.0036C18.8795 43.9338 17.9409 42.7563 17.1133 41.5586C18.348 42.2685 19.3303 43.3888 20.4775 44.2366C21.8838 45.2761 23.9024 46.6958 25.7225 46.1912C29.9883 45.0137 32.821 37.7705 34.3719 34.0866C35.3308 31.8124 36.2055 29.4709 37.1879 27.2C37.2282 27.1058 37.245 27.0082 37.2786 26.9308C39.0617 22.8634 41.9281 17.5715 46.0897 15.3914L46.0931 15.3948Z" fill="#F16A86"/>
</svg>
