<svg width="301" height="88" viewBox="0 0 301 88" fill="none" xmlns="http://www.w3.org/2000/svg">
<path d="M70.0576 0H17.4643C7.81904 0 0 7.81907 0 17.4644V70.0442C0 79.6895 7.81904 87.5086 17.4643 87.5086H70.0576C79.7029 87.5086 87.5219 79.6895 87.5219 70.0442V17.4644C87.5219 7.81907 79.7029 0 70.0576 0Z" fill="#F16A86"/>
<path d="M24.5898 13.0003C32.6499 11.763 39.4905 17.4243 43.8388 24.2248C56.4786 0.413883 85.9286 18.123 73.7783 42.6817C67.4228 55.5218 42.6015 75.8123 42.6015 75.8123C33.1573 59.8434 8.27366 49.4689 11.0865 27.4026C12.0122 20.1347 17.9717 14.0195 24.5898 13.0003Z" fill="white"/>
<path d="M35.7429 27.4694C35.6628 28.2305 35.1333 29.441 34.8395 30.1887C33.4554 33.6869 29.6723 40.0692 30.4912 43.7053C31.2835 47.2125 35.4047 46.4558 37.7057 44.8447C40.9458 42.5749 43.2112 38.2711 43.8521 34.448C44.039 34.1364 45.4409 35.0933 45.5967 35.2803C46.1975 35.9879 44.9736 39.2057 44.8756 39.4238C44.5285 40.1893 44.0746 41.1863 43.674 41.9073C43.585 42.0675 43.4826 42.299 43.4336 42.3791C43.2111 42.7529 42.7527 43.2914 42.4723 43.6786C39.6907 47.5373 35.1866 50.4258 30.1885 48.9704C25.5999 47.6352 25.3596 42.971 26.3699 39.0633C27.5494 34.4791 30.4734 30.251 31.6751 25.7648C31.7552 25.4621 31.8576 24.3317 31.9065 24.2738C31.9466 24.2249 35.823 26.7217 35.7429 27.4649V27.4694Z" fill="#F16A86"/>
<path d="M60.9781 20.3661C62.1886 19.7341 64.1113 19.1022 65.4776 19.0577C67.7786 18.982 70.3734 19.93 71.3124 22.1375C70.6359 21.8838 70.0262 21.4121 69.3364 21.1851C64.6632 19.663 60.7688 23.8644 58.4545 27.2824C56.8255 29.6813 55.5838 32.2983 54.3688 34.9153C58.0806 33.9228 61.9838 33.994 65.7847 33.4955C65.6334 34.9731 64.6721 36.9047 63.3013 37.6168C61.1472 38.7295 56.0556 37.7994 53.4609 38.1064C53.3273 38.1243 53.1982 38.1064 53.1048 38.231C51.4669 42.1877 50.0383 46.2466 48.2581 50.1454C46.1529 54.7607 40.8166 64.4365 33.4285 64.2362C30.7092 64.1605 28.0966 61.45 26.303 59.5363C24.9767 58.121 23.735 56.5632 22.6401 54.9788C24.2735 55.9179 25.5731 57.4 27.0908 58.5216C28.9512 59.8968 31.6216 61.775 34.0294 61.1074C39.6728 59.5496 43.4202 49.9674 45.472 45.0939C46.7404 42.0853 47.8976 38.9877 49.1972 35.9835C49.2506 35.8589 49.2728 35.7298 49.3173 35.6274C51.6761 30.2466 55.4682 23.2457 60.9736 20.3617L60.9781 20.3661Z" fill="#F16A86"/>
<path d="M109.913 58.2055C107.63 58.2055 105.863 57.5113 104.617 56.1182C103.371 54.7296 102.748 52.8114 102.748 50.3724V36.7134H108.729V48.4542C108.729 49.8695 109.045 50.9332 109.673 51.6542C110.3 52.3752 111.195 52.7313 112.348 52.7313C113.5 52.7313 114.413 52.3707 115.085 51.6542C115.752 50.9332 116.091 49.8695 116.091 48.4542V36.7134H122.072V57.8094H116.091V54.7919C115.748 55.2414 115.374 55.6687 114.969 56.0782C114.564 56.4876 114.11 56.8526 113.612 57.1685C113.113 57.4845 112.561 57.7382 111.96 57.9207C111.355 58.1032 110.674 58.1966 109.913 58.1966V58.2055Z" fill="#232323"/>
<path d="M133.096 58.2055C131.601 58.2055 130.07 57.9518 128.512 57.44C126.95 56.9282 125.464 56.1227 124.044 55.0189L126.603 51.0845C127.756 51.9257 128.904 52.5532 130.048 52.976C131.187 53.3944 132.26 53.608 133.257 53.608C134.125 53.608 134.757 53.4656 135.166 53.1763C135.571 52.887 135.776 52.5087 135.776 52.0369V51.9569C135.776 51.6409 135.656 51.3649 135.42 51.129C135.184 50.8931 134.863 50.6884 134.454 50.5192C134.044 50.3501 133.582 50.1855 133.057 50.0252C132.531 49.8695 131.979 49.6959 131.405 49.5135C130.671 49.3043 129.928 49.0461 129.18 48.7479C128.432 48.4453 127.756 48.0536 127.155 47.5685C126.55 47.0833 126.06 46.487 125.677 45.7794C125.295 45.0717 125.108 44.2038 125.108 43.1801V43.1001C125.108 42.023 125.312 41.075 125.717 40.2472C126.122 39.4194 126.674 38.7206 127.369 38.142C128.063 37.5634 128.877 37.1317 129.808 36.8424C130.738 36.5531 131.744 36.4107 132.821 36.4107C134.16 36.4107 135.518 36.6288 136.893 37.0605C138.268 37.4922 139.537 38.0886 140.689 38.8497L138.406 42.9843C137.356 42.379 136.332 41.9028 135.335 41.5468C134.338 41.1907 133.457 41.0171 132.696 41.0171C131.935 41.0171 131.41 41.1551 131.045 41.4311C130.675 41.707 130.493 42.0541 130.493 42.4725V42.5526C130.493 42.8419 130.613 43.0956 130.849 43.3226C131.085 43.5451 131.401 43.7543 131.792 43.9545C132.184 44.1504 132.638 44.3418 133.15 44.5242C133.662 44.7067 134.205 44.8936 134.783 45.0761C135.518 45.312 136.265 45.5924 137.026 45.9217C137.788 46.2511 138.468 46.6516 139.074 47.1234C139.679 47.5952 140.177 48.1738 140.569 48.8547C140.961 49.5357 141.161 50.3635 141.161 51.3337V51.4138C141.161 52.5933 140.956 53.6125 140.551 54.4626C140.146 55.3171 139.572 56.0158 138.838 56.5677C138.104 57.1196 137.245 57.5335 136.261 57.8094C135.277 58.0853 134.218 58.2233 133.092 58.2233L133.096 58.2055Z" fill="#232323"/>
<path d="M154.825 41.8316H152.346V36.9092H154.825V35.5696C154.825 33.2864 155.39 31.5818 156.516 30.4513C157.62 29.3476 159.231 28.8001 161.358 28.8001C162.302 28.8001 163.112 28.8535 163.779 28.9559C164.447 29.0627 165.057 29.2051 165.609 29.3876V34.3456C165.164 34.1899 164.727 34.0653 164.309 33.9718C163.891 33.8783 163.419 33.8338 162.894 33.8338C161.452 33.8338 160.731 34.5949 160.731 36.117V36.9448H165.573V41.8272H160.811V57.8094H154.829V41.8272L154.825 41.8316Z" fill="#232323"/>
<path d="M177.456 58.2857C175.827 58.2857 174.318 58.0053 172.93 57.44C171.537 56.8748 170.339 56.1004 169.329 55.1168C168.319 54.1332 167.527 52.976 166.948 51.6542C166.369 50.3279 166.08 48.9037 166.08 47.3816V47.3015C166.08 45.7793 166.369 44.3551 166.948 43.0288C167.527 41.7026 168.328 40.541 169.347 39.544C170.371 38.5471 171.577 37.7593 172.97 37.1807C174.358 36.6021 175.885 36.3128 177.536 36.3128C179.187 36.3128 180.674 36.5932 182.062 37.1585C183.451 37.7237 184.653 38.4981 185.663 39.4817C186.673 40.4653 187.465 41.6225 188.044 42.9443C188.623 44.2706 188.912 45.6948 188.912 47.2169V47.297C188.912 48.8191 188.623 50.2434 188.044 51.5697C187.465 52.896 186.669 54.0576 185.645 55.0545C184.621 56.0514 183.415 56.8392 182.022 57.4178C180.629 57.9963 179.112 58.2857 177.456 58.2857ZM177.536 53.1274C178.404 53.1274 179.169 52.9761 179.837 52.6734C180.505 52.3708 181.079 51.9568 181.551 51.4317C182.022 50.9065 182.383 50.2968 182.632 49.6025C182.881 48.9082 183.006 48.1649 183.006 47.3771V47.297C183.006 46.5092 182.872 45.7704 182.614 45.0717C182.352 44.3774 181.969 43.7588 181.475 43.2202C180.976 42.6817 180.385 42.2545 179.704 41.9429C179.023 41.6269 178.275 41.4711 177.46 41.4711C176.593 41.4711 175.827 41.6224 175.159 41.9251C174.492 42.2277 173.918 42.6417 173.446 43.1668C172.974 43.692 172.614 44.3017 172.364 44.996C172.115 45.6904 171.991 46.4336 171.991 47.2214V47.3015C171.991 48.0892 172.12 48.8325 172.382 49.5268C172.645 50.2211 173.023 50.8397 173.522 51.3783C174.02 51.9168 174.603 52.344 175.275 52.6556C175.943 52.9716 176.699 53.1274 177.54 53.1274H177.536Z" fill="#232323"/>
<path d="M191.511 36.7134H197.493V40.9637C198.098 39.5217 198.922 38.3645 199.972 37.5011C201.022 36.6332 202.438 36.2416 204.222 36.3217V42.5793H203.906C201.912 42.5793 200.346 43.1846 199.202 44.3908C198.063 45.5969 197.488 47.475 197.488 50.0208V57.8139H191.507V36.7179L191.511 36.7134Z" fill="#232323"/>
<path d="M216.23 58.2857C214.655 58.2857 213.191 58.0231 211.842 57.4979C210.489 56.9727 209.323 56.225 208.339 55.2548C207.356 54.2845 206.586 53.1363 206.038 51.81C205.486 50.4837 205.21 49.0105 205.21 47.3816V47.3015C205.21 45.806 205.464 44.3908 205.976 43.0511C206.488 41.7115 207.204 40.5454 208.121 39.5485C209.038 38.5515 210.133 37.7637 211.406 37.1851C212.679 36.6066 214.09 36.3173 215.638 36.3173C217.396 36.3173 218.919 36.6333 220.205 37.2608C221.491 37.8884 222.559 38.7384 223.414 39.7977C224.268 40.8614 224.896 42.0808 225.305 43.4605C225.71 44.8358 225.915 46.2734 225.915 47.7688C225.915 48.0047 225.91 48.2539 225.897 48.5165C225.884 48.7791 225.866 49.055 225.839 49.3443H211.157C211.446 50.7107 212.042 51.7388 212.946 52.4331C213.849 53.1274 214.971 53.4745 216.31 53.4745C217.307 53.4745 218.198 53.3054 218.985 52.9627C219.773 52.62 220.588 52.0725 221.424 51.3115L224.847 54.3424C223.85 55.5752 222.644 56.541 221.224 57.2353C219.809 57.9296 218.14 58.2768 216.226 58.2768L216.23 58.2857ZM220.085 45.6102C219.902 44.2706 219.43 43.1891 218.669 42.3612C217.908 41.5334 216.898 41.1195 215.638 41.1195C214.379 41.1195 213.36 41.5245 212.585 42.339C211.811 43.1534 211.308 44.2439 211.072 45.6058H220.085V45.6102Z" fill="#232323"/>
<path d="M226.738 36.7134H233.076L237.798 50.8442L242.56 36.7134H248.778L240.473 57.9697H235.043L226.738 36.7134Z" fill="#232323"/>
<path d="M260.51 58.2857C258.934 58.2857 257.474 58.0231 256.121 57.4979C254.768 56.9727 253.602 56.225 252.619 55.2548C251.635 54.2845 250.865 53.1363 250.318 51.81C249.766 50.4837 249.49 49.0105 249.49 47.3816V47.3015C249.49 45.806 249.743 44.3908 250.26 43.0511C250.772 41.7115 251.484 40.5454 252.405 39.5485C253.322 38.5515 254.417 37.7637 255.69 37.1851C256.962 36.6066 258.373 36.3173 259.922 36.3173C261.68 36.3173 263.202 36.6333 264.489 37.2608C265.775 37.8928 266.843 38.7384 267.697 39.7977C268.552 40.8614 269.179 42.0808 269.589 43.4605C269.994 44.8358 270.199 46.2734 270.199 47.7688C270.199 48.0047 270.19 48.2539 270.181 48.5165C270.167 48.7791 270.15 49.055 270.123 49.3443H255.44C255.73 50.7107 256.326 51.7388 257.229 52.4331C258.133 53.1274 259.255 53.4745 260.594 53.4745C261.591 53.4745 262.486 53.3054 263.269 52.9627C264.057 52.62 264.871 52.0725 265.708 51.3115L269.131 54.3424C268.134 55.5752 266.927 56.541 265.508 57.2353C264.092 57.9296 262.423 58.2768 260.51 58.2768V58.2857ZM264.368 45.6102C264.186 44.2706 263.714 43.1891 262.953 42.3612C262.192 41.5334 261.182 41.1195 259.922 41.1195C258.663 41.1195 257.643 41.5245 256.873 42.339C256.099 43.1534 255.596 44.2439 255.36 45.6058H264.373L264.368 45.6102Z" fill="#232323"/>
<path d="M272.909 36.7134H278.891V40.9637C279.496 39.5217 280.32 38.3645 281.37 37.5011C282.42 36.6332 283.836 36.2416 285.62 36.3217V42.5793H285.304C283.31 42.5793 281.744 43.1846 280.6 44.3908C279.461 45.5969 278.886 47.475 278.886 50.0208V57.8139H272.905V36.7179L272.909 36.7134Z" fill="#232323"/>
<path d="M289.871 35.1379C288.215 36.4063 284.801 37.6658 284.801 37.6658C284.329 35.1735 281.632 32.7078 282.999 29.9796C283.448 29.0806 284.485 28.5598 285.38 28.7245C286.461 28.9292 287.076 29.9707 287.32 31.0433C287.476 30.8964 287.632 30.7718 287.788 30.6694C288.486 32.1737 289.337 33.6558 289.866 35.1379H289.871Z" fill="#F16A86"/>
<path d="M291.419 21.5989C293.159 21.9238 294.147 23.5973 294.535 25.3286C298.874 21.2918 303.601 27.1088 299.31 31.3325C297.063 33.5445 290.489 35.9656 290.489 35.9656C289.728 31.9601 285.397 28.0034 287.596 23.6151C288.321 22.1686 289.99 21.3319 291.419 21.5989Z" fill="#F16A86"/>
</svg>
