<svg width="173" height="121" viewBox="0 0 173 121" fill="none" xmlns="http://www.w3.org/2000/svg">
<path d="M64.0429 0.199712C73.4652 -1.24667 81.462 5.37134 86.5451 13.3213C101.321 -14.5139 135.748 6.18819 121.544 34.8974C114.115 49.9075 85.0987 73.6272 85.0987 73.6272C74.0583 54.9594 44.9693 42.8316 48.2575 17.036C49.3397 8.53983 56.3063 1.39116 64.0429 0.199712Z" fill="#DE4765"/>
<mask id="mask0_546_9810" style="mask-type:alpha" maskUnits="userSpaceOnUse" x="48" y="0" width="77" height="74">
<path d="M64.0429 0.199712C73.4652 -1.24667 81.462 5.37134 86.5451 13.3213C101.321 -14.5139 135.748 6.18819 121.544 34.8974C114.115 49.9075 85.0987 73.6272 85.0987 73.6272C74.0583 54.9594 44.9693 42.8316 48.2575 17.036C49.3397 8.53983 56.3063 1.39116 64.0429 0.199712Z" fill="#DE4765"/>
</mask>
<g mask="url(#mask0_546_9810)">
<g filter="url(#filter0_f_546_9810)">
<rect x="62" y="-62.4177" width="4.65376" height="121.411" transform="rotate(-48.7785 62 -62.4177)" fill="white" fill-opacity="0.74"/>
</g>
<g filter="url(#filter1_f_546_9810)">
<rect x="81" y="-81.4177" width="8.75122" height="121.411" transform="rotate(-48.7785 81 -81.4177)" fill="white"/>
</g>
</g>
<path d="M79.1377 22.2119C79.0612 22.9098 78.555 24.0199 78.2742 24.7056C76.9514 27.9136 73.3359 33.7663 74.1185 37.1009C74.8757 40.317 78.8145 39.6232 81.0136 38.1457C84.1103 36.0642 86.2753 32.1175 86.8878 28.6116C87.0665 28.3259 88.4064 29.2034 88.5553 29.3748C89.1295 30.0237 87.9597 32.9746 87.8662 33.1745C87.5344 33.8765 87.1005 34.7908 86.7177 35.452C86.6326 35.5989 86.5348 35.8111 86.488 35.8846C86.2753 36.2275 85.8372 36.7213 85.5693 37.0764C82.9107 40.615 78.606 43.2638 73.8292 41.9292C69.4437 40.7048 69.2141 36.4275 70.1797 32.844C71.3069 28.6401 74.1015 24.7628 75.25 20.6487C75.3265 20.3712 75.4244 19.3345 75.4712 19.2814C75.5094 19.2365 79.2143 21.5262 79.1377 22.2078V22.2119Z" fill="white"/>
<path d="M103.158 15.5009C104.278 14.9135 106.055 14.326 107.319 14.2846C109.446 14.2143 111.845 15.0955 112.713 17.1474C112.088 16.9116 111.524 16.4731 110.886 16.2621C106.566 14.8473 102.965 18.7524 100.825 21.9296C99.3193 24.1593 98.1713 26.5918 97.0479 29.0243C100.48 28.1018 104.088 28.168 107.602 27.7046C107.463 29.0781 106.574 30.8735 105.306 31.5354C103.315 32.5696 98.6075 31.705 96.2085 31.9904C96.0851 32.007 95.9657 31.9904 95.8793 32.1062C94.365 35.7839 93.0442 39.5567 91.3983 43.1806C89.452 47.4705 84.5182 56.4641 77.6876 56.2779C75.1734 56.2076 72.758 53.6883 71.0997 51.9094C69.8735 50.5939 68.7254 49.146 67.7132 47.6732C69.2233 48.5461 70.4249 49.9237 71.828 50.9662C73.548 52.2445 76.017 53.9902 78.2431 53.3697C83.4607 51.9218 86.9254 43.0151 88.8224 38.4853C89.9951 35.6888 91.0649 32.8095 92.2664 30.0171C92.3158 29.9013 92.3364 29.7813 92.3776 29.6862C94.5584 24.6847 98.0644 18.1774 103.154 15.4967L103.158 15.5009Z" fill="white"/>
<path d="M21.8334 101.86L21.3534 102.424C21.0534 102.076 20.3694 101.644 19.4334 101.644C18.3654 101.644 17.7534 102.184 17.7534 103C17.7534 103.828 18.4974 104.2 19.4094 104.512C20.6574 104.944 22.1574 105.304 22.1574 106.924C22.1574 108.268 21.0414 109.12 19.4694 109.12C18.0294 109.12 17.0094 108.46 16.6734 108.112L17.1414 107.536C17.3814 107.776 18.2094 108.4 19.4574 108.4C20.6334 108.4 21.4134 107.812 21.4134 106.948C21.4134 105.952 20.4414 105.628 19.4094 105.28C18.2334 104.884 17.0214 104.44 17.0214 103.036C17.0214 101.752 17.9574 100.924 19.4334 100.924C20.5014 100.924 21.3894 101.332 21.8334 101.86ZM27.7747 107.836L28.1467 108.424C27.7507 108.688 27.0787 109.108 25.9987 109.108C24.2107 109.108 23.1307 107.788 23.1307 106.18C23.1307 104.572 24.2947 103.252 25.9987 103.252C27.8107 103.252 28.6747 104.536 28.6747 106.156C28.6747 106.252 28.6627 106.396 28.6507 106.516H23.9107C24.0547 107.632 24.8827 108.424 25.9987 108.424C26.9347 108.424 27.4867 108.088 27.7747 107.836ZM27.9187 105.856C27.9187 104.74 27.2707 103.936 25.9987 103.936C24.8227 103.936 24.0307 104.764 23.8987 105.856H27.9187ZM29.3111 103.36H30.4391L30.5831 101.836H31.1471V103.36H32.9591V104.008H31.1471V107.404C31.1471 108.16 31.3991 108.412 31.8911 108.412C32.1791 108.412 32.5391 108.328 32.9831 108.22V108.904C32.5151 109.048 32.1191 109.108 31.7951 109.108C30.7751 109.108 30.4391 108.472 30.4391 107.572V104.008H29.3111V103.36ZM33.6822 103.36H34.8102L34.9542 101.836H35.5182V103.36H37.3302V104.008H35.5182V107.404C35.5182 108.16 35.7702 108.412 36.2622 108.412C36.5502 108.412 36.9102 108.328 37.3542 108.22V108.904C36.8862 109.048 36.4902 109.108 36.1662 109.108C35.1462 109.108 34.8102 108.472 34.8102 107.572V104.008H33.6822V103.36ZM38.7613 109V103.36H39.4813V109H38.7613ZM38.5333 101.776C38.5333 101.452 38.7973 101.188 39.1213 101.188C39.4453 101.188 39.7213 101.452 39.7213 101.776C39.7213 102.1 39.4453 102.376 39.1213 102.376C38.7973 102.376 38.5333 102.1 38.5333 101.776ZM41.9886 106.18V109H41.2926V103.36H41.9286L41.9526 104.548C42.3966 103.792 43.1286 103.252 44.0166 103.252C45.6486 103.252 46.2486 104.344 46.2486 105.856V109H45.5406V105.976C45.5406 104.752 45.2046 103.936 44.0166 103.936C42.8526 103.936 41.9886 104.992 41.9886 106.18ZM53.1937 109.18C53.1937 111.004 52.0057 112 50.3497 112C49.0177 112 48.0937 111.292 47.7937 110.956L48.2497 110.416C48.4777 110.68 49.2817 111.292 50.3137 111.292C51.5497 111.292 52.4857 110.596 52.4857 109.18V107.896C52.0177 108.568 51.2497 109 50.3497 109C48.7657 109 47.4937 107.716 47.4937 106.12C47.4937 104.536 48.7657 103.252 50.3497 103.252C51.2857 103.252 52.0657 103.708 52.5337 104.404L52.5457 103.36H53.1937V109.18ZM48.2137 106.12C48.2137 107.308 49.1617 108.28 50.3497 108.28C51.5257 108.28 52.4857 107.332 52.4857 106.12C52.4857 104.932 51.5257 103.972 50.3497 103.972C49.1617 103.972 48.2137 104.932 48.2137 106.12ZM57.2721 103.36H58.4001L58.5441 101.836H59.1081V103.36H60.9201V104.008H59.1081V107.404C59.1081 108.16 59.3601 108.412 59.8521 108.412C60.1401 108.412 60.5001 108.328 60.9441 108.22V108.904C60.4761 109.048 60.0801 109.108 59.7561 109.108C58.7361 109.108 58.4001 108.472 58.4001 107.572V104.008H57.2721V103.36ZM63.1058 106.18V109H62.4098V100.36H63.1058V104.5C63.5498 103.768 64.2698 103.252 65.1338 103.252C66.7658 103.252 67.3658 104.344 67.3658 105.856V109H66.6578V105.976C66.6578 104.752 66.3218 103.936 65.1338 103.936C63.9698 103.936 63.1058 105.004 63.1058 106.18ZM69.0074 109V103.36H69.7274V109H69.0074ZM68.7794 101.776C68.7794 101.452 69.0434 101.188 69.3674 101.188C69.6914 101.188 69.9674 101.452 69.9674 101.776C69.9674 102.1 69.6914 102.376 69.3674 102.376C69.0434 102.376 68.7794 102.1 68.7794 101.776ZM72.2347 106.18V109H71.5387V103.36H72.1747L72.1987 104.548C72.6427 103.792 73.3747 103.252 74.2627 103.252C75.8947 103.252 76.4947 104.344 76.4947 105.856V109H75.7867V105.976C75.7867 104.752 75.4507 103.936 74.2627 103.936C73.0987 103.936 72.2347 104.992 72.2347 106.18ZM83.4398 109.18C83.4398 111.004 82.2518 112 80.5958 112C79.2638 112 78.3398 111.292 78.0398 110.956L78.4958 110.416C78.7238 110.68 79.5278 111.292 80.5598 111.292C81.7958 111.292 82.7318 110.596 82.7318 109.18V107.896C82.2638 108.568 81.4958 109 80.5958 109C79.0118 109 77.7398 107.716 77.7398 106.12C77.7398 104.536 79.0118 103.252 80.5958 103.252C81.5318 103.252 82.3118 103.708 82.7798 104.404L82.7918 103.36H83.4398V109.18ZM78.4598 106.12C78.4598 107.308 79.4078 108.28 80.5958 108.28C81.7718 108.28 82.7318 107.332 82.7318 106.12C82.7318 104.932 81.7718 103.972 80.5958 103.972C79.4078 103.972 78.4598 104.932 78.4598 106.12ZM88.6342 103.924L88.1782 104.476C88.0342 104.344 87.5422 103.936 86.8102 103.936C86.1022 103.936 85.6222 104.248 85.6222 104.8C85.6222 105.256 86.0302 105.532 86.9062 105.772C87.7822 106.012 88.9462 106.252 88.9462 107.428C88.9462 108.448 88.1182 109.12 86.8342 109.12C85.8142 109.12 85.0582 108.664 84.7942 108.34L85.2502 107.788C85.4062 107.944 85.9462 108.436 86.8582 108.436C87.7222 108.436 88.2262 108.04 88.2262 107.488C88.2262 106.948 87.7342 106.684 86.8102 106.456C85.5502 106.144 84.8902 105.7 84.8902 104.836C84.8902 103.768 85.7542 103.252 86.8222 103.252C87.8062 103.252 88.4302 103.72 88.6342 103.924ZM93.3355 109V100.36H94.0435L94.0555 104.332C94.5115 103.672 95.2555 103.252 96.1795 103.252C97.8115 103.252 99.0115 104.572 99.0115 106.18C99.0115 107.788 97.8115 109.108 96.1795 109.108C95.2315 109.108 94.4755 108.676 94.0075 107.98L93.9835 109H93.3355ZM98.2915 106.18C98.2915 104.944 97.3795 103.936 96.1435 103.936C94.8355 103.936 93.9835 104.92 93.9835 106.18C93.9835 107.428 94.7995 108.424 96.1435 108.424C97.3795 108.424 98.2915 107.416 98.2915 106.18ZM104.638 107.836L105.01 108.424C104.614 108.688 103.942 109.108 102.862 109.108C101.074 109.108 99.994 107.788 99.994 106.18C99.994 104.572 101.158 103.252 102.862 103.252C104.674 103.252 105.538 104.536 105.538 106.156C105.538 106.252 105.526 106.396 105.514 106.516H100.774C100.918 107.632 101.746 108.424 102.862 108.424C103.798 108.424 104.35 108.088 104.638 107.836ZM104.782 105.856C104.782 104.74 104.134 103.936 102.862 103.936C101.686 103.936 100.894 104.764 100.762 105.856H104.782ZM107.172 104.764L106.704 104.248C107.184 103.756 108 103.252 109.068 103.252C110.424 103.252 111.276 104.116 111.276 105.436V109H110.628L110.604 107.992C110.148 108.664 109.416 109.108 108.48 109.108C107.376 109.108 106.56 108.364 106.56 107.38C106.56 106.36 107.424 105.736 108.804 105.736H110.568V105.568C110.568 104.512 110.016 103.936 109.092 103.936C108.204 103.936 107.544 104.38 107.172 104.764ZM110.568 106.576V106.384H108.888C107.88 106.372 107.316 106.756 107.316 107.368C107.316 107.932 107.796 108.424 108.6 108.424C109.68 108.424 110.568 107.632 110.568 106.576ZM117.057 106.18V103.36H117.765V109H117.117L117.093 107.836C116.661 108.58 115.941 109.108 115.029 109.108C113.385 109.108 112.797 108.016 112.797 106.492V103.36H113.493V106.324C113.493 107.608 113.829 108.424 115.029 108.424C116.193 108.424 117.057 107.368 117.057 106.18ZM118.842 103.36H119.97L120.114 101.836H120.678V103.36H122.49V104.008H120.678V107.404C120.678 108.16 120.93 108.412 121.422 108.412C121.71 108.412 122.07 108.328 122.514 108.22V108.904C122.046 109.048 121.65 109.108 121.326 109.108C120.306 109.108 119.97 108.472 119.97 107.572V104.008H118.842V103.36ZM123.921 109V103.36H124.641V109H123.921ZM123.693 101.776C123.693 101.452 123.957 101.188 124.281 101.188C124.605 101.188 124.881 101.452 124.881 101.776C124.881 102.1 124.605 102.376 124.281 102.376C123.957 102.376 123.693 102.1 123.693 101.776ZM127.065 104.008H125.841V103.36H127.065V102.34C127.065 100.96 127.797 100.3 128.973 100.3C129.189 100.3 129.417 100.324 129.669 100.372V101.056C129.441 101.02 129.201 100.984 128.949 100.984C128.337 100.984 127.761 101.224 127.761 102.316V103.36H129.669V104.008H127.761V109H127.065V104.008ZM134.787 106.18V103.36H135.495V109H134.847L134.823 107.836C134.391 108.58 133.671 109.108 132.759 109.108C131.115 109.108 130.527 108.016 130.527 106.492V103.36H131.223V106.324C131.223 107.608 131.559 108.424 132.759 108.424C133.923 108.424 134.787 107.368 134.787 106.18ZM137.977 100.36V109H137.281V100.36H137.977ZM140.473 100.36V109H139.777V100.36H140.473ZM141.433 103.36H142.213L144.133 108.064H144.157L146.077 103.36H146.857L143.389 111.76H142.633L143.761 109.012L141.433 103.36ZM147.504 108.472C147.504 108.112 147.804 107.836 148.14 107.836C148.5 107.836 148.788 108.112 148.788 108.472C148.788 108.82 148.5 109.108 148.14 109.108C147.804 109.108 147.504 108.82 147.504 108.472ZM149.977 108.472C149.977 108.112 150.277 107.836 150.613 107.836C150.973 107.836 151.261 108.112 151.261 108.472C151.261 108.82 150.973 109.108 150.613 109.108C150.277 109.108 149.977 108.82 149.977 108.472ZM152.449 108.472C152.449 108.112 152.749 107.836 153.085 107.836C153.445 107.836 153.733 108.112 153.733 108.472C153.733 108.82 153.445 109.108 153.085 109.108C152.749 109.108 152.449 108.82 152.449 108.472ZM154.922 108.472C154.922 108.112 155.222 107.836 155.558 107.836C155.918 107.836 156.206 108.112 156.206 108.472C156.206 108.82 155.918 109.108 155.558 109.108C155.222 109.108 154.922 108.82 154.922 108.472Z" fill="#191919"/>
<defs>
<filter id="filter0_f_546_9810" x="49.7" y="-78.2182" width="118.988" height="108.107" filterUnits="userSpaceOnUse" color-interpolation-filters="sRGB">
<feFlood flood-opacity="0" result="BackgroundImageFix"/>
<feBlend mode="normal" in="SourceGraphic" in2="BackgroundImageFix" result="shape"/>
<feGaussianBlur stdDeviation="6.15" result="effect1_foregroundBlur_546_9810"/>
</filter>
<filter id="filter1_f_546_9810" x="68.7" y="-100.3" width="121.688" height="111.189" filterUnits="userSpaceOnUse" color-interpolation-filters="sRGB">
<feFlood flood-opacity="0" result="BackgroundImageFix"/>
<feBlend mode="normal" in="SourceGraphic" in2="BackgroundImageFix" result="shape"/>
<feGaussianBlur stdDeviation="6.15" result="effect1_foregroundBlur_546_9810"/>
</filter>
</defs>
</svg>
