<svg width="173" height="121" viewBox="0 0 173 121" fill="none" xmlns="http://www.w3.org/2000/svg">
<path d="M64.0429 0.199712C73.4652 -1.24667 81.462 5.37134 86.5451 13.3213C101.321 -14.5139 135.748 6.18819 121.544 34.8974C114.115 49.9075 85.0987 73.6272 85.0987 73.6272C74.0583 54.9594 44.9693 42.8316 48.2575 17.036C49.3397 8.53983 56.3063 1.39116 64.0429 0.199712Z" fill="#DE4765"/>
<mask id="mask0_546_9809" style="mask-type:alpha" maskUnits="userSpaceOnUse" x="48" y="0" width="77" height="74">
<path d="M64.0429 0.199712C73.4652 -1.24667 81.462 5.37134 86.5451 13.3213C101.321 -14.5139 135.748 6.18819 121.544 34.8974C114.115 49.9075 85.0987 73.6272 85.0987 73.6272C74.0583 54.9594 44.9693 42.8316 48.2575 17.036C49.3397 8.53983 56.3063 1.39116 64.0429 0.199712Z" fill="#DE4765"/>
</mask>
<g mask="url(#mask0_546_9809)">
<g filter="url(#filter0_f_546_9809)">
<rect x="-28" y="47.5823" width="4.65376" height="121.411" transform="rotate(-48.7785 -28 47.5823)" fill="white" fill-opacity="0.74"/>
</g>
<g filter="url(#filter1_f_546_9809)">
<rect x="-9" y="28.5823" width="8.75122" height="121.411" transform="rotate(-48.7785 -9 28.5823)" fill="white"/>
</g>
</g>
<path d="M79.1377 22.2119C79.0612 22.9098 78.555 24.0199 78.2742 24.7056C76.9514 27.9136 73.3359 33.7663 74.1185 37.1009C74.8757 40.317 78.8145 39.6232 81.0136 38.1457C84.1103 36.0642 86.2753 32.1175 86.8878 28.6116C87.0665 28.3259 88.4064 29.2034 88.5553 29.3748C89.1295 30.0237 87.9597 32.9746 87.8662 33.1745C87.5344 33.8765 87.1005 34.7908 86.7177 35.452C86.6326 35.5989 86.5348 35.8111 86.488 35.8846C86.2753 36.2275 85.8372 36.7213 85.5693 37.0764C82.9107 40.615 78.606 43.2638 73.8292 41.9292C69.4437 40.7048 69.2141 36.4275 70.1797 32.844C71.3069 28.6401 74.1015 24.7628 75.25 20.6487C75.3265 20.3712 75.4244 19.3345 75.4712 19.2814C75.5094 19.2365 79.2143 21.5262 79.1377 22.2078V22.2119Z" fill="white"/>
<path d="M103.158 15.5009C104.278 14.9135 106.055 14.326 107.319 14.2846C109.446 14.2143 111.845 15.0955 112.713 17.1474C112.088 16.9116 111.524 16.4731 110.886 16.2621C106.566 14.8473 102.965 18.7524 100.825 21.9296C99.3193 24.1593 98.1713 26.5918 97.0479 29.0243C100.48 28.1018 104.088 28.168 107.602 27.7046C107.463 29.0781 106.574 30.8735 105.306 31.5354C103.315 32.5696 98.6075 31.705 96.2085 31.9904C96.0851 32.007 95.9657 31.9904 95.8793 32.1062C94.365 35.7839 93.0442 39.5567 91.3983 43.1806C89.452 47.4705 84.5182 56.4641 77.6876 56.2779C75.1734 56.2076 72.758 53.6883 71.0997 51.9094C69.8735 50.5939 68.7254 49.146 67.7132 47.6732C69.2233 48.5461 70.4249 49.9237 71.828 50.9662C73.548 52.2445 76.017 53.9902 78.2431 53.3697C83.4607 51.9218 86.9254 43.0151 88.8224 38.4853C89.9951 35.6888 91.0649 32.8095 92.2664 30.0171C92.3158 29.9013 92.3364 29.7813 92.3776 29.6862C94.5584 24.6847 98.0644 18.1774 103.154 15.4967L103.158 15.5009Z" fill="white"/>
<path d="M36.8905 105.112V105.412C36.8425 107.404 35.4505 109.168 32.9905 109.168C30.7585 109.168 28.9225 107.332 28.9225 105.076C28.9225 102.796 30.7585 100.948 32.9905 100.948C34.4185 100.948 35.6785 101.692 36.4105 102.844L35.8105 103.24C35.2345 102.34 34.2145 101.668 32.9905 101.668C31.1545 101.668 29.6425 103.192 29.6425 105.076C29.6425 106.924 31.1545 108.448 32.9905 108.448C34.7305 108.448 35.9545 107.356 36.1345 105.796H32.9905V105.112H36.8905ZM42.4739 107.836L42.8459 108.424C42.4499 108.688 41.7779 109.108 40.6979 109.108C38.9099 109.108 37.8299 107.788 37.8299 106.18C37.8299 104.572 38.9939 103.252 40.6979 103.252C42.5099 103.252 43.3739 104.536 43.3739 106.156C43.3739 106.252 43.3619 106.396 43.3499 106.516H38.6099C38.7539 107.632 39.5819 108.424 40.6979 108.424C41.6339 108.424 42.1859 108.088 42.4739 107.836ZM42.6179 105.856C42.6179 104.74 41.9699 103.936 40.6979 103.936C39.5219 103.936 38.7299 104.764 38.5979 105.856H42.6179ZM44.0104 103.36H45.1384L45.2824 101.836H45.8464V103.36H47.6584V104.008H45.8464V107.404C45.8464 108.16 46.0984 108.412 46.5904 108.412C46.8784 108.412 47.2384 108.328 47.6824 108.22V108.904C47.2144 109.048 46.8184 109.108 46.4944 109.108C45.4744 109.108 45.1384 108.472 45.1384 107.572V104.008H44.0104V103.36ZM48.3815 103.36H49.5095L49.6535 101.836H50.2175V103.36H52.0295V104.008H50.2175V107.404C50.2175 108.16 50.4695 108.412 50.9615 108.412C51.2495 108.412 51.6095 108.328 52.0535 108.22V108.904C51.5855 109.048 51.1895 109.108 50.8655 109.108C49.8455 109.108 49.5095 108.472 49.5095 107.572V104.008H48.3815V103.36ZM53.4605 109V103.36H54.1805V109H53.4605ZM53.2325 101.776C53.2325 101.452 53.4965 101.188 53.8205 101.188C54.1445 101.188 54.4205 101.452 54.4205 101.776C54.4205 102.1 54.1445 102.376 53.8205 102.376C53.4965 102.376 53.2325 102.1 53.2325 101.776ZM56.6878 106.18V109H55.9918V103.36H56.6278L56.6518 104.548C57.0958 103.792 57.8278 103.252 58.7158 103.252C60.3478 103.252 60.9478 104.344 60.9478 105.856V109H60.2398V105.976C60.2398 104.752 59.9038 103.936 58.7158 103.936C57.5518 103.936 56.6878 104.992 56.6878 106.18ZM67.8929 109.18C67.8929 111.004 66.7049 112 65.0489 112C63.7169 112 62.7929 111.292 62.4929 110.956L62.9489 110.416C63.1769 110.68 63.9809 111.292 65.0129 111.292C66.2489 111.292 67.1849 110.596 67.1849 109.18V107.896C66.7169 108.568 65.9489 109 65.0489 109C63.4649 109 62.1929 107.716 62.1929 106.12C62.1929 104.536 63.4649 103.252 65.0489 103.252C65.9849 103.252 66.7649 103.708 67.2329 104.404L67.2449 103.36H67.8929V109.18ZM62.9129 106.12C62.9129 107.308 63.8609 108.28 65.0489 108.28C66.2249 108.28 67.1849 107.332 67.1849 106.12C67.1849 104.932 66.2249 103.972 65.0489 103.972C63.8609 103.972 62.9129 104.932 62.9129 106.12ZM71.9713 103.36H73.0993L73.2433 101.836H73.8073V103.36H75.6193V104.008H73.8073V107.404C73.8073 108.16 74.0593 108.412 74.5513 108.412C74.8393 108.412 75.1993 108.328 75.6433 108.22V108.904C75.1753 109.048 74.7793 109.108 74.4553 109.108C73.4353 109.108 73.0993 108.472 73.0993 107.572V104.008H71.9713V103.36ZM77.805 106.18V109H77.109V100.36H77.805V104.5C78.249 103.768 78.969 103.252 79.833 103.252C81.465 103.252 82.065 104.344 82.065 105.856V109H81.357V105.976C81.357 104.752 81.021 103.936 79.833 103.936C78.669 103.936 77.805 105.004 77.805 106.18ZM83.7066 109V103.36H84.4266V109H83.7066ZM83.4786 101.776C83.4786 101.452 83.7426 101.188 84.0666 101.188C84.3906 101.188 84.6666 101.452 84.6666 101.776C84.6666 102.1 84.3906 102.376 84.0666 102.376C83.7426 102.376 83.4786 102.1 83.4786 101.776ZM86.9339 106.18V109H86.2379V103.36H86.8739L86.8979 104.548C87.3419 103.792 88.0739 103.252 88.9619 103.252C90.5939 103.252 91.1939 104.344 91.1939 105.856V109H90.4859V105.976C90.4859 104.752 90.1499 103.936 88.9619 103.936C87.7979 103.936 86.9339 104.992 86.9339 106.18ZM98.139 109.18C98.139 111.004 96.951 112 95.295 112C93.963 112 93.039 111.292 92.739 110.956L93.195 110.416C93.423 110.68 94.227 111.292 95.259 111.292C96.495 111.292 97.431 110.596 97.431 109.18V107.896C96.963 108.568 96.195 109 95.295 109C93.711 109 92.439 107.716 92.439 106.12C92.439 104.536 93.711 103.252 95.295 103.252C96.231 103.252 97.011 103.708 97.479 104.404L97.491 103.36H98.139V109.18ZM93.159 106.12C93.159 107.308 94.107 108.28 95.295 108.28C96.471 108.28 97.431 107.332 97.431 106.12C97.431 104.932 96.471 103.972 95.295 103.972C94.107 103.972 93.159 104.932 93.159 106.12ZM103.333 103.924L102.877 104.476C102.733 104.344 102.241 103.936 101.509 103.936C100.801 103.936 100.321 104.248 100.321 104.8C100.321 105.256 100.729 105.532 101.605 105.772C102.481 106.012 103.645 106.252 103.645 107.428C103.645 108.448 102.817 109.12 101.533 109.12C100.513 109.12 99.7574 108.664 99.4934 108.34L99.9494 107.788C100.105 107.944 100.645 108.436 101.557 108.436C102.421 108.436 102.925 108.04 102.925 107.488C102.925 106.948 102.433 106.684 101.509 106.456C100.249 106.144 99.5894 105.7 99.5894 104.836C99.5894 103.768 100.453 103.252 101.521 103.252C102.505 103.252 103.129 103.72 103.333 103.924ZM108.731 106.18V109H108.035V103.36H108.659L108.683 104.512C109.031 103.804 109.595 103.252 110.363 103.252C110.543 103.252 110.747 103.288 110.951 103.36V104.08C110.759 104.02 110.567 103.984 110.399 103.984C109.331 103.984 108.731 105.1 108.731 106.18ZM116.126 107.836L116.498 108.424C116.102 108.688 115.43 109.108 114.35 109.108C112.562 109.108 111.482 107.788 111.482 106.18C111.482 104.572 112.646 103.252 114.35 103.252C116.162 103.252 117.026 104.536 117.026 106.156C117.026 106.252 117.014 106.396 117.002 106.516H112.262C112.406 107.632 113.234 108.424 114.35 108.424C115.286 108.424 115.838 108.088 116.126 107.836ZM116.27 105.856C116.27 104.74 115.622 103.936 114.35 103.936C113.174 103.936 112.382 104.764 112.25 105.856H116.27ZM118.661 104.764L118.193 104.248C118.673 103.756 119.489 103.252 120.557 103.252C121.913 103.252 122.765 104.116 122.765 105.436V109H122.117L122.093 107.992C121.637 108.664 120.905 109.108 119.969 109.108C118.865 109.108 118.049 108.364 118.049 107.38C118.049 106.36 118.913 105.736 120.293 105.736H122.057V105.568C122.057 104.512 121.505 103.936 120.581 103.936C119.693 103.936 119.033 104.38 118.661 104.764ZM122.057 106.576V106.384H120.377C119.369 106.372 118.805 106.756 118.805 107.368C118.805 107.932 119.285 108.424 120.089 108.424C121.169 108.424 122.057 107.632 122.057 106.576ZM129.026 109L128.99 107.98C128.534 108.676 127.778 109.108 126.83 109.108C125.186 109.108 123.986 107.788 123.986 106.18C123.986 104.572 125.186 103.252 126.83 103.252C127.754 103.252 128.486 103.672 128.954 104.332V100.36H129.662V109H129.026ZM124.706 106.18C124.706 107.416 125.63 108.424 126.854 108.424C128.198 108.424 129.014 107.428 129.014 106.18C129.014 104.932 128.174 103.936 126.854 103.936C125.63 103.936 124.706 104.944 124.706 106.18ZM130.621 103.36H131.401L133.321 108.064H133.345L135.265 103.36H136.045L132.577 111.76H131.821L132.949 109.012L130.621 103.36ZM136.692 108.472C136.692 108.112 136.992 107.836 137.328 107.836C137.688 107.836 137.976 108.112 137.976 108.472C137.976 108.82 137.688 109.108 137.328 109.108C136.992 109.108 136.692 108.82 136.692 108.472ZM139.164 108.472C139.164 108.112 139.464 107.836 139.8 107.836C140.16 107.836 140.448 108.112 140.448 108.472C140.448 108.82 140.16 109.108 139.8 109.108C139.464 109.108 139.164 108.82 139.164 108.472ZM141.637 108.472C141.637 108.112 141.937 107.836 142.273 107.836C142.633 107.836 142.921 108.112 142.921 108.472C142.921 108.82 142.633 109.108 142.273 109.108C141.937 109.108 141.637 108.82 141.637 108.472Z" fill="#191919"/>
<defs>
<filter id="filter0_f_546_9809" x="-40.3" y="31.7818" width="118.988" height="108.107" filterUnits="userSpaceOnUse" color-interpolation-filters="sRGB">
<feFlood flood-opacity="0" result="BackgroundImageFix"/>
<feBlend mode="normal" in="SourceGraphic" in2="BackgroundImageFix" result="shape"/>
<feGaussianBlur stdDeviation="6.15" result="effect1_foregroundBlur_546_9809"/>
</filter>
<filter id="filter1_f_546_9809" x="-21.3" y="9.7" width="121.688" height="111.189" filterUnits="userSpaceOnUse" color-interpolation-filters="sRGB">
<feFlood flood-opacity="0" result="BackgroundImageFix"/>
<feBlend mode="normal" in="SourceGraphic" in2="BackgroundImageFix" result="shape"/>
<feGaussianBlur stdDeviation="6.15" result="effect1_foregroundBlur_546_9809"/>
</filter>
</defs>
</svg>
