<svg width="26" height="26" viewBox="0 0 26 26" fill="none" xmlns="http://www.w3.org/2000/svg">
<path d="M15.0166 4.29138C15.4036 4.29138 15.7835 4.39608 16.1159 4.59439C16.4483 4.79271 16.7209 5.07725 16.9048 5.41787L17.4262 6.38343C17.61 6.72405 17.8826 7.0086 18.215 7.20691C18.5474 7.40523 18.9273 7.50993 19.3144 7.50992H21.4569C22.0259 7.50992 22.5717 7.73598 22.9741 8.13838C23.3765 8.54078 23.6026 9.08654 23.6026 9.65561V19.3112C23.6026 19.8803 23.3765 20.4261 22.9741 20.8285C22.5717 21.2309 22.0259 21.4569 21.4569 21.4569H4.29132C3.72225 21.4569 3.17648 21.2309 2.77409 20.8285C2.37169 20.4261 2.14563 19.8803 2.14563 19.3112V9.65561C2.14563 9.08654 2.37169 8.54078 2.77409 8.13838C3.17648 7.73598 3.72225 7.50992 4.29132 7.50992H6.4338C6.82047 7.50994 7.19997 7.40547 7.53216 7.20756C7.86434 7.00964 8.13688 6.72564 8.32093 6.38558L8.84556 5.41572C9.02961 5.07566 9.30215 4.79166 9.63433 4.59375C9.96652 4.39583 10.346 4.29136 10.7327 4.29138H15.0166Z" stroke="white" stroke-width="2.14569" stroke-linecap="round" stroke-linejoin="round"/>
<path d="M12.8742 17.1655C14.6517 17.1655 16.0927 15.7245 16.0927 13.947C16.0927 12.1694 14.6517 10.7285 12.8742 10.7285C11.0966 10.7285 9.65564 12.1694 9.65564 13.947C9.65564 15.7245 11.0966 17.1655 12.8742 17.1655Z" stroke="white" stroke-width="2.14569" stroke-linecap="round" stroke-linejoin="round"/>
</svg>
