<svg width="128" height="124" viewBox="0 0 128 124" fill="none" xmlns="http://www.w3.org/2000/svg">
<g filter="url(#filter0_dd_975_10536)">
<path d="M20 48.3999C20 24.0994 39.6995 4.3999 64 4.3999C88.3005 4.3999 108 24.0994 108 48.3999C108 72.7004 88.3005 92.3999 64 92.3999C39.6995 92.3999 20 72.7004 20 48.3999Z" fill="#F96A86" shape-rendering="crispEdges"/>
<path d="M45.6665 43.8166C45.6665 41.7764 46.2854 39.7843 47.4414 38.1033C48.5974 36.4223 50.2361 35.1314 52.1411 34.4013C54.0461 33.6712 56.1278 33.536 58.1112 34.0138C60.0946 34.4916 61.8864 35.5597 63.25 37.0772C63.346 37.1799 63.4622 37.2618 63.5911 37.3178C63.7201 37.3737 63.8592 37.4026 63.9998 37.4026C64.1404 37.4026 64.2795 37.3737 64.4085 37.3178C64.5375 37.2618 64.6536 37.1799 64.7497 37.0772C66.109 35.5499 67.9012 34.4727 69.8878 33.9892C71.8745 33.5056 73.9612 33.6385 75.8704 34.3703C77.7796 35.102 79.4207 36.3979 80.5752 38.0854C81.7297 39.7729 82.3429 41.772 82.3332 43.8166C82.3332 48.0149 79.5832 51.1499 76.8332 53.8999L66.7645 63.6404C66.4229 64.0327 66.0017 64.3479 65.5289 64.5649C65.0561 64.782 64.5426 64.8959 64.0224 64.8992C63.5022 64.9025 62.9872 64.7951 62.5117 64.5841C62.0362 64.373 61.6111 64.0632 61.2645 63.6752L51.1665 53.8999C48.4165 51.1499 45.6665 48.0332 45.6665 43.8166Z" fill="white" stroke="white" stroke-width="3.66667" stroke-linecap="round" stroke-linejoin="round"/>
</g>
<path d="M100.499 2.57942C100.538 2.36914 100.65 2.17921 100.814 2.04254C100.979 1.90587 101.186 1.83105 101.4 1.83105C101.614 1.83105 101.821 1.90587 101.985 2.04254C102.15 2.17921 102.262 2.36914 102.301 2.57942L103.264 7.67425C103.333 8.03647 103.509 8.36965 103.769 8.63031C104.03 8.89096 104.363 9.06699 104.725 9.13542L109.82 10.0988C110.031 10.1381 110.221 10.2497 110.357 10.4143C110.494 10.5788 110.569 10.786 110.569 10.9999C110.569 11.2138 110.494 11.421 110.357 11.5856C110.221 11.7501 110.031 11.8617 109.82 11.901L104.725 12.8644C104.363 12.9328 104.03 13.1089 103.769 13.3695C103.509 13.6302 103.333 13.9634 103.264 14.3256L102.301 19.4204C102.262 19.6307 102.15 19.8206 101.985 19.9573C101.821 20.094 101.614 20.1688 101.4 20.1688C101.186 20.1688 100.979 20.094 100.814 19.9573C100.65 19.8206 100.538 19.6307 100.499 19.4204L99.5353 14.3256C99.4669 13.9634 99.2909 13.6302 99.0302 13.3695C98.7696 13.1089 98.4364 12.9328 98.0742 12.8644L92.9793 11.901C92.769 11.8617 92.5791 11.7501 92.4424 11.5856C92.3058 11.421 92.231 11.2138 92.231 10.9999C92.231 10.786 92.3058 10.5788 92.4424 10.4143C92.5791 10.2497 92.769 10.1381 92.9793 10.0988L98.0742 9.13542C98.4364 9.06699 98.7696 8.89096 99.0302 8.63031C99.2909 8.36965 99.4669 8.03647 99.5353 7.67425L100.499 2.57942Z" fill="#FA889E" stroke="#FA889E" stroke-width="1.83333" stroke-linecap="round" stroke-linejoin="round"/>
<path d="M108.733 1.83325V5.49992V1.83325Z" fill="#FA889E"/>
<path d="M108.733 1.83325V5.49992" stroke="#FA889E" stroke-width="1.83333" stroke-linecap="round" stroke-linejoin="round"/>
<path d="M110.567 3.66675H106.9H110.567Z" fill="#FA889E"/>
<path d="M110.567 3.66675H106.9" stroke="#FA889E" stroke-width="1.83333" stroke-linecap="round" stroke-linejoin="round"/>
<path d="M94.0667 20.1667C95.0793 20.1667 95.9001 19.3459 95.9001 18.3333C95.9001 17.3208 95.0793 16.5 94.0667 16.5C93.0542 16.5 92.2334 17.3208 92.2334 18.3333C92.2334 19.3459 93.0542 20.1667 94.0667 20.1667Z" fill="#FA889E" stroke="#FA889E" stroke-width="1.83333" stroke-linecap="round" stroke-linejoin="round"/>
<g clip-path="url(#clip0_975_10536)">
<path d="M19.2793 85.6634C19.3107 85.4952 19.3999 85.3432 19.5316 85.2339C19.6633 85.1245 19.829 85.0647 20.0001 85.0647C20.1713 85.0647 20.337 85.1245 20.4687 85.2339C20.6003 85.3432 20.6896 85.4952 20.721 85.6634L21.4917 89.7393C21.5465 90.029 21.6873 90.2956 21.8958 90.5041C22.1043 90.7126 22.3709 90.8534 22.6607 90.9082L26.7365 91.6789C26.9048 91.7103 27.0567 91.7996 27.166 91.9313C27.2754 92.0629 27.3352 92.2287 27.3352 92.3998C27.3352 92.5709 27.2754 92.7367 27.166 92.8683C27.0567 93 26.9048 93.0892 26.7365 93.1207L22.6607 93.8914C22.3709 93.9461 22.1043 94.0869 21.8958 94.2955C21.6873 94.504 21.5465 94.7705 21.4917 95.0603L20.721 99.1362C20.6896 99.3044 20.6003 99.4563 20.4687 99.5657C20.337 99.675 20.1713 99.7349 20.0001 99.7349C19.829 99.7349 19.6633 99.675 19.5316 99.5657C19.3999 99.4563 19.3107 99.3044 19.2793 99.1362L18.5085 95.0603C18.4538 94.7705 18.313 94.504 18.1044 94.2955C17.8959 94.0869 17.6294 93.9461 17.3396 93.8914L13.2637 93.1207C13.0955 93.0892 12.9436 93 12.8342 92.8683C12.7249 92.7367 12.665 92.5709 12.665 92.3998C12.665 92.2287 12.7249 92.0629 12.8342 91.9313C12.9436 91.7996 13.0955 91.7103 13.2637 91.6789L17.3396 90.9082C17.6294 90.8534 17.8959 90.7126 18.1044 90.5041C18.313 90.2956 18.4538 90.029 18.5085 89.7393L19.2793 85.6634Z" fill="#FA889E" stroke="#FA889E" stroke-width="1.46667" stroke-linecap="round" stroke-linejoin="round"/>
<path d="M25.8667 85.0664V87.9997V85.0664Z" fill="#FA889E"/>
<path d="M25.8667 85.0664V87.9997" stroke="#FA889E" stroke-width="1.46667" stroke-linecap="round" stroke-linejoin="round"/>
<path d="M27.3337 86.5332H24.4004H27.3337Z" fill="#FA889E"/>
<path d="M27.3337 86.5332H24.4004" stroke="#FA889E" stroke-width="1.46667" stroke-linecap="round" stroke-linejoin="round"/>
<path d="M14.1337 99.7331C14.9437 99.7331 15.6003 99.0765 15.6003 98.2665C15.6003 97.4565 14.9437 96.7998 14.1337 96.7998C13.3236 96.7998 12.667 97.4565 12.667 98.2665C12.667 99.0765 13.3236 99.7331 14.1337 99.7331Z" fill="#FA889E" stroke="#FA889E" stroke-width="1.46667" stroke-linecap="round" stroke-linejoin="round"/>
</g>
<defs>
<filter id="filter0_dd_975_10536" x="0" y="4.3999" width="128" height="128" filterUnits="userSpaceOnUse" color-interpolation-filters="sRGB">
<feFlood flood-opacity="0" result="BackgroundImageFix"/>
<feColorMatrix in="SourceAlpha" type="matrix" values="0 0 0 0 0 0 0 0 0 0 0 0 0 0 0 0 0 0 127 0" result="hardAlpha"/>
<feMorphology radius="6" operator="erode" in="SourceAlpha" result="effect1_dropShadow_975_10536"/>
<feOffset dy="8"/>
<feGaussianBlur stdDeviation="5"/>
<feComposite in2="hardAlpha" operator="out"/>
<feColorMatrix type="matrix" values="0 0 0 0 0 0 0 0 0 0 0 0 0 0 0 0 0 0 0.1 0"/>
<feBlend mode="normal" in2="BackgroundImageFix" result="effect1_dropShadow_975_10536"/>
<feColorMatrix in="SourceAlpha" type="matrix" values="0 0 0 0 0 0 0 0 0 0 0 0 0 0 0 0 0 0 127 0" result="hardAlpha"/>
<feMorphology radius="5" operator="erode" in="SourceAlpha" result="effect2_dropShadow_975_10536"/>
<feOffset dy="20"/>
<feGaussianBlur stdDeviation="12.5"/>
<feComposite in2="hardAlpha" operator="out"/>
<feColorMatrix type="matrix" values="0 0 0 0 0 0 0 0 0 0 0 0 0 0 0 0 0 0 0.1 0"/>
<feBlend mode="normal" in2="effect1_dropShadow_975_10536" result="effect2_dropShadow_975_10536"/>
<feBlend mode="normal" in="SourceGraphic" in2="effect2_dropShadow_975_10536" result="shape"/>
</filter>
<clipPath id="clip0_975_10536">
<rect width="17.6" height="17.6" fill="white" transform="translate(11.2002 83.5999)"/>
</clipPath>
</defs>
</svg>
