<svg width="189" height="39" viewBox="0 0 189 39" fill="none" xmlns="http://www.w3.org/2000/svg">
<g filter="url(#filter0_dd_977_10041)">
<path d="M0 20C0 9.50659 8.50659 1 19 1H170C180.493 1 189 9.50659 189 20C189 30.4934 180.493 39 170 39H19C8.50659 39 0 30.4934 0 20Z" fill="#F96A86" shape-rendering="crispEdges"/>
<path d="M33.7502 17.075L28.3877 22.4375L25.9502 20" stroke="white" stroke-width="1.21875" stroke-linecap="round" stroke-linejoin="round"/>
<path d="M51.11 16.075L50.375 16.96C50 16.525 49.085 16.03 48.065 16.03C46.835 16.03 46.1 16.63 46.1 17.545C46.1 18.535 46.97 18.955 48.035 19.3C49.58 19.825 51.515 20.245 51.515 22.345C51.515 24.07 50.12 25.15 48.125 25.15C46.325 25.15 44.99 24.325 44.57 23.89L45.305 22.99C45.605 23.29 46.67 24.025 48.11 24.025C49.46 24.025 50.36 23.38 50.36 22.39C50.36 21.28 49.25 20.89 48.035 20.5C46.565 20.02 44.945 19.51 44.945 17.62C44.945 15.955 46.175 14.905 48.065 14.905C49.4 14.905 50.555 15.415 51.11 16.075ZM53.7213 19.915L52.9863 19.12C53.6013 18.475 54.6513 17.815 55.9863 17.815C57.6963 17.815 58.7913 18.895 58.7913 20.545V25H57.8163L57.7563 23.89C57.1713 24.67 56.3163 25.135 55.2213 25.135C53.8413 25.135 52.8213 24.205 52.8213 22.975C52.8213 21.7 53.9013 20.89 55.6263 20.89H57.6963V20.71C57.6963 19.495 57.0663 18.865 56.0163 18.865C55.0263 18.865 54.2163 19.39 53.7213 19.915ZM57.6963 22.015V21.88L55.7913 21.865C54.6363 21.85 54.0213 22.3 54.0213 22.945C54.0213 23.53 54.5013 24.085 55.4463 24.085C56.6913 24.085 57.6963 23.2 57.6963 22.015ZM59.573 17.95H60.788L63.158 23.8H63.188L65.558 17.95H66.788L63.878 25H62.468L59.573 17.95ZM72.8893 23.38L73.4593 24.28C72.8593 24.67 72.0943 25.135 70.7743 25.135C68.4493 25.135 67.1143 23.485 67.1143 21.475C67.1143 19.465 68.6143 17.815 70.7743 17.815C73.0693 17.815 74.2243 19.465 74.2243 21.475C74.2243 21.625 74.2093 21.805 74.1793 21.985H68.3443C68.5543 23.245 69.5443 24.085 70.7743 24.085C71.8093 24.085 72.4393 23.74 72.8893 23.38ZM73.0393 20.98C73.0393 19.63 72.1243 18.865 70.7743 18.865C69.4243 18.865 68.5243 19.75 68.3293 20.98H73.0393ZM81.4102 25L81.3502 23.905C80.7652 24.67 79.8802 25.135 78.7852 25.135C76.7602 25.135 75.1852 23.485 75.1852 21.475C75.1852 19.465 76.7602 17.815 78.7852 17.815C79.8352 17.815 80.6902 18.25 81.2752 18.955L81.2902 14.2H82.3852V25H81.4102ZM76.3102 21.475C76.3102 22.915 77.4502 24.085 78.8452 24.085C80.4502 24.085 81.3952 22.93 81.3952 21.475C81.3952 20.005 80.3902 18.865 78.8452 18.865C77.4502 18.865 76.3102 20.035 76.3102 21.475ZM87.4082 17.95H88.8332L89.0882 16H89.9282V17.95H92.1932V18.94H89.9282V22.81C89.9282 23.74 90.2282 24.04 90.8732 24.04C91.2032 24.04 91.6532 23.95 92.1932 23.83V24.88C91.6082 25.06 91.0982 25.135 90.6782 25.135C89.3582 25.135 88.8332 24.34 88.8332 23.215V18.94H87.4082V17.95ZM93.1592 21.475C93.1592 19.465 94.7642 17.815 96.8192 17.815C98.8742 17.815 100.479 19.465 100.479 21.475C100.479 23.485 98.8742 25.135 96.8192 25.135C94.7642 25.135 93.1592 23.485 93.1592 21.475ZM94.2842 21.475C94.2842 22.915 95.3792 24.085 96.8192 24.085C98.2592 24.085 99.3542 22.915 99.3542 21.475C99.3542 20.035 98.2592 18.865 96.8192 18.865C95.3792 18.865 94.2842 20.035 94.2842 21.475ZM111.93 16.075L111.195 16.96C110.82 16.525 109.905 16.03 108.885 16.03C107.655 16.03 106.92 16.63 106.92 17.545C106.92 18.535 107.79 18.955 108.855 19.3C110.4 19.825 112.335 20.245 112.335 22.345C112.335 24.07 110.94 25.15 108.945 25.15C107.145 25.15 105.81 24.325 105.39 23.89L106.125 22.99C106.425 23.29 107.49 24.025 108.93 24.025C110.28 24.025 111.18 23.38 111.18 22.39C111.18 21.28 110.07 20.89 108.855 20.5C107.385 20.02 105.765 19.51 105.765 17.62C105.765 15.955 106.995 14.905 108.885 14.905C110.22 14.905 111.375 15.415 111.93 16.075ZM119.266 23.38L119.836 24.28C119.236 24.67 118.471 25.135 117.151 25.135C114.826 25.135 113.491 23.485 113.491 21.475C113.491 19.465 114.991 17.815 117.151 17.815C119.446 17.815 120.601 19.465 120.601 21.475C120.601 21.625 120.586 21.805 120.556 21.985H114.721C114.931 23.245 115.921 24.085 117.151 24.085C118.186 24.085 118.816 23.74 119.266 23.38ZM119.416 20.98C119.416 19.63 118.501 18.865 117.151 18.865C115.801 18.865 114.901 19.75 114.706 20.98H119.416ZM123.284 14.2V25H122.189V14.2H123.284ZM130.546 23.38L131.116 24.28C130.516 24.67 129.751 25.135 128.431 25.135C126.106 25.135 124.771 23.485 124.771 21.475C124.771 19.465 126.271 17.815 128.431 17.815C130.726 17.815 131.881 19.465 131.881 21.475C131.881 21.625 131.866 21.805 131.836 21.985H126.001C126.211 23.245 127.201 24.085 128.431 24.085C129.466 24.085 130.096 23.74 130.546 23.38ZM130.696 20.98C130.696 19.63 129.781 18.865 128.431 18.865C127.081 18.865 126.181 19.75 125.986 20.98H130.696ZM138.706 22.765L139.681 23.335C139.036 24.415 137.896 25.135 136.516 25.135C134.506 25.135 132.856 23.485 132.856 21.475C132.856 19.465 134.506 17.815 136.516 17.815C137.896 17.815 139.036 18.535 139.681 19.615L138.706 20.185C138.271 19.45 137.476 18.865 136.516 18.865C135.121 18.865 133.981 20.005 133.981 21.475C133.981 22.945 135.121 24.085 136.516 24.085C137.476 24.085 138.271 23.5 138.706 22.765ZM140.26 17.95H141.685L141.94 16H142.78V17.95H145.045V18.94H142.78V22.81C142.78 23.74 143.08 24.04 143.725 24.04C144.055 24.04 144.505 23.95 145.045 23.83V24.88C144.46 25.06 143.95 25.135 143.53 25.135C142.21 25.135 141.685 24.34 141.685 23.215V18.94H140.26V17.95ZM151.786 23.38L152.356 24.28C151.756 24.67 150.991 25.135 149.671 25.135C147.346 25.135 146.011 23.485 146.011 21.475C146.011 19.465 147.511 17.815 149.671 17.815C151.966 17.815 153.121 19.465 153.121 21.475C153.121 21.625 153.106 21.805 153.076 21.985H147.241C147.451 23.245 148.441 24.085 149.671 24.085C150.706 24.085 151.336 23.74 151.786 23.38ZM151.936 20.98C151.936 19.63 151.021 18.865 149.671 18.865C148.321 18.865 147.421 19.75 147.226 20.98H151.936ZM160.307 25L160.247 23.905C159.662 24.67 158.777 25.135 157.682 25.135C155.657 25.135 154.082 23.485 154.082 21.475C154.082 19.465 155.657 17.815 157.682 17.815C158.732 17.815 159.587 18.25 160.172 18.955L160.187 14.2H161.282V25H160.307ZM155.207 21.475C155.207 22.915 156.347 24.085 157.742 24.085C159.347 24.085 160.292 22.93 160.292 21.475C160.292 20.005 159.287 18.865 157.742 18.865C156.347 18.865 155.207 20.035 155.207 21.475Z" fill="white"/>
</g>
<defs>
<filter id="filter0_dd_977_10041" x="-20" y="0" width="236.7" height="80" filterUnits="userSpaceOnUse" color-interpolation-filters="sRGB">
<feFlood flood-opacity="0" result="BackgroundImageFix"/>
<feColorMatrix in="SourceAlpha" type="matrix" values="0 0 0 0 0 0 0 0 0 0 0 0 0 0 0 0 0 0 127 0" result="hardAlpha"/>
<feMorphology radius="6" operator="erode" in="SourceAlpha" result="effect1_dropShadow_977_10041"/>
<feOffset dy="8"/>
<feGaussianBlur stdDeviation="5"/>
<feComposite in2="hardAlpha" operator="out"/>
<feColorMatrix type="matrix" values="0 0 0 0 0 0 0 0 0 0 0 0 0 0 0 0 0 0 0.1 0"/>
<feBlend mode="normal" in2="BackgroundImageFix" result="effect1_dropShadow_977_10041"/>
<feColorMatrix in="SourceAlpha" type="matrix" values="0 0 0 0 0 0 0 0 0 0 0 0 0 0 0 0 0 0 127 0" result="hardAlpha"/>
<feMorphology radius="5" operator="erode" in="SourceAlpha" result="effect2_dropShadow_977_10041"/>
<feOffset dy="20"/>
<feGaussianBlur stdDeviation="12.5"/>
<feComposite in2="hardAlpha" operator="out"/>
<feColorMatrix type="matrix" values="0 0 0 0 0 0 0 0 0 0 0 0 0 0 0 0 0 0 0.1 0"/>
<feBlend mode="normal" in2="effect1_dropShadow_977_10041" result="effect2_dropShadow_977_10041"/>
<feBlend mode="normal" in="SourceGraphic" in2="effect2_dropShadow_977_10041" result="shape"/>
</filter>
</defs>
</svg>
