<svg width="34" height="34" viewBox="0 0 34 34" fill="none" xmlns="http://www.w3.org/2000/svg">
<path d="M10.7257 30.4797H22.5377C23.4566 30.4797 24.2038 30.2143 24.7791 29.6834C25.3545 29.1526 25.6636 28.4392 25.7065 27.5435L26.5953 9.45237H28.1411C28.4073 9.45237 28.6327 9.35905 28.8174 9.17241C29.0019 8.98578 29.0942 8.7639 29.0942 8.50675C29.0942 8.24962 28.9998 8.02981 28.8109 7.84732C28.622 7.66483 28.3987 7.57359 28.1411 7.57359H5.12234C4.86472 7.57359 4.6393 7.6669 4.44608 7.85354C4.25286 8.04017 4.15625 8.25791 4.15625 8.50675C4.15625 8.7639 4.25286 8.98578 4.44608 9.17241C4.6393 9.35905 4.86472 9.45237 5.12234 9.45237H6.66809L7.55689 27.5558C7.59982 28.4517 7.90683 29.163 8.4779 29.6897C9.04897 30.2164 9.79822 30.4797 10.7257 30.4797ZM10.906 28.601C10.5368 28.601 10.2276 28.4807 9.97856 28.2401C9.72952 27.9996 9.59642 27.6968 9.57925 27.3318L8.67755 9.45237H24.5215L23.6713 27.3318C23.6541 27.7052 23.521 28.01 23.272 28.2464C23.023 28.4828 22.7095 28.601 22.3317 28.601H10.906ZM12.8124 26.4734C13.0529 26.4734 13.2461 26.4049 13.3921 26.2681C13.5381 26.1312 13.6111 25.9549 13.6111 25.7392L13.2117 12.4261C13.2117 12.2104 13.1366 12.0362 12.9863 11.9035C12.836 11.7708 12.645 11.7044 12.4131 11.7044C12.1727 11.7044 11.9773 11.7729 11.827 11.9097C11.6767 12.0466 11.6059 12.2228 11.6145 12.4385L12.0009 25.7392C12.0095 25.9632 12.0868 26.1416 12.2328 26.2744C12.3788 26.407 12.572 26.4734 12.8124 26.4734ZM16.6253 26.4734C16.8743 26.4734 17.0761 26.4049 17.2307 26.2681C17.3853 26.1312 17.4626 25.9549 17.4626 25.7392V12.4385C17.4626 12.2228 17.3853 12.0466 17.2307 11.9097C17.0761 11.7729 16.8743 11.7044 16.6253 11.7044C16.3848 11.7044 16.1873 11.7729 16.0327 11.9097C15.8782 12.0466 15.8009 12.2228 15.8009 12.4385V25.7392C15.8009 25.9549 15.8782 26.1312 16.0327 26.2681C16.1873 26.4049 16.3848 26.4734 16.6253 26.4734ZM20.451 26.4734C20.6829 26.4734 20.8718 26.407 21.0178 26.2744C21.1637 26.1416 21.241 25.9632 21.2496 25.7392L21.6361 12.4385C21.6447 12.2228 21.5759 12.0466 21.43 11.9097C21.284 11.7729 21.0865 11.7044 20.8374 11.7044C20.6056 11.7044 20.4166 11.7708 20.2707 11.9035C20.1247 12.0362 20.0474 12.2146 20.0388 12.4385L19.6523 25.7392C19.6438 25.9549 19.7125 26.1312 19.8585 26.2681C20.0044 26.4049 20.2019 26.4734 20.451 26.4734ZM10.9704 8.45699H13.0185V5.79435C13.0185 5.44596 13.1366 5.16393 13.3728 4.94826C13.6089 4.7326 13.9202 4.62477 14.3066 4.62477H18.9181C19.3046 4.62477 19.6159 4.7326 19.852 4.94826C20.0882 5.16393 20.2063 5.44596 20.2063 5.79435V8.45699H22.2544V5.66992C22.2544 4.77408 21.9688 4.06694 21.3978 3.54852C20.8267 3.03009 20.0474 2.77087 19.0598 2.77087H14.165C13.1774 2.77087 12.3981 3.03009 11.827 3.54852C11.256 4.06694 10.9704 4.77408 10.9704 5.66992V8.45699Z" fill="#DE0101"/>
</svg>
