<svg width="14" height="14" viewBox="0 0 14 14" fill="none" xmlns="http://www.w3.org/2000/svg">
<g clip-path="url(#clip0_1117_14474)">
<path d="M1.16675 1.16675L12.8334 12.8334" stroke="#666263" stroke-width="1.16667" stroke-linecap="round" stroke-linejoin="round"/>
<path d="M2.91659 2.91675C2.76188 2.91675 2.6135 2.97821 2.50411 3.0876C2.39471 3.197 2.33325 3.34537 2.33325 3.50008V7.58341C2.33325 10.5001 4.37492 11.9584 6.80742 12.7984C6.93315 12.8452 7.07118 12.8473 7.19825 12.8042C8.56909 12.3259 9.81158 11.6551 10.6399 10.6401" stroke="#666263" stroke-width="1.16667" stroke-linecap="round" stroke-linejoin="round"/>
<path d="M5.43018 2.13043C5.83062 1.90066 6.20785 1.63263 6.55659 1.3301C6.68017 1.22452 6.83738 1.1665 6.99993 1.1665C7.16247 1.1665 7.31968 1.22452 7.44326 1.3301C8.46409 2.2226 9.91659 2.91677 11.0833 2.91677C11.238 2.91677 11.3863 2.97822 11.4957 3.08762C11.6051 3.19702 11.6666 3.34539 11.6666 3.5001V7.58343C11.667 7.82996 11.6514 8.07625 11.6199 8.32077" stroke="#666263" stroke-width="1.16667" stroke-linecap="round" stroke-linejoin="round"/>
</g>
<defs>
<clipPath id="clip0_1117_14474">
<rect width="14" height="14" fill="white"/>
</clipPath>
</defs>
</svg>
