<svg width="44" height="44" viewBox="0 0 44 44" fill="none" xmlns="http://www.w3.org/2000/svg">
<path d="M43.5944 21.7972C43.5944 26.4003 42.1371 30.8853 39.4315 34.6093C36.7258 38.3333 32.9107 41.1051 28.5329 42.5275C24.1551 43.95 19.4393 43.95 15.0615 42.5275C10.6837 41.1051 6.86853 38.3332 4.16289 34.6093L11.2166 29.4844C12.84 31.7188 15.1291 33.3819 17.7558 34.2354C20.3825 35.0889 23.2119 35.0889 25.8386 34.2354C28.4653 33.3819 30.7544 31.7188 32.3778 29.4844C34.0012 27.25 34.8755 24.5591 34.8755 21.7972H43.5944Z" fill="#DE4765"/>
<path d="M14.9767 1.09457C18.2549 0.0145541 21.7428 -0.271515 25.1532 0.259902C28.5636 0.79132 31.799 2.12503 34.5932 4.15127C37.3874 6.1775 39.6605 8.83833 41.2254 11.9148C42.7903 14.9912 43.6022 18.3952 43.5943 21.8468L34.8755 21.827C34.8802 19.756 34.393 17.7136 33.4541 15.8677C32.5152 14.0219 31.1513 12.4254 29.4748 11.2096C27.7983 9.99389 25.857 9.19367 23.8108 8.87482C21.7645 8.55597 19.6718 8.72761 17.7049 9.37561L14.9767 1.09457Z" fill="#9E3248"/>
<path d="M4.21723 34.6837C2.1836 31.9094 0.835438 28.6932 0.28297 25.298C-0.269498 21.9028 -0.0105857 18.4251 1.03854 15.1492C2.08766 11.8733 3.89721 8.89213 6.31923 6.44954C8.74125 4.00696 11.707 2.17227 14.9739 1.09549L17.7032 9.37617C15.7431 10.0222 13.9636 11.123 12.5104 12.5886C11.0572 14.0542 9.97147 15.8428 9.342 17.8084C8.71252 19.7739 8.55718 21.8606 8.88866 23.8977C9.22014 25.9348 10.029 27.8645 11.2492 29.5291L4.21723 34.6837Z" fill="#FCEDF0"/>
</svg>
