<svg width="29" height="28" viewBox="0 0 29 28" fill="none" xmlns="http://www.w3.org/2000/svg">
<g clip-path="url(#clip0_974_10118)">
<path d="M20.0463 10.5H18.125V4.66667C18.125 4.025 17.5813 3.5 16.9167 3.5H12.0834C11.4188 3.5 10.875 4.025 10.875 4.66667V10.5H8.95377C7.87835 10.5 7.3346 11.76 8.09585 12.495L13.6421 17.85C14.1134 18.305 14.8746 18.305 15.3459 17.85L20.8921 12.495C21.6534 11.76 21.1217 10.5 20.0463 10.5ZM6.04169 22.1667C6.04169 22.8083 6.58544 23.3333 7.25002 23.3333H21.75C22.4146 23.3333 22.9584 22.8083 22.9584 22.1667C22.9584 21.525 22.4146 21 21.75 21H7.25002C6.58544 21 6.04169 21.525 6.04169 22.1667Z" fill="#232021"/>
</g>
<defs>
<clipPath id="clip0_974_10118">
<rect width="29" height="28" fill="white"/>
</clipPath>
</defs>
</svg>
