<svg width="24" height="24" viewBox="0 0 24 24" fill="none" xmlns="http://www.w3.org/2000/svg">
<path d="M15.679 20.5786V18.6187C15.679 17.5791 15.266 16.5821 14.5309 15.847C13.7958 15.1119 12.7988 14.699 11.7593 14.699H5.87962C4.84004 14.699 3.84303 15.1119 3.10794 15.847C2.37284 16.5821 1.95987 17.5791 1.95987 18.6187V20.5786" stroke="#2D2A2B" stroke-width="1.46991" stroke-linecap="round" stroke-linejoin="round"/>
<path d="M15.6791 3.06519C16.5196 3.28309 17.264 3.77394 17.7955 4.46068C18.3269 5.14742 18.6152 5.99117 18.6152 6.85951C18.6152 7.72784 18.3269 8.5716 17.7955 9.25833C17.264 9.94507 16.5196 10.4359 15.6791 10.6538" stroke="#2D2A2B" stroke-width="1.46991" stroke-linecap="round" stroke-linejoin="round"/>
<path d="M21.5587 20.5787V18.6188C21.5581 17.7503 21.269 16.9066 20.7369 16.2202C20.2048 15.5338 19.4598 15.0435 18.6189 14.8264" stroke="#2D2A2B" stroke-width="1.46991" stroke-linecap="round" stroke-linejoin="round"/>
<path d="M8.81943 10.7792C10.9843 10.7792 12.7392 9.02427 12.7392 6.85945C12.7392 4.69463 10.9843 2.9397 8.81943 2.9397C6.65461 2.9397 4.89968 4.69463 4.89968 6.85945C4.89968 9.02427 6.65461 10.7792 8.81943 10.7792Z" stroke="#2D2A2B" stroke-width="1.46991" stroke-linecap="round" stroke-linejoin="round"/>
</svg>
