<svg width="30" height="30" viewBox="0 0 30 30" fill="none" xmlns="http://www.w3.org/2000/svg">
<path fill-rule="evenodd" clip-rule="evenodd" d="M16.5412 19.1377H13.5122C13.656 19.8425 14.2803 20.3741 15.027 20.3741C15.7732 20.3741 16.3975 19.8425 16.5412 19.1377Z" fill="#232021"/>
<path fill-rule="evenodd" clip-rule="evenodd" d="M14.3062 15.9269C14.2458 15.9907 14.1635 16.0235 14.0821 16.0235C14.0054 16.0235 13.9291 15.995 13.8696 15.9387C13.3628 15.4586 13.1298 15.4586 12.6235 15.9387C12.4997 16.0556 12.3044 16.0508 12.1869 15.9269C12.0696 15.803 12.0748 15.6072 12.1987 15.4898C12.9429 14.7849 13.5499 14.7849 14.2944 15.4898C14.4184 15.6072 14.4236 15.803 14.3062 15.9269ZM11.9181 12.1968C11.7303 12.3464 10.5672 13.4299 10.2031 17.5488C10.9456 20.5207 12.8365 22.4339 15.034 22.4339C15.0411 22.4339 15.048 22.4334 15.055 22.4334C17.26 22.4211 19.1384 20.4862 19.8494 17.4993C19.4392 13.384 18.2645 12.3127 18.0748 12.1652C16.8133 11.8396 13.176 11.8584 11.9181 12.1968ZM17.7907 16.0235C17.7147 16.0235 17.6377 15.995 17.5782 15.9387C17.0719 15.4586 16.839 15.4587 16.3327 15.9387C16.2089 16.0556 16.013 16.0508 15.8961 15.9269C15.7788 15.803 15.7839 15.6072 15.9078 15.4898C16.6518 14.7849 17.2591 14.7849 18.003 15.4898C18.1269 15.6072 18.1323 15.803 18.0148 15.9269C17.9543 15.9907 17.8727 16.0235 17.7907 16.0235ZM13.1717 18.5198L16.8809 18.5198C17.0516 18.5198 17.1898 18.6582 17.1898 18.8288C17.1899 20.0217 16.2195 20.9921 15.0267 20.992C13.8338 20.992 12.8628 20.0217 12.8628 18.8288C12.863 18.6582 13.0011 18.5198 13.1717 18.5198Z" fill="#232021"/>
<path fill-rule="evenodd" clip-rule="evenodd" d="M14.9688 7.56668C12.9998 7.57737 10.7844 8.5842 10.2743 10.8086C10.2459 10.9325 10.1446 11.0264 10.0185 11.0452C9.69992 11.0929 9.46921 11.2479 9.31417 11.5188C8.75854 12.4923 9.24983 14.6771 9.73633 16.216C9.94469 14.8069 10.2727 13.6622 10.7179 12.8013C11.168 11.9318 11.5821 11.6733 11.6282 11.6465C11.6498 11.6341 11.6732 11.624 11.6968 11.617C13.0196 11.2324 16.9631 11.212 18.2902 11.5827C18.3144 11.5896 18.3374 11.5993 18.3593 11.6116C18.4056 11.6379 18.8228 11.8921 19.2819 12.7568C19.7368 13.6129 20.078 14.7543 20.3016 16.1602C20.7706 14.6165 21.2377 12.4269 20.6712 11.4604C20.5131 11.1905 20.2813 11.0377 19.9616 10.9932C19.8355 10.976 19.7336 10.8832 19.7036 10.7598C19.171 8.55097 16.9637 7.56616 15.001 7.56616L14.9688 7.56668Z" fill="#232021"/>
<path fill-rule="evenodd" clip-rule="evenodd" d="M25.9684 5.24734C26.2072 5.48543 26.3385 5.80144 26.3385 6.13613V9.29333C26.3385 9.71707 26.6829 10.0615 27.1061 10.0615C27.5295 10.0614 27.8737 9.71709 27.8737 9.29334V6.13613C27.8737 5.3916 27.5824 4.69002 27.0541 4.16169C26.5253 3.63329 25.8241 3.34207 25.0791 3.34207H21.922C21.4987 3.34207 21.1543 3.68644 21.1543 4.10964C21.1545 4.53285 21.4986 4.87721 21.9219 4.87721H25.0792C25.4145 4.87721 25.7302 5.00864 25.9684 5.24734Z" fill="#232021"/>
<path fill-rule="evenodd" clip-rule="evenodd" d="M26.3385 20.7067V23.8638C26.3385 24.1986 26.2071 24.5145 25.9684 24.7532C25.7302 24.9914 25.4143 25.1228 25.0791 25.1228H21.922C21.4987 25.1228 21.1543 25.4672 21.1543 25.8904C21.1545 26.3136 21.4986 26.6579 21.9219 26.6579H25.0792C25.8241 26.6579 26.5252 26.3667 27.0541 25.8384C27.5825 25.31 27.8737 24.6084 27.8737 23.8639V20.7067C27.8737 20.2829 27.5293 19.9386 27.1061 19.9386C26.683 19.9386 26.3385 20.2829 26.3385 20.7067Z" fill="#232021"/>
<path fill-rule="evenodd" clip-rule="evenodd" d="M2.89358 19.9386C2.47046 19.9386 2.12598 20.283 2.12598 20.7067L2.12601 23.8639C2.12601 24.6084 2.41673 25.31 2.94561 25.8384C3.4741 26.3667 4.17556 26.658 4.92005 26.658H8.07739C8.50055 26.658 8.84484 26.3136 8.84484 25.8904C8.84496 25.4671 8.50048 25.1228 8.07727 25.1228H4.92018C4.5854 25.1228 4.26941 24.9914 4.03075 24.7527C3.7927 24.5146 3.66116 24.1986 3.66116 23.8639V20.7067C3.66116 20.2829 3.31679 19.9386 2.89358 19.9386Z" fill="#232021"/>
<path fill-rule="evenodd" clip-rule="evenodd" d="M2.12598 6.13631L2.12601 9.29351C2.12601 9.71725 2.47034 10.0616 2.89355 10.0616C3.31698 10.0616 3.66115 9.71727 3.66115 9.29353V6.13631C3.66115 5.80158 3.79258 5.48568 4.03075 5.24753C4.26943 5.00877 4.58536 4.8774 4.92005 4.8774H8.07739C8.50054 4.8774 8.84484 4.53305 8.84484 4.10983C8.84496 3.68658 8.50047 3.34225 8.07727 3.34225H4.92018C4.17556 3.34225 3.47396 3.63351 2.94561 4.16187C2.41685 4.69017 2.12598 5.3918 2.12598 6.13631Z" fill="#232021"/>
</svg>
