<svg width="24" height="24" viewBox="0 0 24 24" fill="none" xmlns="http://www.w3.org/2000/svg">
<path d="M2.93985 6.85969V4.89982C2.93985 4.38003 3.14634 3.88152 3.51388 3.51398C3.88143 3.14643 4.37993 2.93994 4.89973 2.93994H6.8596" stroke="#2D2A2B" stroke-width="1.46991" stroke-linecap="round" stroke-linejoin="round"/>
<path d="M16.6589 2.93994H18.6188C19.1386 2.93994 19.6371 3.14643 20.0047 3.51398C20.3722 3.88152 20.5787 4.38003 20.5787 4.89982V6.85969" stroke="#2D2A2B" stroke-width="1.46991" stroke-linecap="round" stroke-linejoin="round"/>
<path d="M20.5787 16.6592V18.6191C20.5787 19.1388 20.3722 19.6373 20.0047 20.0049C19.6371 20.3724 19.1386 20.5789 18.6188 20.5789H16.6589" stroke="#2D2A2B" stroke-width="1.46991" stroke-linecap="round" stroke-linejoin="round"/>
<path d="M6.8596 20.5789H4.89973C4.37993 20.5789 3.88143 20.3724 3.51388 20.0049C3.14634 19.6373 2.93985 19.1388 2.93985 18.6191V16.6592" stroke="#2D2A2B" stroke-width="1.46991" stroke-linecap="round" stroke-linejoin="round"/>
</svg>
