<svg width="31" height="28" viewBox="0 0 31 28" fill="none" xmlns="http://www.w3.org/2000/svg">
<path d="M6.27742 9.62736C6.25183 9.35083 6.23897 9.07145 6.23897 8.78922C6.23897 5.5849 7.86108 2.65566 10.5808 0.952336C10.7804 0.826901 10.8417 0.563169 10.7163 0.363612C10.5908 0.162662 10.3271 0.102794 10.1261 0.22823C7.15699 2.08829 5.38379 5.28842 5.38379 8.78922C5.38379 9.1156 5.39963 9.43781 5.43092 9.7557C5.70441 9.68855 5.98816 9.6444 6.27742 9.62736Z" fill="#2D2A2B"/>
<path d="M20.1196 0.796982C22.9562 2.44906 24.7195 5.51083 24.7195 8.78926C24.7195 9.07289 24.7065 9.35227 24.6809 9.62879C24.9703 9.64881 25.2541 9.69449 25.5277 9.7643C25.559 9.44355 25.5747 9.11856 25.5747 8.78926C25.5747 5.20731 23.6489 1.86179 20.5502 0.0586222C20.3462 -0.0611753 20.084 0.00876465 19.9656 0.212566C19.8474 0.416494 19.9158 0.678832 20.1196 0.796982Z" fill="#2D2A2B"/>
<path d="M20.9777 18.2027C20.7738 18.0145 20.5841 17.8107 20.4146 17.5912C20.2406 17.366 20.0838 17.1252 19.9513 16.8714C19.5863 16.1815 19.3797 15.3976 19.3797 14.5651C19.3797 14.404 19.3869 14.243 19.4024 14.0861C18.925 13.7113 18.3933 13.402 17.8218 13.1725C17.1248 13.5487 16.3251 13.7625 15.4785 13.7625C14.6004 13.7625 13.7765 13.5331 13.061 13.1311C12.5036 13.3449 11.982 13.6342 11.5101 13.9863C11.5328 14.1759 11.5443 14.3698 11.5443 14.5651C11.5443 15.3919 11.3405 16.1715 10.9812 16.8572C10.8487 17.1109 10.6933 17.3532 10.5194 17.5784C10.3284 17.825 10.1146 18.053 9.88086 18.2598C11.5015 19.0794 12.7872 20.4692 13.47 22.1639H17.2773C17.9757 20.4292 19.3042 19.0138 20.9777 18.2027Z" fill="#2D2A2B"/>
<path d="M28.8416 20.3592C28.2272 19.7449 27.4902 19.2531 26.6706 18.9239C25.9736 19.3001 25.1739 19.5139 24.3273 19.5139C23.4506 19.5139 22.6253 19.2845 21.9112 18.884C21.9041 18.8869 21.8968 18.8897 21.8898 18.8926C20.3375 19.4927 19.0746 20.6715 18.3648 22.1639C17.9598 23.0106 17.7332 23.9585 17.7332 24.9605V26.423C17.7332 27.2469 18.4004 27.9154 19.2241 27.9154H29.2548C30.0786 27.9154 30.7472 27.2469 30.7472 26.423V24.9605C30.7472 23.163 30.0189 21.5366 28.8416 20.3592Z" fill="#2D2A2B"/>
<path d="M27.0383 11.692C27.0266 11.6809 27.0151 11.6695 27.0031 11.6585C26.971 11.6288 26.9379 11.6001 26.9045 11.5714C26.8914 11.5601 26.8787 11.5488 26.8655 11.5376C26.8324 11.5098 26.7985 11.4831 26.7645 11.4563C26.7505 11.4452 26.7365 11.4339 26.7223 11.4231C26.6881 11.397 26.6531 11.3717 26.6181 11.3467C26.6035 11.3364 26.5887 11.3257 26.574 11.3154C26.5388 11.2911 26.5029 11.2673 26.4668 11.244C26.4513 11.2342 26.436 11.224 26.4204 11.2143C26.3843 11.1916 26.3476 11.1697 26.3103 11.148C26.2943 11.1388 26.2785 11.1296 26.2623 11.1205C26.2249 11.0994 26.1872 11.079 26.1488 11.059C26.1326 11.0506 26.1161 11.0421 26.0997 11.0339C26.061 11.0145 26.0221 10.9956 25.9825 10.9773C25.9661 10.9698 25.9496 10.9624 25.9332 10.9549C25.8932 10.9371 25.8528 10.9199 25.812 10.9033C25.7957 10.8968 25.7791 10.8904 25.7628 10.8839C25.7211 10.8677 25.6795 10.852 25.6373 10.8371C25.6214 10.8316 25.6053 10.8262 25.5894 10.8208C25.546 10.8063 25.5025 10.7922 25.4585 10.779C25.4435 10.7746 25.4283 10.7704 25.4132 10.7661C25.3678 10.7533 25.3222 10.7407 25.2762 10.7294C25.2627 10.726 25.249 10.7232 25.2355 10.72C25.1873 10.7086 25.139 10.6977 25.0903 10.6882C25.0797 10.6862 25.0692 10.6846 25.0587 10.6825C25.0063 10.6729 24.9538 10.6636 24.9007 10.6558C24.8971 10.6553 24.8935 10.655 24.8899 10.6545C24.7062 10.6283 24.5185 10.6139 24.3275 10.6139C24.0727 10.6139 23.824 10.6389 23.5825 10.685C23.578 10.6859 23.5731 10.6865 23.5685 10.6875C23.5148 10.698 23.4616 10.7099 23.4087 10.7225C23.4 10.7246 23.3914 10.7264 23.383 10.7285C23.3326 10.7408 23.2829 10.7545 23.2334 10.7687C23.2224 10.7718 23.2115 10.7748 23.2006 10.778C23.1529 10.7922 23.1058 10.8074 23.0588 10.8234C23.0467 10.8276 23.034 10.8316 23.0218 10.8359C22.9764 10.8518 22.9315 10.8688 22.8868 10.8862C22.8736 10.8914 22.8602 10.8966 22.8468 10.902C22.8035 10.9196 22.7606 10.9379 22.7179 10.957C22.7039 10.9633 22.6898 10.9696 22.676 10.9761C22.6344 10.9953 22.5933 11.015 22.5526 11.0356C22.5381 11.0428 22.5237 11.0504 22.5092 11.0579C22.4693 11.0785 22.4298 11.0999 22.3909 11.122C22.3763 11.1301 22.3617 11.1386 22.3471 11.147C22.309 11.1693 22.2711 11.1919 22.2338 11.2154C22.2189 11.2247 22.2043 11.2341 22.1897 11.2436C22.153 11.2672 22.1165 11.2912 22.0807 11.3161C22.0662 11.3262 22.052 11.3365 22.0378 11.3468C22.0023 11.3719 21.9673 11.3974 21.9327 11.4238C21.9185 11.4347 21.9048 11.4458 21.8908 11.4568C21.8568 11.4835 21.823 11.5104 21.7899 11.5379C21.7763 11.5496 21.7629 11.5614 21.7495 11.5732C21.7166 11.6013 21.6841 11.6297 21.6525 11.6589C21.6396 11.6708 21.6274 11.683 21.6147 11.6949C21.5829 11.7249 21.5514 11.755 21.5206 11.786C21.5093 11.7974 21.4984 11.8093 21.4873 11.8208C21.4561 11.8532 21.4248 11.8856 21.3946 11.9192C21.387 11.9276 21.3798 11.9365 21.3722 11.9452C21.2747 12.0549 21.1837 12.1702 21.0988 12.2905C21.0853 12.3098 21.0711 12.3287 21.0578 12.3483C21.04 12.3746 21.0231 12.4017 21.0059 12.4285C20.9894 12.4539 20.9728 12.4792 20.9569 12.505C20.9413 12.5305 20.9267 12.5566 20.9116 12.5823C20.8954 12.6103 20.8788 12.6382 20.8632 12.6667C20.8492 12.692 20.8361 12.7179 20.8227 12.7435C20.8074 12.7734 20.7918 12.8029 20.7769 12.8331C20.7646 12.8586 20.7529 12.8846 20.741 12.9103C20.7266 12.9414 20.7123 12.9723 20.6986 13.0039C20.6875 13.0297 20.6771 13.0561 20.6665 13.0822C20.6533 13.1142 20.6405 13.1464 20.6283 13.1789C20.6184 13.2053 20.6093 13.2319 20.5999 13.2584C20.5883 13.2913 20.577 13.3243 20.5662 13.3576C20.5576 13.3847 20.5494 13.4119 20.5413 13.4391C20.5315 13.4726 20.5218 13.5062 20.5126 13.5401C20.5052 13.5678 20.4983 13.5955 20.4915 13.6235C20.4832 13.6574 20.4753 13.6914 20.4679 13.7258C20.4616 13.7542 20.4559 13.7829 20.4503 13.8116C20.4437 13.8456 20.4377 13.8799 20.432 13.9142C20.4271 13.9438 20.4225 13.9735 20.4181 14.0031C20.4134 14.0369 20.4091 14.0709 20.4053 14.1049C20.4015 14.136 20.3981 14.1668 20.3954 14.198C20.3942 14.2101 20.3924 14.2221 20.3914 14.2342C20.3904 14.2453 20.3909 14.2568 20.3901 14.268C20.3834 14.3564 20.379 14.4457 20.3785 14.5357C20.3783 14.5458 20.3772 14.5554 20.3772 14.5655C20.3772 14.6505 20.3809 14.7345 20.3861 14.8179V14.8181C20.397 14.9896 20.4179 15.158 20.4502 15.3222C20.4509 15.3186 20.4521 15.3152 20.4527 15.3117C20.6151 16.1646 21.0494 16.9206 21.6649 17.4842C22.3661 18.1257 23.3013 18.5162 24.3277 18.5162C26.2518 18.5162 27.8537 17.1407 28.206 15.3195C28.206 15.3198 28.2062 15.32 28.2062 15.3204C28.21 15.3018 28.2124 15.283 28.2157 15.2643C28.2224 15.2269 28.2296 15.1896 28.2352 15.1519C28.2428 15.1019 28.2488 15.0515 28.2544 15.001C28.2556 14.9891 28.2576 14.9773 28.2587 14.9653C28.272 14.8338 28.2792 14.7004 28.2792 14.5655C28.2792 14.5572 28.2782 14.549 28.2781 14.5409C28.2776 14.4496 28.2732 14.3591 28.2665 14.2694C28.2656 14.2565 28.2659 14.2434 28.2651 14.2307C28.2637 14.2169 28.2618 14.2036 28.2606 14.1898C28.2582 14.1645 28.2553 14.1391 28.2523 14.1139C28.2479 14.074 28.2431 14.0344 28.2374 13.995C28.2337 13.9703 28.2299 13.9459 28.2257 13.9212C28.2191 13.8817 28.2122 13.8424 28.2046 13.8033C28.2 13.7793 28.1951 13.7553 28.1899 13.7314C28.1814 13.6925 28.1726 13.6537 28.1631 13.6152C28.1573 13.5916 28.1512 13.5678 28.145 13.5443C28.135 13.5065 28.1242 13.4689 28.113 13.4315C28.1057 13.4077 28.0986 13.384 28.0911 13.3605C28.0793 13.3239 28.0671 13.2876 28.0542 13.2515C28.0459 13.2278 28.0375 13.2041 28.0288 13.1807C28.0157 13.1453 28.0017 13.1104 27.9875 13.0757C27.978 13.052 27.9684 13.0283 27.9583 13.0049C27.9438 12.971 27.9283 12.9378 27.9128 12.9044C27.9018 12.8807 27.8912 12.8569 27.8798 12.8334C27.8643 12.8016 27.8477 12.7702 27.8312 12.7388C27.8184 12.7146 27.8063 12.6902 27.7932 12.6663C27.777 12.6369 27.7599 12.6082 27.7431 12.5792C27.7285 12.5542 27.7142 12.5289 27.6992 12.5043C27.6831 12.478 27.6662 12.4524 27.6494 12.4266C27.6323 12.4001 27.6155 12.3733 27.5979 12.3472C27.5844 12.3272 27.5699 12.3079 27.556 12.2882C27.4678 12.1632 27.3728 12.0434 27.2711 11.9298C27.2677 11.9262 27.2646 11.9224 27.2613 11.9186C27.2299 11.8837 27.1971 11.8498 27.1645 11.816C27.1546 11.8059 27.1453 11.7954 27.1353 11.7855C27.1035 11.7536 27.0709 11.7228 27.0383 11.692Z" fill="#2D2A2B"/>
<path d="M11.1083 20.3593C10.4938 19.745 9.757 19.2531 8.93736 18.924C8.23891 19.3002 7.44201 19.514 6.59532 19.514C5.71733 19.514 4.89339 19.2846 4.17796 18.8826C1.73488 19.8205 0 22.1881 0 24.9604V26.423C0 27.2468 0.668547 27.9153 1.49249 27.9153H11.5232C12.3469 27.9153 13.014 27.2468 13.014 26.423V24.9604C13.014 23.9585 12.7873 23.0105 12.3841 22.1638C12.0634 21.4897 11.63 20.8809 11.1083 20.3593Z" fill="#2D2A2B"/>
<path d="M2.66268 14.9484C2.66293 14.9519 2.66356 14.9552 2.66394 14.9587C2.6699 15.0183 2.67706 15.0777 2.68561 15.1367C2.68586 15.1382 2.68612 15.1396 2.68624 15.1411C2.93718 16.8571 4.2903 18.215 6.00529 18.4719H6.00662C6.19901 18.5019 6.39566 18.5161 6.59521 18.5161C6.76918 18.5161 6.94168 18.5047 7.10994 18.4819C7.84824 18.3864 8.52382 18.0871 9.07554 17.6396C9.78616 17.0671 10.2932 16.2519 10.4733 15.3201V15.3203C10.4735 15.3197 10.4735 15.3191 10.4736 15.3186C10.4809 15.281 10.4869 15.2432 10.4932 15.2053C10.4985 15.1735 10.5037 15.1418 10.5081 15.1098C10.5115 15.0854 10.5143 15.0608 10.5172 15.0361C10.5226 14.9912 10.5276 14.9459 10.5314 14.9005C10.5321 14.8931 10.5331 14.8859 10.5336 14.8785C10.5343 14.8713 10.5339 14.8639 10.5345 14.8565C10.5414 14.7624 10.5461 14.6675 10.5462 14.5716C10.5462 14.5694 10.5466 14.5672 10.5466 14.5649C10.5466 14.4598 10.5412 14.3559 10.5332 14.2529C10.5326 14.2456 10.5327 14.238 10.5322 14.2306C10.5314 14.2228 10.5303 14.2149 10.5297 14.2071C10.5258 14.1662 10.5214 14.1258 10.5166 14.0853C10.5136 14.0614 10.5106 14.0374 10.5074 14.0137C10.502 13.9743 10.4956 13.9353 10.489 13.8963C10.4849 13.8721 10.4807 13.8477 10.476 13.8236C10.4688 13.7853 10.4609 13.7471 10.4525 13.7092C10.4473 13.6852 10.4416 13.6612 10.4359 13.6375C10.4268 13.5997 10.4173 13.562 10.4072 13.5246C10.4009 13.5015 10.3942 13.4785 10.3875 13.4556C10.3765 13.4178 10.3651 13.3803 10.353 13.343C10.3461 13.3213 10.3385 13.2998 10.331 13.2784C10.3181 13.2403 10.3047 13.2024 10.2904 13.1648C10.2829 13.1451 10.275 13.1257 10.2673 13.1061C10.2519 13.0674 10.2361 13.0288 10.2195 12.9907C10.2121 12.9735 10.2042 12.9567 10.1965 12.9397C10.1785 12.8997 10.1603 12.8599 10.1409 12.8207C10.1342 12.8071 10.127 12.7938 10.1202 12.7803C10.0989 12.7381 10.0771 12.6963 10.0544 12.655C10.05 12.6469 10.0451 12.639 10.0405 12.6309C9.80801 12.2174 9.50336 11.8502 9.14346 11.5459C9.14257 11.5452 9.14162 11.5443 9.14073 11.5436C9.09791 11.5076 9.05439 11.4726 9.00998 11.4383C9.00592 11.4351 9.00193 11.432 8.99788 11.4288C8.9553 11.3961 8.91191 11.3644 8.86782 11.3335C8.86186 11.3293 8.85603 11.325 8.85001 11.3208C8.80719 11.2909 8.76379 11.2621 8.71957 11.234C8.71203 11.2291 8.70462 11.2242 8.69696 11.2195C8.65375 11.1922 8.6101 11.1661 8.56582 11.1405C8.55689 11.1355 8.54802 11.1303 8.53896 11.1251C8.49531 11.1004 8.45109 11.0766 8.40643 11.0536C8.39655 11.0484 8.38654 11.0432 8.37646 11.0382C8.33205 11.0157 8.28714 10.9941 8.24171 10.9733C8.23132 10.9685 8.22068 10.9637 8.21029 10.9589C8.16487 10.9386 8.11913 10.9189 8.07269 10.9002C8.06192 10.8959 8.0509 10.8916 8.03988 10.8873C7.99338 10.869 7.94643 10.8515 7.89905 10.8349C7.8884 10.8311 7.87738 10.8276 7.86648 10.8239C7.81859 10.8076 7.77032 10.792 7.72147 10.7775C7.71121 10.7744 7.70082 10.7716 7.69056 10.7686C7.6407 10.7542 7.59059 10.7407 7.5401 10.7283C7.53104 10.726 7.52204 10.7241 7.51311 10.7219C7.46078 10.7094 7.40807 10.6978 7.35511 10.6874C7.34878 10.6861 7.34263 10.6852 7.3363 10.684C7.09613 10.6384 6.84856 10.6136 6.59515 10.6136C6.34086 10.6136 6.09239 10.6387 5.85166 10.6844C5.84621 10.6856 5.84076 10.6862 5.83544 10.6874C5.78184 10.6978 5.72876 10.7097 5.67605 10.7223C5.66737 10.7243 5.65875 10.7262 5.6502 10.7283C5.5992 10.7407 5.54896 10.7545 5.49898 10.769C5.48884 10.7718 5.47871 10.7746 5.46857 10.7775C5.4196 10.7921 5.3712 10.8078 5.32305 10.8242C5.31228 10.8278 5.30152 10.8313 5.29075 10.8351C5.24323 10.8517 5.19622 10.8693 5.14953 10.8876C5.13889 10.8918 5.128 10.8961 5.11723 10.9005C5.07085 10.9192 5.02492 10.9388 4.9795 10.9593C4.96886 10.964 4.95847 10.9687 4.94795 10.9735C4.9024 10.9943 4.85761 11.0161 4.81308 11.0386C4.80307 11.0437 4.79318 11.0487 4.78336 11.0538C4.73845 11.0771 4.69429 11.1009 4.65045 11.1257C4.64152 11.1308 4.63278 11.1359 4.62397 11.1409C4.57969 11.1665 4.53572 11.1927 4.49258 11.2201C4.48504 11.2249 4.4775 11.2297 4.46996 11.2346C4.42581 11.2628 4.3821 11.2918 4.33927 11.3216C4.33344 11.3257 4.32761 11.3299 4.32198 11.334C4.27757 11.3652 4.23385 11.3972 4.19097 11.4301C4.18748 11.4327 4.18438 11.4353 4.18121 11.4379C3.70893 11.8029 3.32166 12.2724 3.05413 12.8119C3.05362 12.8128 3.05324 12.8135 3.05286 12.8142C3.02777 12.8648 3.00408 12.916 2.98108 12.9677C2.97899 12.9727 2.97652 12.9777 2.97443 12.9827C2.95289 13.0318 2.93274 13.0816 2.91304 13.1317C2.90994 13.1397 2.90671 13.1473 2.90386 13.1552C2.88517 13.2039 2.86775 13.253 2.85102 13.3026C2.84792 13.3121 2.84443 13.3215 2.84152 13.3312C2.8253 13.3799 2.81048 13.429 2.79635 13.4786C2.79324 13.4893 2.79027 13.4998 2.78729 13.5105C2.77367 13.5597 2.76119 13.6093 2.74928 13.6593C2.74681 13.6705 2.74408 13.6815 2.74161 13.6926C2.73034 13.743 2.71995 13.7936 2.71057 13.8446C2.70861 13.8553 2.70671 13.8659 2.70487 13.8766C2.69568 13.9285 2.68757 13.9808 2.68035 14.0337C2.67909 14.043 2.67801 14.0526 2.67674 14.062C2.66996 14.1164 2.66388 14.1711 2.65919 14.2263C2.65907 14.2289 2.65869 14.2315 2.65831 14.2341C2.65818 14.2365 2.65831 14.2391 2.65805 14.2414C2.64937 14.3482 2.6438 14.4558 2.6438 14.5648C2.64399 14.6944 2.65058 14.8222 2.66268 14.9484Z" fill="#2D2A2B"/>
<path d="M11.5325 9.01269C11.5336 9.03347 11.5357 9.05399 11.537 9.07471C11.5399 9.11924 11.5427 9.16378 11.547 9.208C11.5503 9.2393 11.5546 9.27008 11.5586 9.30132C11.5624 9.33299 11.5659 9.3648 11.5705 9.39622C11.5777 9.44474 11.5863 9.49257 11.5952 9.54047C11.5972 9.55048 11.5984 9.56061 11.6005 9.57056C11.6005 9.57043 11.6005 9.57018 11.6005 9.57005C11.9535 11.3903 13.5552 12.7649 15.4786 12.7649C17.4651 12.7649 19.1085 11.2986 19.3873 9.38956C19.3898 9.37322 19.3913 9.35662 19.3935 9.34034C19.3997 9.29492 19.4056 9.2495 19.4102 9.20363C19.4136 9.16999 19.4154 9.1361 19.4179 9.10214C19.4201 9.07179 19.4231 9.04177 19.4245 9.01117C19.4278 8.94585 19.4295 8.88003 19.4295 8.81395V8.81383C19.4295 8.70999 19.4243 8.60756 19.4164 8.50588C19.4157 8.49707 19.4159 8.48795 19.4152 8.47914C19.4143 8.46977 19.4131 8.46045 19.4121 8.45095C19.4089 8.41471 19.4047 8.37867 19.4006 8.34281C19.397 8.31386 19.3936 8.28503 19.3896 8.25646C19.3846 8.22206 19.3792 8.18779 19.3733 8.15377C19.3684 8.12406 19.3632 8.09447 19.3576 8.06508C19.3512 8.03214 19.3445 7.99951 19.3375 7.96682C19.3308 7.9366 19.324 7.90683 19.3166 7.87686C19.3089 7.84519 19.301 7.81364 19.2926 7.78234C19.2844 7.75238 19.2758 7.7226 19.2671 7.69289C19.258 7.6621 19.2487 7.63125 19.2388 7.60071C19.2294 7.57113 19.2193 7.54192 19.2091 7.51272C19.1986 7.48263 19.188 7.45247 19.1768 7.42263C19.1659 7.39381 19.1545 7.36536 19.1429 7.33685C19.131 7.30714 19.1191 7.27756 19.1065 7.24829C19.0944 7.22048 19.0816 7.19286 19.0689 7.16524C19.0555 7.13616 19.0423 7.10695 19.0281 7.07838C19.0152 7.05165 19.0012 7.02529 18.9875 6.99894C18.9725 6.96999 18.9577 6.94091 18.942 6.91234C18.9284 6.88744 18.9139 6.86311 18.8997 6.8386C18.8827 6.80939 18.8662 6.78006 18.8485 6.75136C18.8347 6.72887 18.82 6.70695 18.8057 6.68465C18.7864 6.65469 18.7676 6.62453 18.7478 6.5952C18.7359 6.57778 18.7233 6.56093 18.7109 6.54369C18.6254 6.42193 18.5334 6.30511 18.4348 6.19412C18.4267 6.18494 18.419 6.17543 18.4108 6.16631C18.3833 6.1359 18.3548 6.1067 18.3265 6.07711C18.3121 6.06229 18.2985 6.04702 18.284 6.03245C18.2568 6.00508 18.2289 5.97873 18.2009 5.95225C18.1843 5.93641 18.168 5.92019 18.1512 5.90473C18.1236 5.87952 18.0954 5.85513 18.0672 5.83061C18.049 5.81477 18.0311 5.79868 18.0125 5.78323C17.9846 5.75985 17.9558 5.73717 17.9272 5.71443C17.9075 5.69897 17.8881 5.68326 17.8681 5.66805C17.8395 5.64626 17.8104 5.62535 17.7813 5.60445C17.7603 5.58937 17.7394 5.5741 17.7181 5.55953C17.6892 5.53951 17.6596 5.52006 17.63 5.50087C17.6078 5.48636 17.5856 5.47192 17.563 5.45792C17.5334 5.43948 17.5034 5.42168 17.4733 5.40394C17.4499 5.39019 17.4264 5.37657 17.4028 5.36333C17.3728 5.34661 17.3427 5.33039 17.3121 5.31436C17.2873 5.30137 17.2626 5.28864 17.2375 5.2761C17.2071 5.26102 17.1767 5.24626 17.1459 5.23194C17.1201 5.21984 17.094 5.20818 17.0679 5.19665C17.0373 5.18316 17.0066 5.16992 16.9756 5.15731C16.9483 5.14604 16.9209 5.13539 16.8931 5.12488C16.8626 5.11297 16.8319 5.10137 16.8008 5.09035C16.7724 5.08022 16.7434 5.07065 16.7145 5.06115C16.6838 5.05101 16.6532 5.041 16.6222 5.03156C16.5921 5.0225 16.5619 5.01427 16.5315 5.00584C16.5009 4.99742 16.4703 4.98874 16.4397 4.98107C16.4079 4.97315 16.3761 4.96625 16.344 4.95902C16.3139 4.95237 16.284 4.94528 16.2537 4.9392C16.2199 4.93254 16.1856 4.92684 16.1514 4.92089C16.1224 4.91607 16.0936 4.91062 16.0644 4.90632C16.0276 4.90074 15.9903 4.89669 15.9533 4.89219C15.9261 4.88883 15.8992 4.88503 15.8719 4.88231C15.8295 4.87825 15.787 4.87553 15.7443 4.87268C15.7216 4.87122 15.6992 4.86881 15.6765 4.86773C15.6109 4.8645 15.5448 4.86279 15.4785 4.86279H15.4784C15.4118 4.86279 15.3456 4.8645 15.2802 4.86773C15.2579 4.86887 15.2359 4.87109 15.2136 4.87255C15.1704 4.8754 15.1271 4.87812 15.0843 4.88231C15.0579 4.88503 15.0321 4.88877 15.0058 4.89181C14.9676 4.89637 14.9294 4.90074 14.8915 4.90632C14.8633 4.9105 14.8356 4.91569 14.8076 4.92057C14.7723 4.92665 14.737 4.93248 14.7018 4.93951C14.6729 4.94521 14.6444 4.95199 14.6156 4.95845C14.5821 4.96587 14.5485 4.97315 14.5154 4.98145C14.4863 4.98874 14.4575 4.99691 14.4286 5.00483C14.3963 5.01376 14.3642 5.0225 14.3322 5.0322C14.3032 5.041 14.2746 5.0505 14.2458 5.05994C14.2148 5.07008 14.1837 5.08047 14.1529 5.09136C14.1242 5.10163 14.0955 5.11252 14.0668 5.12342C14.0369 5.13482 14.0074 5.14642 13.9778 5.15858C13.9491 5.17036 13.9207 5.18272 13.8921 5.1952C13.8636 5.20768 13.835 5.22041 13.8067 5.23378C13.7783 5.24702 13.7502 5.26064 13.7224 5.27451C13.6947 5.28826 13.6672 5.30233 13.6399 5.31671C13.612 5.3314 13.5843 5.34642 13.5567 5.36175C13.5302 5.37645 13.5041 5.39171 13.478 5.40692C13.4506 5.42314 13.4233 5.43935 13.3963 5.45614C13.3709 5.47198 13.3456 5.48832 13.3206 5.5048C13.2939 5.52222 13.2672 5.5397 13.2408 5.55776C13.2164 5.57461 13.1927 5.5919 13.1688 5.60914C13.1424 5.62808 13.1161 5.64702 13.0903 5.66666C13.0675 5.68408 13.0449 5.70207 13.0224 5.72C12.9967 5.74053 12.9709 5.76093 12.9456 5.78202C12.9239 5.8002 12.9028 5.81889 12.8816 5.83758C12.8564 5.8595 12.8311 5.88123 12.8065 5.90378C12.7863 5.92247 12.7667 5.94167 12.7469 5.96067C12.7222 5.9843 12.6973 6.00768 12.6734 6.03194C12.6551 6.05012 12.6378 6.06919 12.62 6.08776C12.5953 6.11386 12.5702 6.13958 12.546 6.16618C12.532 6.18164 12.5188 6.19773 12.5051 6.21357C12.4097 6.32247 12.3204 6.43644 12.2372 6.55541C12.2278 6.56891 12.2179 6.58202 12.2088 6.59564C12.1866 6.62808 12.1657 6.66134 12.1446 6.69453C12.1325 6.71335 12.12 6.73204 12.1083 6.75111C12.0887 6.78329 12.07 6.81604 12.0513 6.84873C12.0393 6.86964 12.0269 6.89029 12.0153 6.91145C11.9975 6.94389 11.9806 6.97689 11.9636 7.00996C11.9522 7.03213 11.9406 7.05399 11.9297 7.07642C11.9133 7.10955 11.898 7.14325 11.8828 7.17702C11.8723 7.19976 11.8618 7.22244 11.8518 7.24544C11.8371 7.27946 11.8231 7.31398 11.8093 7.34864C11.7999 7.37189 11.7905 7.39514 11.7817 7.41864C11.7683 7.45367 11.756 7.48902 11.7437 7.52456C11.7356 7.54819 11.7273 7.5717 11.7197 7.59533C11.708 7.63169 11.6969 7.66831 11.6862 7.70505C11.6795 7.7283 11.6727 7.75168 11.6663 7.77518C11.6561 7.81294 11.6464 7.85101 11.6373 7.88928C11.6317 7.91202 11.6266 7.93495 11.6214 7.95808C11.6127 7.99755 11.6046 8.03727 11.597 8.07724C11.5929 8.09916 11.589 8.12114 11.5853 8.14319C11.5782 8.18462 11.5716 8.22637 11.5657 8.26831C11.563 8.28884 11.5604 8.30949 11.5579 8.3302C11.5525 8.37411 11.5477 8.41833 11.5437 8.46273C11.5432 8.46939 11.5422 8.4761 11.5416 8.48275C11.5411 8.48884 11.5412 8.49523 11.5408 8.50144C11.5327 8.60464 11.5273 8.7086 11.5273 8.81389V8.81402C11.5275 8.88054 11.5292 8.94687 11.5325 9.01269Z" fill="#2D2A2B"/>
</svg>
