<svg width="24" height="24" viewBox="0 0 24 24" fill="none" xmlns="http://www.w3.org/2000/svg">
<path d="M18.6189 2.9397H4.89973C3.81732 2.9397 2.93985 3.81716 2.93985 4.89957V18.6187C2.93985 19.7011 3.81732 20.5786 4.89973 20.5786H18.6189C19.7013 20.5786 20.5787 19.7011 20.5787 18.6187V4.89957C20.5787 3.81716 19.7013 2.9397 18.6189 2.9397Z" stroke="#2D2A2B" stroke-width="1.46991" stroke-linecap="round" stroke-linejoin="round"/>
<path d="M8.81953 10.7791C9.90194 10.7791 10.7794 9.90166 10.7794 8.81925C10.7794 7.73684 9.90194 6.85938 8.81953 6.85938C7.73712 6.85938 6.85965 7.73684 6.85965 8.81925C6.85965 9.90166 7.73712 10.7791 8.81953 10.7791Z" stroke="#2D2A2B" stroke-width="1.46991" stroke-linecap="round" stroke-linejoin="round"/>
<path d="M20.5787 14.699L17.5547 11.6749C17.1871 11.3075 16.6887 11.1011 16.169 11.1011C15.6493 11.1011 15.1509 11.3075 14.7834 11.6749L5.87967 20.5786" stroke="#2D2A2B" stroke-width="1.46991" stroke-linecap="round" stroke-linejoin="round"/>
</svg>
