<svg width="68" height="68" viewBox="0 0 68 68" fill="none" xmlns="http://www.w3.org/2000/svg">
<path d="M53.8065 0H13.4132C6.00528 0 0 6.00528 0 13.4132V53.7963C0 61.2041 6.00528 67.2094 13.4132 67.2094H53.8065C61.2144 67.2094 67.2197 61.2041 67.2197 53.7963V13.4132C67.2197 6.00528 61.2144 0 53.8065 0Z" fill="#F16A86"/>
<path d="M18.8854 9.98473C25.0758 9.03446 30.3296 13.3825 33.6692 18.6055C43.377 0.317954 65.9955 13.9191 56.6637 32.781C51.7824 42.6426 32.719 58.2263 32.719 58.2263C25.4655 45.9617 6.35405 37.9938 8.51438 21.0461C9.22538 15.4642 13.8024 10.7675 18.8854 9.98473Z" fill="white"/>
<path d="M27.4476 21.0974C27.3861 21.6819 26.9793 22.6117 26.7537 23.186C25.6907 25.8727 22.7852 30.7744 23.4142 33.5671C24.0226 36.2607 27.1879 35.6796 28.9551 34.4422C31.4436 32.6989 33.1834 29.3935 33.6757 26.4572C33.8192 26.218 34.896 26.9529 35.0157 27.0964C35.4771 27.6399 34.5371 30.1113 34.4619 30.2788C34.1953 30.8667 33.8466 31.6324 33.539 32.1862C33.4706 32.3092 33.392 32.487 33.3544 32.5485C33.1835 32.8357 32.8314 33.2493 32.6161 33.5467C30.4797 36.5103 27.0204 38.7287 23.1817 37.611C19.6575 36.5855 19.473 33.0032 20.2489 30.0019C21.1547 26.4812 23.4005 23.2338 24.3234 19.7882C24.3849 19.5558 24.4636 18.6876 24.5012 18.6431C24.5319 18.6055 27.5092 20.5231 27.4476 21.094V21.0974Z" fill="#F16A86"/>
<path d="M46.8329 15.6451C47.7626 15.1597 49.2393 14.6744 50.2887 14.6402C52.056 14.5821 54.0488 15.3102 54.7701 17.0056C54.2505 16.8108 53.7822 16.4484 53.2523 16.2741C49.6632 15.1051 46.6722 18.3319 44.8947 20.9571C43.6437 22.7995 42.69 24.8094 41.7568 26.8194C44.6076 26.0571 47.6054 26.1118 50.5246 25.729C50.4084 26.8638 49.6701 28.3473 48.6173 28.8943C46.9628 29.7488 43.0523 29.0344 41.0595 29.2703C40.9569 29.2839 40.8578 29.2702 40.786 29.3659C39.5281 32.4047 38.4309 35.5222 37.0636 38.5166C35.4468 42.0613 31.3483 49.4925 25.674 49.3387C23.5854 49.2806 21.5789 47.1989 20.2014 45.7291C19.1828 44.6421 18.2291 43.4457 17.3882 42.2288C18.6427 42.95 19.6408 44.0883 20.8064 44.9497C22.2352 46.006 24.2862 47.4484 26.1355 46.9357C30.4698 45.7393 33.348 38.3798 34.9238 34.6369C35.898 32.3261 36.7867 29.9471 37.7848 27.6397C37.8258 27.544 37.8429 27.4449 37.8771 27.3663C39.6888 23.2336 42.6012 17.8567 46.8295 15.6417L46.8329 15.6451Z" fill="#F16A86"/>
</svg>
