<svg width="12" height="10" viewBox="0 0 12 10" fill="none" xmlns="http://www.w3.org/2000/svg">
<path d="M4.46412 8.36199C3.44528 9.14255 1.34463 9.91762 1.34463 9.91762C1.05432 8.38388 -0.605426 6.8666 0.235393 5.1877C0.512015 4.63445 1.15019 4.31399 1.70069 4.41533C2.36623 4.54132 2.74415 5.18222 2.89478 5.84228C2.99064 5.7519 3.08651 5.67519 3.18237 5.61219C3.61237 6.53792 4.13553 7.44996 4.46145 8.36199H4.46412Z" fill="#F16A86"/>
<path d="M5.41759 0.0303788C6.48847 0.230313 7.09649 1.26011 7.33477 2.32552C10.0051 -0.158599 12.9138 3.42104 10.2735 6.02019C8.89042 7.38138 4.84515 8.87132 4.84515 8.87132C4.37681 6.40637 1.71194 3.97156 3.06492 1.27107C3.51134 0.380956 4.53843 -0.133951 5.41759 0.0303788Z" fill="#F16A86"/>
</svg>
