<svg width="43" height="29" viewBox="0 0 43 29" fill="none" xmlns="http://www.w3.org/2000/svg">
<g clip-path="url(#clip0_504_7956)">
<rect width="42.5388" height="28.3592" rx="7.82322" fill="white"/>
<g clip-path="url(#clip1_504_7956)">
<g clip-path="url(#clip2_504_7956)">
<path d="M0 0H42.5388V28.3592H0V0Z" fill="white"/>
<path d="M0 0H42.5388V9.45306H0V0Z" fill="#FF6820"/>
<path d="M0 18.9072H42.5388V28.3603H0V18.9072Z" fill="#046A38"/>
<path d="M21.2695 18.5515C23.6841 18.5515 25.6415 16.594 25.6415 14.1794C25.6415 11.7648 23.6841 9.80737 21.2695 9.80737C18.8549 9.80737 16.8975 11.7648 16.8975 14.1794C16.8975 16.594 18.8549 18.5515 21.2695 18.5515Z" fill="#07038D"/>
<path d="M21.2695 17.9597C23.3578 17.9597 25.0507 16.2668 25.0507 14.1784C25.0507 12.0901 23.3578 10.3972 21.2695 10.3972C19.1812 10.3972 17.4883 12.0901 17.4883 14.1784C17.4883 16.2668 19.1812 17.9597 21.2695 17.9597Z" fill="white"/>
<path d="M21.2699 14.9368C21.6876 14.9368 22.0262 14.5982 22.0262 14.1806C22.0262 13.7629 21.6876 13.4243 21.2699 13.4243C20.8523 13.4243 20.5137 13.7629 20.5137 14.1806C20.5137 14.5982 20.8523 14.9368 21.2699 14.9368Z" fill="#07038D"/>
<path d="M21.2697 10.3972L21.4115 12.6726L21.2697 13.7994L21.1279 12.6726L21.2697 10.3972Z" fill="#07038D"/>
<path d="M21.7424 10.5945C21.833 10.6064 21.9161 10.5427 21.928 10.4521C21.9399 10.3615 21.8762 10.2784 21.7856 10.2665C21.695 10.2545 21.6119 10.3183 21.6 10.4089C21.5881 10.4995 21.6518 10.5826 21.7424 10.5945Z" fill="#07038D"/>
<path d="M21.2698 17.9619L21.128 15.6866L21.2698 14.5598L21.4116 15.6866L21.2698 17.9619Z" fill="#07038D"/>
<path d="M20.7981 17.7644C20.7075 17.7525 20.6244 17.8162 20.6125 17.9068C20.6006 17.9974 20.6644 18.0805 20.7549 18.0924C20.8455 18.1043 20.9286 18.0406 20.9405 17.95C20.9525 17.8594 20.8887 17.7763 20.7981 17.7644Z" fill="#07038D"/>
<path d="M22.2488 10.5274L21.7968 12.7619L21.3682 13.8137L21.5229 12.6885L22.2488 10.5274Z" fill="#07038D"/>
<path d="M22.6532 10.8389C22.7376 10.8739 22.8344 10.8338 22.8693 10.7494C22.9043 10.665 22.8642 10.5682 22.7798 10.5333C22.6954 10.4983 22.5986 10.5384 22.5636 10.6228C22.5287 10.7072 22.5688 10.804 22.6532 10.8389Z" fill="#07038D"/>
<path d="M20.2917 17.832L20.7437 15.5974L21.1723 14.5457L21.0176 15.6708L20.2917 17.832Z" fill="#07038D"/>
<path d="M19.8869 17.5204C19.8025 17.4855 19.7057 17.5255 19.6707 17.61C19.6358 17.6944 19.6758 17.7911 19.7602 17.8261C19.8447 17.8611 19.9414 17.821 19.9764 17.7366C20.0114 17.6522 19.9713 17.5554 19.8869 17.5204Z" fill="#07038D"/>
<path d="M23.1604 10.9056L22.1455 12.947L21.4593 13.852L21.8999 12.8052L23.1604 10.9056Z" fill="#07038D"/>
<path d="M23.4699 11.3117C23.5424 11.3673 23.6462 11.3536 23.7018 11.2811C23.7574 11.2087 23.7438 11.1048 23.6713 11.0492C23.5988 10.9936 23.495 11.0072 23.4393 11.0797C23.3837 11.1522 23.3974 11.2561 23.4699 11.3117Z" fill="#07038D"/>
<path d="M19.3796 17.4508L20.3945 15.4094L21.0807 14.5045L20.6401 15.5512L19.3796 17.4508Z" fill="#07038D"/>
<path d="M19.0687 17.0453C18.9962 16.9896 18.8924 17.0033 18.8368 17.0758C18.7811 17.1483 18.7948 17.2521 18.8673 17.3077C18.9398 17.3634 19.0436 17.3497 19.0992 17.2772C19.1549 17.2047 19.1412 17.1009 19.0687 17.0453Z" fill="#07038D"/>
<path d="M23.9435 11.5068L22.4349 13.2159L21.5378 13.9124L22.2343 13.0154L23.9435 11.5068Z" fill="#07038D"/>
<path d="M24.138 11.9806C24.1936 12.0531 24.2975 12.0668 24.37 12.0111C24.4425 11.9555 24.4561 11.8517 24.4005 11.7792C24.3449 11.7067 24.241 11.693 24.1686 11.7487C24.0961 11.8043 24.0824 11.9081 24.138 11.9806Z" fill="#07038D"/>
<path d="M18.595 16.8516L20.1037 15.1425L21.0007 14.446L20.3042 15.343L18.595 16.8516Z" fill="#07038D"/>
<path d="M18.4001 16.3802C18.3444 16.3078 18.2406 16.2941 18.1681 16.3497C18.0956 16.4053 18.082 16.5092 18.1376 16.5816C18.1932 16.6541 18.297 16.6678 18.3695 16.6122C18.442 16.5566 18.4557 16.4527 18.4001 16.3802Z" fill="#07038D"/>
<path d="M24.545 12.29L22.6454 13.5505L21.5987 13.9911L22.5036 13.3049L24.545 12.29Z" fill="#07038D"/>
<path d="M24.6112 12.7953C24.6461 12.8797 24.7429 12.9198 24.8273 12.8848C24.9117 12.8499 24.9518 12.7531 24.9168 12.6687C24.8819 12.5843 24.7851 12.5442 24.7007 12.5792C24.6163 12.6141 24.5762 12.7109 24.6112 12.7953Z" fill="#07038D"/>
<path d="M17.996 16.071L19.8956 14.8106L20.9423 14.37L20.0374 15.0562L17.996 16.071Z" fill="#07038D"/>
<path d="M17.9304 15.566C17.8954 15.4816 17.7986 15.4415 17.7142 15.4765C17.6298 15.5114 17.5897 15.6082 17.6247 15.6926C17.6596 15.777 17.7564 15.8171 17.8408 15.7822C17.9252 15.7472 17.9653 15.6504 17.9304 15.566Z" fill="#07038D"/>
<path d="M24.9229 13.2007L22.7618 13.9266L21.6367 14.0812L22.6884 13.6526L24.9229 13.2007Z" fill="#07038D"/>
<path d="M24.8557 13.7067C24.8676 13.7973 24.9507 13.8611 25.0413 13.8491C25.1319 13.8372 25.1956 13.7541 25.1837 13.6635C25.1718 13.5729 25.0887 13.5092 24.9981 13.5211C24.9075 13.533 24.8438 13.6161 24.8557 13.7067Z" fill="#07038D"/>
<path d="M17.6186 15.1584L19.7797 14.4326L20.9048 14.2779L19.8531 14.7065L17.6186 15.1584Z" fill="#07038D"/>
<path d="M17.6858 14.6505C17.6739 14.5599 17.5908 14.4961 17.5002 14.508C17.4096 14.52 17.3459 14.6031 17.3578 14.6937C17.3697 14.7842 17.4528 14.848 17.5434 14.8361C17.634 14.8241 17.6978 14.741 17.6858 14.6505Z" fill="#07038D"/>
<path d="M25.0513 14.1787L22.7759 14.3205L21.6491 14.1787L22.7759 14.0369L25.0513 14.1787Z" fill="#07038D"/>
<path d="M24.855 14.6504C24.843 14.741 24.9068 14.824 24.9974 14.836C25.088 14.8479 25.1711 14.7841 25.183 14.6936C25.1949 14.603 25.1312 14.5199 25.0406 14.5079C24.95 14.496 24.8669 14.5598 24.855 14.6504Z" fill="#07038D"/>
<path d="M17.4888 14.179L19.7641 14.0372L20.8909 14.179L19.7641 14.3208L17.4888 14.179Z" fill="#07038D"/>
<path d="M17.6851 13.7068C17.697 13.6162 17.6332 13.5331 17.5426 13.5212C17.4521 13.5093 17.369 13.573 17.357 13.6636C17.3451 13.7542 17.4089 13.8373 17.4995 13.8492C17.59 13.8612 17.6731 13.7974 17.6851 13.7068Z" fill="#07038D"/>
<path d="M24.9213 15.1606L22.6868 14.7087L21.6351 14.2801L22.7602 14.4348L24.9213 15.1606Z" fill="#07038D"/>
<path d="M24.6095 15.5653C24.5746 15.6497 24.6147 15.7465 24.6991 15.7814C24.7835 15.8164 24.8802 15.7763 24.9152 15.6919C24.9502 15.6075 24.9101 15.5107 24.8257 15.4758C24.7413 15.4408 24.6445 15.4809 24.6095 15.5653Z" fill="#07038D"/>
<path d="M17.6173 13.2021L19.8518 13.6541L20.9035 14.0827L19.7784 13.928L17.6173 13.2021Z" fill="#07038D"/>
<path d="M17.9285 12.7958C17.9635 12.7114 17.9234 12.6146 17.839 12.5797C17.7546 12.5447 17.6578 12.5848 17.6229 12.6692C17.5879 12.7536 17.628 12.8504 17.7124 12.8853C17.7968 12.9203 17.8936 12.8802 17.9285 12.7958Z" fill="#07038D"/>
<path d="M24.5458 16.0696L22.5044 15.0547L21.5994 14.3685L22.6462 14.8091L24.5458 16.0696Z" fill="#07038D"/>
<path d="M24.1397 16.379C24.0841 16.4515 24.0978 16.5554 24.1703 16.611C24.2428 16.6666 24.3466 16.6529 24.4022 16.5805C24.4578 16.508 24.4442 16.4041 24.3717 16.3485C24.2992 16.2929 24.1954 16.3066 24.1397 16.379Z" fill="#07038D"/>
<path d="M17.9967 12.2896L20.0381 13.3044L20.943 13.9906L19.8963 13.55L17.9967 12.2896Z" fill="#07038D"/>
<path d="M18.4023 11.9779C18.4579 11.9054 18.4442 11.8016 18.3717 11.7459C18.2992 11.6903 18.1954 11.704 18.1398 11.7765C18.0842 11.849 18.0978 11.9528 18.1703 12.0084C18.2428 12.064 18.3466 12.0504 18.4023 11.9779Z" fill="#07038D"/>
<path d="M23.9451 16.8539L22.236 15.3453L21.5395 14.4482L22.4365 15.1447L23.9451 16.8539Z" fill="#07038D"/>
<path d="M23.4715 17.0477C23.3991 17.1033 23.3854 17.2072 23.441 17.2796C23.4966 17.3521 23.6005 17.3658 23.673 17.3102C23.7454 17.2546 23.7591 17.1507 23.7035 17.0782C23.6479 17.0057 23.544 16.9921 23.4715 17.0477Z" fill="#07038D"/>
<path d="M18.5968 11.5052L20.306 13.0139L21.0025 13.9109L20.1055 13.2144L18.5968 11.5052Z" fill="#07038D"/>
<path d="M19.07 11.3088C19.1424 11.2531 19.1561 11.1493 19.1005 11.0768C19.0449 11.0043 18.941 10.9906 18.8685 11.0463C18.7961 11.1019 18.7824 11.2057 18.838 11.2782C18.8936 11.3507 18.9975 11.3644 19.07 11.3088Z" fill="#07038D"/>
<path d="M23.1609 17.4569L21.9004 15.5573L21.4598 14.5105L22.146 15.4155L23.1609 17.4569Z" fill="#07038D"/>
<path d="M22.6537 17.5225C22.5692 17.5575 22.5292 17.6543 22.5641 17.7387C22.5991 17.8231 22.6959 17.8632 22.7803 17.8282C22.8647 17.7932 22.9048 17.6965 22.8698 17.6121C22.8348 17.5276 22.7381 17.4876 22.6537 17.5225Z" fill="#07038D"/>
<path d="M19.3787 10.9081L20.6391 12.8077L21.0797 13.8545L20.3935 12.9495L19.3787 10.9081Z" fill="#07038D"/>
<path d="M19.8849 10.8422C19.9693 10.8073 20.0094 10.7105 19.9744 10.6261C19.9395 10.5417 19.8427 10.5016 19.7583 10.5365C19.6739 10.5715 19.6338 10.6683 19.6688 10.7527C19.7037 10.8371 19.8005 10.8772 19.8849 10.8422Z" fill="#07038D"/>
<path d="M22.2488 17.8343L21.5229 15.6732L21.3682 14.5481L21.7968 15.5998L22.2488 17.8343Z" fill="#07038D"/>
<path d="M21.7415 17.7671C21.6509 17.779 21.5872 17.8621 21.5991 17.9527C21.611 18.0432 21.6941 18.107 21.7847 18.0951C21.8753 18.0832 21.9391 18.0001 21.9271 17.9095C21.9152 17.8189 21.8321 17.7551 21.7415 17.7671Z" fill="#07038D"/>
<path d="M20.2913 10.5285L21.0171 12.6896L21.1718 13.8147L20.7432 12.763L20.2913 10.5285Z" fill="#07038D"/>
<path d="M20.7985 10.5982C20.8891 10.5863 20.9529 10.5032 20.9409 10.4126C20.929 10.322 20.8459 10.2582 20.7553 10.2702C20.6647 10.2821 20.601 10.3652 20.6129 10.4558C20.6248 10.5463 20.7079 10.6101 20.7985 10.5982Z" fill="#07038D"/>
</g>
</g>
</g>
<defs>
<clipPath id="clip0_504_7956">
<rect width="42.5388" height="28.3592" rx="7.82322" fill="white"/>
</clipPath>
<clipPath id="clip1_504_7956">
<rect width="42.5388" height="28.3592" fill="white"/>
</clipPath>
<clipPath id="clip2_504_7956">
<rect width="42.5388" height="28.3592" fill="white"/>
</clipPath>
</defs>
</svg>
