<svg width="17" height="17" viewBox="0 0 17 17" fill="none" xmlns="http://www.w3.org/2000/svg">
<path d="M1.02002 9.34768C3.137 8.99489 5.11897 8.81087 7.18277 6.61914" stroke="currentColor" stroke-width="0.68" stroke-linecap="round" stroke-linejoin="round"/>
<path d="M8.46628 5.53928C10.664 4.24325 13.8658 6.4371 13.5336 8.9947C13.184 11.6867 9.42346 12.1933 7.48848 11.982C5.55345 11.7707 4.63392 11.338 3.76758 9.91058" stroke="currentColor" stroke-width="0.68" stroke-linecap="round" stroke-linejoin="round"/>
<path d="M1.18481 10.312C3.91337 9.93568 6.15391 9.11335 8.07678 7.18359" stroke="currentColor" stroke-width="0.68" stroke-linecap="round" stroke-linejoin="round"/>
<path d="M9.4226 6.30826C10.6518 5.81046 13.7047 8.20227 12.0411 9.59262C10.0273 11.2757 6.21827 11.1825 5.06567 9.67702" stroke="currentColor" stroke-width="0.68" stroke-linecap="round" stroke-linejoin="round"/>
<path d="M3.39746 8.04374C3.49906 5.66837 6.25948 4.42759 7.75739 5.20304C9.19767 5.94875 10.4412 7.63706 12.3203 8.40843" stroke="currentColor" stroke-width="0.68" stroke-linecap="round" stroke-linejoin="round"/>
<path d="M13.595 8.72559C14.7594 8.9624 15.4382 9.02219 15.9799 8.79155" stroke="currentColor" stroke-width="0.68" stroke-linecap="round" stroke-linejoin="round"/>
<path d="M4.42383 7.85055C5.63317 5.0863 7.71252 6.37074 8.4476 6.95601C9.18272 7.54127 10.9983 9.14233 11.9934 9.3414" stroke="currentColor" stroke-width="0.68" stroke-linecap="round" stroke-linejoin="round"/>
<path d="M13.3896 9.72974C13.974 9.93174 15.1866 10.0527 15.9802 9.79323" stroke="currentColor" stroke-width="0.68" stroke-linecap="round" stroke-linejoin="round"/>
</svg>