<svg width="18" height="18" viewBox="0 0 18 18" fill="none" xmlns="http://www.w3.org/2000/svg">
<path d="M6.7183 12.6908H5.22527C4.23532 12.6908 3.28592 12.2976 2.58593 11.5976C1.88593 10.8976 1.49268 9.94818 1.49268 8.95824C1.49268 7.96829 1.88593 7.01889 2.58593 6.3189C3.28592 5.6189 4.23532 5.22565 5.22527 5.22565H6.7183" stroke="#4A5565" stroke-width="1.49304" stroke-linecap="round" stroke-linejoin="round"/>
<path d="M11.1978 5.22565H12.6908C13.6807 5.22565 14.6301 5.6189 15.3301 6.3189C16.0301 7.01889 16.4234 7.96829 16.4234 8.95824C16.4234 9.94818 16.0301 10.8976 15.3301 11.5976C14.6301 12.2976 13.6807 12.6908 12.6908 12.6908H11.1978" stroke="#4A5565" stroke-width="1.49304" stroke-linecap="round" stroke-linejoin="round"/>
<path d="M5.97217 8.95825H11.9443" stroke="#4A5565" stroke-width="1.49304" stroke-linecap="round" stroke-linejoin="round"/>
</svg>
