<svg width="26" height="27" viewBox="0 0 26 27" fill="none" xmlns="http://www.w3.org/2000/svg">
<path d="M22.6667 0H2.83333C1.26083 0 0 1.125 0 2.5V20C0 21.375 1.26083 22.5 2.83333 22.5H8.5L12.75 26.25L17 22.5H22.6667C24.225 22.5 25.5 21.375 25.5 20V2.5C25.5 1.125 24.225 0 22.6667 0ZM14.1667 20H11.3333V17.5H14.1667V20ZM17.0992 10.3125L15.8242 11.4625C14.8042 12.375 14.1667 13.125 14.1667 15H11.3333V14.375C11.3333 13 11.9708 11.75 12.9908 10.8375L14.7475 9.2625C15.2717 8.8125 15.5833 8.1875 15.5833 7.5C15.5833 6.125 14.3083 5 12.75 5C11.1917 5 9.91667 6.125 9.91667 7.5H7.08333C7.08333 4.7375 9.61917 2.5 12.75 2.5C15.8808 2.5 18.4167 4.7375 18.4167 7.5C18.4167 8.6 17.9067 9.6 17.0992 10.3125Z" fill="#DE4765"/>
</svg>
