<svg width="78" height="78" viewBox="0 0 78 78" fill="none" xmlns="http://www.w3.org/2000/svg">
<mask id="path-1-inside-1_954_9709" fill="white">
<path d="M0 38.8749C0 17.4049 17.4049 0 38.8749 0C60.345 0 77.7499 17.4049 77.7499 38.8749C77.7499 60.345 60.345 77.7499 38.8749 77.7499C17.4049 77.7499 0 60.345 0 38.8749Z"/>
</mask>
<path d="M0 38.8749M77.7499 38.8749M77.7499 38.8749M0 38.8749M38.8749 0M77.7499 38.8749M38.8749 77.7499M0 38.8749M38.8749 77.7499V75.8061C18.4784 75.8061 1.94375 59.2715 1.94375 38.8749H0H-1.94375C-1.94375 61.4185 16.3314 79.6936 38.8749 79.6936V77.7499ZM77.7499 38.8749H75.8061C75.8061 59.2715 59.2715 75.8061 38.8749 75.8061V77.7499V79.6936C61.4185 79.6936 79.6936 61.4185 79.6936 38.8749H77.7499ZM38.8749 0V1.94375C59.2715 1.94375 75.8061 18.4784 75.8061 38.8749H77.7499H79.6936C79.6936 16.3314 61.4185 -1.94375 38.8749 -1.94375V0ZM38.8749 0V-1.94375C16.3314 -1.94375 -1.94375 16.3314 -1.94375 38.8749H0H1.94375C1.94375 18.4784 18.4784 1.94375 38.8749 1.94375V0Z" fill="#E98498" mask="url(#path-1-inside-1_954_9709)"/>
<path d="M50.2135 37.2552H27.5365C25.7473 37.2552 24.2969 38.7056 24.2969 40.4948V51.8333C24.2969 53.6225 25.7473 55.0729 27.5365 55.0729H50.2135C52.0027 55.0729 53.4531 53.6225 53.4531 51.8333V40.4948C53.4531 38.7056 52.0027 37.2552 50.2135 37.2552Z" stroke="#E98498" stroke-width="2.42968" stroke-linecap="round" stroke-linejoin="round"/>
<path d="M30.7759 37.2552V30.776C30.7759 28.6281 31.6292 26.5681 33.148 25.0492C34.6669 23.5304 36.7268 22.6771 38.8748 22.6771C41.0228 22.6771 43.0828 23.5304 44.6016 25.0492C46.1205 26.5681 46.9738 28.6281 46.9738 30.776V37.2552" stroke="#E98498" stroke-width="2.42968" stroke-linecap="round" stroke-linejoin="round"/>
</svg>
