<svg width="12" height="15" viewBox="0 0 12 15" fill="none" xmlns="http://www.w3.org/2000/svg">
<path d="M9.8 4.9H9.1V3.5C9.1 1.568 7.532 0 5.6 0C3.668 0 2.1 1.568 2.1 3.5V4.9H1.4C0.63 4.9 0 5.53 0 6.3V13.3C0 14.07 0.63 14.7 1.4 14.7H9.8C10.57 14.7 11.2 14.07 11.2 13.3V6.3C11.2 5.53 10.57 4.9 9.8 4.9ZM5.6 11.2C4.83 11.2 4.2 10.57 4.2 9.8C4.2 9.03 4.83 8.4 5.6 8.4C6.37 8.4 7 9.03 7 9.8C7 10.57 6.37 11.2 5.6 11.2ZM3.5 4.9V3.5C3.5 2.338 4.438 1.4 5.6 1.4C6.762 1.4 7.7 2.338 7.7 3.5V4.9H3.5Z" fill="white"/>
</svg>
