<svg xmlns="http://www.w3.org/2000/svg" id="Layer_1" data-name="Layer 1" viewBox="62.88 370.9 883.94 190.78">
  <defs>
    <style>
      .cls-1 {
        fill: #232323;
      }

      .cls-2 {
        fill: #f16a86;
      }
    </style>
  </defs>
  <g>
    <path class="cls-1" d="M94.82,561.32c-10.18,0-18.05-3.1-23.6-9.3-5.56-6.2-8.34-14.74-8.34-25.62v-60.9h26.67v52.35c0,6.3,1.4,11.06,4.21,14.27s6.78,4.81,11.93,4.81,9.21-1.6,12.2-4.81c2.98-3.21,4.47-7.97,4.47-14.27v-52.35h26.68v94.07h-26.68v-13.45c-1.52,2.01-3.19,3.92-5,5.74-1.82,1.83-3.83,3.45-6.05,4.86-2.22,1.42-4.68,2.53-7.37,3.36-2.69.82-5.73,1.24-9.13,1.24Z"/>
    <path class="cls-1" d="M198.19,561.32c-6.67,0-13.49-1.14-20.45-3.42-6.96-2.28-13.6-5.88-19.92-10.79l11.41-17.55c5.15,3.75,10.27,6.56,15.36,8.42,5.09,1.87,9.86,2.81,14.3,2.81,3.86,0,6.7-.64,8.51-1.93,1.81-1.29,2.72-2.98,2.72-5.09v-.35c0-1.41-.53-2.63-1.58-3.69-1.05-1.05-2.49-1.96-4.3-2.72-1.82-.76-3.89-1.49-6.23-2.2-2.34-.7-4.8-1.46-7.37-2.28-3.28-.93-6.58-2.07-9.92-3.42-3.33-1.34-6.35-3.1-9.04-5.27-2.69-2.16-4.89-4.83-6.58-7.99-1.7-3.16-2.54-7.02-2.54-11.58v-.35c0-4.79.91-9.04,2.72-12.72,1.81-3.69,4.27-6.81,7.37-9.39,3.1-2.57,6.73-4.5,10.88-5.79,4.15-1.29,8.63-1.93,13.43-1.93,5.97,0,12.02.96,18.16,2.9,6.14,1.93,11.79,4.59,16.93,7.98l-10.18,18.43c-4.68-2.69-9.24-4.83-13.69-6.41-4.45-1.58-8.37-2.37-11.76-2.37s-5.73.61-7.37,1.84c-1.64,1.23-2.46,2.78-2.46,4.65v.35c0,1.29.53,2.43,1.58,3.42,1.05,1,2.46,1.93,4.21,2.81,1.76.88,3.77,1.73,6.05,2.54,2.28.82,4.71,1.64,7.28,2.46,3.27,1.05,6.61,2.31,10,3.77,3.39,1.46,6.43,3.25,9.13,5.35,2.69,2.11,4.91,4.68,6.67,7.72,1.75,3.04,2.63,6.73,2.63,11.06v.35c0,5.27-.91,9.8-2.72,13.6-1.82,3.8-4.36,6.93-7.63,9.39-3.28,2.46-7.11,4.3-11.49,5.53-4.39,1.23-9.1,1.84-14.13,1.84Z"/>
    <path class="cls-1" d="M295.07,488.31h-11.06v-21.94h11.06v-5.97c0-10.18,2.51-17.78,7.55-22.81,4.91-4.91,12.11-7.37,21.59-7.37,4.21,0,7.81.24,10.79.7,2.98.47,5.7,1.11,8.16,1.93v22.11c-1.99-.7-3.92-1.26-5.79-1.67-1.87-.41-3.98-.61-6.32-.61-6.44,0-9.65,3.4-9.65,10.18v3.69h21.59v21.76h-21.23v71.25h-26.68v-71.25Z"/>
    <path class="cls-1" d="M395.98,561.67c-7.26,0-13.98-1.26-20.18-3.77-6.2-2.52-11.56-5.97-16.06-10.35-4.51-4.39-8.05-9.54-10.62-15.44-2.58-5.91-3.86-12.25-3.86-19.04v-.35c0-6.78,1.29-13.13,3.86-19.04,2.57-5.91,6.14-11.08,10.71-15.53,4.56-4.45,9.94-7.95,16.15-10.53,6.2-2.57,12.99-3.86,20.36-3.86s13.98,1.26,20.18,3.77c6.2,2.52,11.55,5.97,16.06,10.35,4.5,4.39,8.04,9.54,10.62,15.44,2.57,5.91,3.86,12.26,3.86,19.04v.35c0,6.79-1.29,13.14-3.86,19.04-2.57,5.91-6.14,11.08-10.71,15.53-4.56,4.45-9.95,7.96-16.15,10.53-6.2,2.57-12.99,3.86-20.36,3.86ZM396.33,538.68c3.86,0,7.28-.67,10.27-2.02,2.98-1.34,5.53-3.19,7.63-5.53,2.11-2.34,3.71-5.06,4.83-8.16,1.11-3.1,1.67-6.4,1.67-9.92v-.35c0-3.51-.59-6.81-1.75-9.91-1.17-3.1-2.87-5.85-5.09-8.25-2.22-2.4-4.86-4.3-7.9-5.7-3.04-1.4-6.38-2.11-10-2.11-3.86,0-7.28.68-10.27,2.02-2.98,1.35-5.53,3.19-7.63,5.53-2.11,2.34-3.72,5.06-4.83,8.16-1.11,3.1-1.67,6.4-1.67,9.92v.35c0,3.51.58,6.82,1.76,9.92,1.17,3.1,2.86,5.85,5.09,8.25,2.22,2.4,4.83,4.3,7.81,5.7,2.98,1.4,6.35,2.11,10.09,2.11Z"/>
    <path class="cls-1" d="M458.63,465.5h26.68v18.95c2.69-6.43,6.38-11.58,11.06-15.44,4.68-3.86,11-5.62,18.95-5.27v27.9h-1.4c-8.89,0-15.88,2.69-20.97,8.07-5.09,5.38-7.63,13.75-7.63,25.09v34.75h-26.68v-94.07Z"/>
    <path class="cls-1" d="M568.84,561.67c-7.02,0-13.54-1.17-19.57-3.51-6.03-2.34-11.23-5.68-15.62-10-4.39-4.33-7.81-9.45-10.27-15.36-2.46-5.91-3.69-12.49-3.69-19.74v-.35c0-6.67,1.14-12.99,3.42-18.95,2.28-5.97,5.47-11.17,9.56-15.62,4.09-4.45,8.98-7.95,14.65-10.53,5.67-2.57,11.96-3.86,18.87-3.86,7.83,0,14.62,1.4,20.35,4.21,5.73,2.81,10.5,6.58,14.3,11.32,3.8,4.74,6.61,10.18,8.43,16.32,1.81,6.14,2.72,12.55,2.72,19.22,0,1.05-.03,2.17-.09,3.33-.06,1.17-.15,2.4-.26,3.69h-65.46c1.29,6.09,3.95,10.68,7.98,13.78,4.04,3.1,9.04,4.65,15.01,4.65,4.45,0,8.42-.76,11.93-2.28,3.51-1.52,7.14-3.98,10.88-7.37l15.27,13.51c-4.45,5.5-9.83,9.8-16.15,12.9-6.32,3.1-13.75,4.65-22.29,4.65ZM586.04,505.16c-.82-5.97-2.92-10.79-6.32-14.48-3.4-3.69-7.9-5.53-13.51-5.53s-10.15,1.82-13.6,5.44c-3.45,3.63-5.7,8.48-6.76,14.57h40.19Z"/>
    <path class="cls-1" d="M615.7,465.5h28.25l21.06,63,21.23-63h27.73l-37.03,94.77h-24.22l-37.03-94.77Z"/>
    <path class="cls-1" d="M766.27,561.67c-7.02,0-13.54-1.17-19.57-3.51-6.03-2.34-11.23-5.68-15.62-10s-7.81-9.45-10.27-15.36c-2.46-5.91-3.68-12.49-3.68-19.74v-.35c0-6.67,1.14-12.99,3.42-18.95,2.28-5.97,5.47-11.17,9.56-15.62,4.09-4.45,8.98-7.95,14.65-10.53,5.68-2.57,11.96-3.86,18.87-3.86,7.84,0,14.62,1.4,20.36,4.21,5.73,2.81,10.5,6.58,14.3,11.32,3.8,4.74,6.61,10.18,8.42,16.32,1.81,6.14,2.72,12.55,2.72,19.22,0,1.05-.03,2.17-.09,3.33-.06,1.17-.15,2.4-.26,3.69h-65.46c1.29,6.09,3.95,10.68,7.99,13.78,4.04,3.1,9.04,4.65,15,4.65,4.45,0,8.42-.76,11.93-2.28,3.51-1.52,7.14-3.98,10.88-7.37l15.27,13.51c-4.45,5.5-9.83,9.8-16.15,12.9-6.32,3.1-13.75,4.65-22.29,4.65ZM783.47,505.16c-.82-5.97-2.93-10.79-6.32-14.48-3.39-3.69-7.9-5.53-13.51-5.53s-10.15,1.82-13.6,5.44c-3.45,3.63-5.7,8.48-6.76,14.57h40.19Z"/>
    <path class="cls-1" d="M821.56,465.5h26.68v18.95c2.69-6.43,6.38-11.58,11.06-15.44,4.68-3.86,11-5.62,18.95-5.27v27.9h-1.4c-8.89,0-15.88,2.69-20.97,8.07-5.09,5.38-7.63,13.75-7.63,25.09v34.75h-26.68v-94.07Z"/>
  </g>
  <g>
    <path class="cls-2" d="M897.18,458.46c-7.39,5.65-22.6,11.27-22.6,11.27-2.11-11.12-14.13-22.1-8.03-34.27,2-4.01,6.63-6.34,10.61-5.6,4.82.91,7.57,5.55,8.65,10.34.7-.65,1.4-1.2,2.09-1.66,3.12,6.71,6.9,13.31,9.28,19.92Z"/>
    <path class="cls-2" d="M904.09,398.11c7.76,1.46,12.16,8.91,13.9,16.62,19.35-18,40.43,7.93,21.29,26.78-10.01,9.86-39.33,20.66-39.33,20.66-3.39-17.86-22.71-35.51-12.91-55.06,3.23-6.44,10.67-10.19,17.05-8.99Z"/>
  </g>
</svg>