<svg width="24" height="17" viewBox="0 0 24 17" fill="none" xmlns="http://www.w3.org/2000/svg">
<path d="M8.46148 8.46154C10.7981 8.46154 12.6923 6.56736 12.6923 4.23077C12.6923 1.89418 10.7981 0 8.46148 0C6.12489 0 4.23071 1.89418 4.23071 4.23077C4.23071 6.56736 6.12489 8.46154 8.46148 8.46154Z" fill="#2D2A2B"/>
<path d="M8.46154 10.5769C5.6375 10.5769 0 11.9942 0 14.8077V15.8654C0 16.4471 0.475962 16.9231 1.05769 16.9231H15.8654C16.4471 16.9231 16.9231 16.4471 16.9231 15.8654V14.8077C16.9231 11.9942 11.2856 10.5769 8.46154 10.5769Z" fill="#2D2A2B"/>
<path d="M20.0961 6.34617V3.1731H17.9807V6.34617H14.8076V8.46156H17.9807V11.6346H20.0961V8.46156H23.2692V6.34617H20.0961Z" fill="#2D2A2B"/>
</svg>
