<svg width="34" height="34" viewBox="0 0 34 34" fill="none" xmlns="http://www.w3.org/2000/svg">
<path d="M1.3855 11.8864C1.3855 14.0295 1.96102 16.1499 3.11207 18.2478C4.26313 20.3455 5.89762 22.3879 8.01554 24.375C10.1335 26.3621 12.6351 28.2612 15.5204 30.0722C15.6841 30.1729 15.8708 30.2659 16.0806 30.3515C16.2903 30.437 16.4719 30.4797 16.6254 30.4797C16.7891 30.4797 16.9758 30.437 17.1856 30.3515C17.3953 30.2659 17.5821 30.1729 17.7458 30.0722C20.6311 28.2612 23.1302 26.3621 25.243 24.375C27.3558 22.3879 28.9877 20.3455 30.1387 18.2478C31.2897 16.1499 31.8652 14.0295 31.8652 11.8864C31.8652 10.5483 31.6478 9.3233 31.213 8.21152C30.7782 7.09975 30.1695 6.13638 29.3867 5.32141C28.604 4.50645 27.6831 3.87762 26.6242 3.43492C25.5652 2.99222 24.4116 2.77087 23.1633 2.77087C21.7412 2.77087 20.4699 3.07775 19.3496 3.69149C18.2292 4.30523 17.3211 5.12019 16.6254 6.13639C15.9399 5.12019 15.0344 4.30523 13.9089 3.69149C12.7834 3.07775 11.5096 2.77087 10.0874 2.77087C8.84942 2.77087 7.70093 2.99222 6.64196 3.43492C5.58299 3.87762 4.65959 4.50645 3.87176 5.32141C3.08394 6.13638 2.4726 7.09975 2.03776 8.21152C1.60292 9.3233 1.3855 10.5483 1.3855 11.8864ZM3.85642 11.8864C3.85642 10.5483 4.125 9.37863 4.66215 8.37753C5.19931 7.37643 5.93598 6.59668 6.87217 6.03828C7.80836 5.47988 8.86988 5.20068 10.0567 5.20068C11.0185 5.20068 11.8524 5.36921 12.5584 5.70627C13.2643 6.04332 13.8629 6.46338 14.354 6.96644C14.8451 7.46951 15.2544 7.97257 15.5818 8.47564C15.7966 8.77748 15.9782 8.98122 16.1266 9.08686C16.275 9.19251 16.4412 9.24533 16.6254 9.24533C16.8096 9.24533 16.9733 9.18999 17.1166 9.07931C17.2598 8.96864 17.4439 8.76741 17.669 8.47564C18.0169 7.98263 18.439 7.48208 18.9352 6.97399C19.4314 6.46589 20.0248 6.04332 20.7155 5.70627C21.4061 5.36921 22.2323 5.20068 23.1941 5.20068C24.381 5.20068 25.4425 5.47988 26.3786 6.03828C27.3148 6.59668 28.0515 7.37643 28.5887 8.37753C29.1258 9.37863 29.3944 10.5483 29.3944 11.8864C29.3944 13.2849 29.0517 14.7011 28.3661 16.1348C27.6806 17.5686 26.7521 18.9747 25.5805 20.3531C24.409 21.7314 23.0789 23.0469 21.5902 24.2996C20.1015 25.5522 18.554 26.7017 16.9477 27.7481C16.7738 27.8688 16.6663 27.9292 16.6254 27.9292C16.5845 27.9292 16.4821 27.8688 16.3184 27.7481C14.7121 26.7017 13.1646 25.5522 11.6759 24.2996C10.1872 23.0469 8.85453 21.7314 7.67791 20.3531C6.50128 18.9747 5.5702 17.5686 4.88469 16.1348C4.19918 14.7011 3.85642 13.2849 3.85642 11.8864Z" fill="#232021"/>
</svg>
