<svg width="34" height="34" viewBox="0 0 34 34" fill="none" xmlns="http://www.w3.org/2000/svg">
<path fill-rule="evenodd" clip-rule="evenodd" d="M15.8695 3.08343C16.2869 2.66669 16.9636 2.66669 17.381 3.08343L18.0935 3.79486L18.0935 3.79487L21.6561 7.35209C22.0734 7.76884 22.0734 8.44454 21.6561 8.86129C21.2387 9.27805 20.562 9.27805 20.1446 8.86129L17.694 6.41439V16.644C17.694 17.2334 17.2155 17.7112 16.6252 17.7112C16.035 17.7112 15.5565 17.2334 15.5565 16.644V6.41439L13.1059 8.86129C12.6885 9.27805 12.0118 9.27805 11.5944 8.86129C11.177 8.44454 11.177 7.76884 11.5944 7.35209L15.157 3.79487L15.157 3.79486L15.8695 3.08343ZM6.65005 13.4425C6.45329 13.4425 6.29379 13.6018 6.29379 13.7982V26.6042C6.29379 26.8007 6.45329 26.96 6.65005 26.96H26.6004C26.7972 26.96 26.9567 26.8007 26.9567 26.6042V13.7982C26.9567 13.6018 26.7972 13.4425 26.6004 13.4425H22.3253C21.7351 13.4425 21.2566 12.9647 21.2566 12.3754C21.2566 11.786 21.7351 11.3082 22.3253 11.3082H26.6004C27.9777 11.3082 29.0942 12.423 29.0942 13.7982V26.6042C29.0942 27.9795 27.9777 29.0943 26.6004 29.0943H6.65005C5.27276 29.0943 4.15625 27.9795 4.15625 26.6042V13.7982C4.15625 12.423 5.27276 11.3082 6.65005 11.3082H10.9251C11.5154 11.3082 11.9939 11.786 11.9939 12.3754C11.9939 12.9647 11.5154 13.4425 10.9251 13.4425H6.65005Z" fill="#232021"/>
</svg>
