<svg width="18" height="18" viewBox="0 0 18 18" fill="none" xmlns="http://www.w3.org/2000/svg">
<g clip-path="url(#clip0_988_12281)">
<path d="M13.4373 5.97209C14.6742 5.97209 15.6769 4.96941 15.6769 3.73254C15.6769 2.49566 14.6742 1.49298 13.4373 1.49298C12.2004 1.49298 11.1978 2.49566 11.1978 3.73254C11.1978 4.96941 12.2004 5.97209 13.4373 5.97209Z" stroke="#101828" stroke-width="1.49304" stroke-linecap="round" stroke-linejoin="round"/>
<path d="M4.47881 11.1978C5.71568 11.1978 6.71837 10.1951 6.71837 8.95824C6.71837 7.72137 5.71568 6.71869 4.47881 6.71869C3.24194 6.71869 2.23926 7.72137 2.23926 8.95824C2.23926 10.1951 3.24194 11.1978 4.47881 11.1978Z" stroke="#101828" stroke-width="1.49304" stroke-linecap="round" stroke-linejoin="round"/>
<path d="M13.4373 16.4234C14.6742 16.4234 15.6769 15.4207 15.6769 14.1838C15.6769 12.947 14.6742 11.9443 13.4373 11.9443C12.2004 11.9443 11.1978 12.947 11.1978 14.1838C11.1978 15.4207 12.2004 16.4234 13.4373 16.4234Z" stroke="#101828" stroke-width="1.49304" stroke-linecap="round" stroke-linejoin="round"/>
<path d="M6.4126 10.0855L11.5113 13.0567" stroke="#101828" stroke-width="1.49304" stroke-linecap="round" stroke-linejoin="round"/>
<path d="M11.5039 4.8598L6.4126 7.83094" stroke="#101828" stroke-width="1.49304" stroke-linecap="round" stroke-linejoin="round"/>
</g>
<defs>
<clipPath id="clip0_988_12281">
<rect width="17.9164" height="17.9164" fill="white"/>
</clipPath>
</defs>
</svg>
