<svg width="102" height="102" viewBox="0 0 102 102" fill="none" xmlns="http://www.w3.org/2000/svg">
<mask id="path-1-inside-1_966_10257" fill="white">
<path d="M0 50.6206C0 22.6636 22.6636 0 50.6206 0C78.5775 0 101.241 22.6636 101.241 50.6206C101.241 78.5775 78.5775 101.241 50.6206 101.241C22.6636 101.241 0 78.5775 0 50.6206Z"/>
</mask>
<path d="M0 50.6206M101.241 50.6206M101.241 50.6206M0 50.6206M50.6206 0M101.241 50.6206M50.6206 101.241M0 50.6206M50.6206 101.241V99.2163C23.7819 99.2163 2.02482 77.4592 2.02482 50.6206H0H-2.02482C-2.02482 79.6958 21.5453 103.266 50.6206 103.266V101.241ZM101.241 50.6206H99.2163C99.2163 77.4592 77.4592 99.2163 50.6206 99.2163V101.241V103.266C79.6958 103.266 103.266 79.6958 103.266 50.6206H101.241ZM50.6206 0V2.02482C77.4592 2.02482 99.2163 23.7819 99.2163 50.6206H101.241H103.266C103.266 21.5453 79.6958 -2.02482 50.6206 -2.02482V0ZM50.6206 0V-2.02482C21.5453 -2.02482 -2.02482 21.5453 -2.02482 50.6206H0H2.02482C2.02482 23.7819 23.7819 2.02482 50.6206 2.02482V0Z" fill="#FA889E" mask="url(#path-1-inside-1_966_10257)"/>
<path d="M67.4941 52.7298C67.4941 63.2757 60.1119 68.5487 51.3377 71.607C50.8783 71.7627 50.3792 71.7553 49.9246 71.5859C41.1292 68.5487 33.7471 63.2757 33.7471 52.7298V37.9654C33.7471 37.406 33.9693 36.8696 34.3648 36.474C34.7604 36.0785 35.2969 35.8563 35.8563 35.8563C40.0746 35.8563 45.3476 33.3252 49.0176 30.1193C49.4644 29.7375 50.0329 29.5277 50.6206 29.5277C51.2083 29.5277 51.7767 29.7375 52.2236 30.1193C55.9147 33.3463 61.1665 35.8563 65.3849 35.8563C65.9443 35.8563 66.4808 36.0785 66.8763 36.474C67.2719 36.8696 67.4941 37.406 67.4941 37.9654V52.7298Z" stroke="#FA889E" stroke-width="3.16378" stroke-linecap="round" stroke-linejoin="round"/>
</svg>
