<svg width="21" height="21" viewBox="0 0 21 21" fill="none" xmlns="http://www.w3.org/2000/svg">
<path d="M18.5949 10.1426H1.69048" stroke="#666263" stroke-width="1.26783" stroke-linecap="round" stroke-linejoin="round"/>
<path d="M4.60649 4.31881L1.69048 10.1424V15.2137C1.69048 15.662 1.86858 16.092 2.1856 16.409C2.50262 16.726 2.93259 16.9041 3.38092 16.9041H16.9044C17.3528 16.9041 17.7827 16.726 18.0997 16.409C18.4168 16.092 18.5949 15.662 18.5949 15.2137V10.1424L15.6789 4.31881C15.5389 4.03717 15.3232 3.80016 15.0559 3.63442C14.7886 3.46868 14.4804 3.38078 14.1659 3.38062H6.11943C5.80494 3.38078 5.49673 3.46868 5.22945 3.63442C4.96218 3.80016 4.74644 4.03717 4.60649 4.31881Z" stroke="#666263" stroke-width="1.26783" stroke-linecap="round" stroke-linejoin="round"/>
<path d="M5.07143 13.5234H5.07832" stroke="#666263" stroke-width="1.26783" stroke-linecap="round" stroke-linejoin="round"/>
<path d="M8.45222 13.5234H8.45912" stroke="#666263" stroke-width="1.26783" stroke-linecap="round" stroke-linejoin="round"/>
</svg>
