<svg width="34" height="34" viewBox="0 0 34 34" fill="none" xmlns="http://www.w3.org/2000/svg">
<g clip-path="url(#clip0_661_11485)">
<path d="M29.75 17.3117C29.75 9.53417 23.715 4.25 17 4.25C10.3559 4.25 4.25004 9.42083 4.25004 17.3967C3.40004 17.8783 2.83337 18.785 2.83337 19.8333V22.6667C2.83337 24.225 4.10837 25.5 5.66671 25.5H7.08337V16.8583C7.08337 11.3758 11.5175 6.94167 17 6.94167C22.4825 6.94167 26.9167 11.3758 26.9167 16.8583V26.9167H15.5834V29.75H26.9167C28.475 29.75 29.75 28.475 29.75 26.9167V25.1883C30.5859 24.7492 31.1667 23.885 31.1667 22.865V19.6067C31.1667 18.615 30.5859 17.7508 29.75 17.3117Z" fill="#DE4765"/>
<path d="M12.75 19.8333C13.5324 19.8333 14.1667 19.1991 14.1667 18.4167C14.1667 17.6343 13.5324 17 12.75 17C11.9676 17 11.3334 17.6343 11.3334 18.4167C11.3334 19.1991 11.9676 19.8333 12.75 19.8333Z" fill="#DE4765"/>
<path d="M21.25 19.8333C22.0324 19.8333 22.6667 19.1991 22.6667 18.4167C22.6667 17.6343 22.0324 17 21.25 17C20.4676 17 19.8334 17.6343 19.8334 18.4167C19.8334 19.1991 20.4676 19.8333 21.25 19.8333Z" fill="#DE4765"/>
<path d="M25.5 15.6258C24.82 11.5883 21.3067 8.5 17.0709 8.5C12.7784 8.5 8.16004 12.0558 8.52837 17.6375C12.0275 16.2067 14.6625 13.09 15.4134 9.29333C17.2692 13.0192 21.08 15.5833 25.5 15.6258Z" fill="#DE4765"/>
</g>
<defs>
<clipPath id="clip0_661_11485">
<rect width="34" height="34" fill="white"/>
</clipPath>
</defs>
</svg>
