<svg width="8" height="8" viewBox="0 0 8 8" fill="none" xmlns="http://www.w3.org/2000/svg">
<path fill-rule="evenodd" clip-rule="evenodd" d="M3.05031 7.55713C3.27117 7.55713 3.46219 7.45565 3.60545 7.23478L7.61682 0.949118C7.70636 0.817793 7.78396 0.656622 7.78396 0.513359C7.78396 0.196987 7.5034 0 7.21091 0C7.0378 0 6.86469 0.101478 6.73336 0.304434L3.02046 6.20807L1.04463 3.73081C0.889425 3.53382 0.728254 3.46219 0.537236 3.46219C0.244741 3.46219 0 3.69499 0 4.01137C0 4.1606 0.0596929 4.32177 0.161171 4.44712L2.46532 7.24075C2.65037 7.46759 2.82945 7.55713 3.05031 7.55713Z" fill="white"/>
</svg>
